<svg xmlns="http://www.w3.org/2000/svg" width="14" height="15" fill="none" xmlns:v="https://vecta.io/nano"><g clip-path="url(#A)" stroke="#3b5597" stroke-width="1.229" stroke-linecap="round" stroke-linejoin="round"><path d="M5.834 7.833a2.93 2.93 0 0 0 .937.813 2.91 2.91 0 0 0 1.19.35 2.92 2.92 0 0 0 1.228-.176c.392-.146.748-.375 1.043-.671l1.75-1.75a2.92 2.92 0 0 0 .819-2.052c-.006-.765-.313-1.496-.854-2.037s-1.272-.848-2.037-.854a2.92 2.92 0 0 0-2.052.819l-1.003.998m1.312 3.394a2.93 2.93 0 0 0-.937-.813 2.91 2.91 0 0 0-1.19-.35 2.92 2.92 0 0 0-1.228.176c-.392.146-.748.375-1.043.671l-1.75 1.75a2.92 2.92 0 0 0-.819 2.052c.006.765.313 1.496.854 2.037s1.272.848 2.037.854 1.502-.287 2.052-.819l.997-.997"/></g><defs><clipPath id="A"><path fill="#fff" transform="translate(0 .25)" d="M0 0h14v14H0z"/></clipPath></defs></svg>