<svg width="107" height="32" viewBox="0 0 107 32" fill="none" xmlns="http://www.w3.org/2000/svg">
<path d="M31.7422 22.1602H41.1406L40.8125 24H28.7539L29.0703 22.1953L40.3906 8.78906H31.5312L31.8594 6.9375H43.4141L43.1094 8.70703L31.7422 22.1602ZM54.7 16.1133H47.5281L46.4734 22.1602H54.8172L54.4891 24H43.9539L46.9187 6.9375H57.3367L57.0086 8.78906H48.7937L47.8445 14.2734H55.0164L54.7 16.1133ZM63.2555 6.9375L66.2437 20.8359L74.0719 6.9375H76.9664L74.0016 24H71.8102L72.982 17.25L74.3766 10.3828L66.6422 24H64.9547L61.9078 10.1133L60.8531 17.4727L59.7164 24H57.5133L60.4781 6.9375H63.2555ZM80.5062 24H78.3148L81.2797 6.9375H83.4711L80.5062 24ZM94.382 19.6055C94.5539 18.3555 93.9055 17.4414 92.4367 16.8633L90.4094 16.125L89.7297 15.832C87.4484 14.793 86.382 13.332 86.5305 11.4492C86.6086 10.5039 86.9328 9.66797 87.5031 8.94141C88.0734 8.21484 88.8273 7.65625 89.7648 7.26562C90.7102 6.86719 91.7141 6.67969 92.7766 6.70312C93.8078 6.72656 94.7258 6.95703 95.5305 7.39453C96.343 7.83203 96.9602 8.44531 97.382 9.23438C97.8039 10.0156 97.9914 10.8984 97.9445 11.8828L95.7297 11.8711C95.8078 10.8242 95.5734 10.0156 95.0266 9.44531C94.4797 8.86719 93.6984 8.57031 92.6828 8.55469C91.6125 8.53906 90.718 8.78906 89.9992 9.30469C89.2805 9.82031 88.8664 10.5234 88.757 11.4141C88.6008 12.5781 89.3156 13.4609 90.9016 14.0625L92.6477 14.6836L93.5266 15.0586C95.7297 16.0742 96.7492 17.582 96.5852 19.582C96.4992 20.543 96.175 21.375 95.6125 22.0781C95.05 22.7734 94.2844 23.3125 93.3156 23.6953C92.3547 24.0781 91.3195 24.2578 90.2102 24.2344C89.1398 24.2266 88.1594 24 87.2687 23.5547C86.3859 23.1016 85.7141 22.4844 85.2531 21.7031C84.7922 20.9219 84.5891 20.0352 84.6437 19.043L86.8469 19.0547C86.7766 20.0703 87.05 20.8789 87.6672 21.4805C88.2922 22.0742 89.1711 22.3789 90.3039 22.3945C91.4367 22.4102 92.3703 22.1641 93.1047 21.6562C93.8391 21.1484 94.2648 20.4648 94.382 19.6055Z" fill="black"/>
<path d="M24.4726 12.2133H24.2648L22.138 6.89635C22.058 6.69612 21.8641 6.56483 21.6485 6.56483C21.5799 6.56483 21.5137 6.57815 21.4526 6.6026L17.8067 8.06062C17.5018 7.63517 17.0507 7.32138 16.5273 7.19339V6.52734C16.5273 6.23607 16.2913 6 16 6C15.7087 6 15.4726 6.23607 15.4726 6.52734V7.19339C14.5013 7.43083 13.7781 8.30809 13.7781 9.35165C13.7781 9.45753 13.7861 9.56162 13.8005 9.66366L10.1557 11.1213L10.1555 11.1214C10.0243 11.1741 9.91659 11.2785 9.86193 11.415L7.73512 16.732H7.52734C7.23607 16.732 7 16.9682 7 17.2593C7 18.796 8.2501 20.0461 9.78668 20.0461H10.9165C12.4531 20.0461 13.7032 18.796 13.7032 17.2593C13.7032 16.9682 13.4671 16.732 13.1758 16.732H12.9679L11.0371 11.9047L14.1933 10.6425C14.4983 11.068 14.9493 11.3818 15.4726 11.5096V20.6859H14.8703C13.3337 20.6859 12.0835 21.9358 12.0835 23.4726C12.0835 23.7639 12.3197 24 12.6108 24H19.3891C19.6803 24 19.9165 23.7639 19.9165 23.4726V23.4721C19.9165 21.9358 18.6662 20.6859 17.1296 20.6859H16.5273V11.5096C17.4987 11.2723 18.2218 10.3951 18.2218 9.35165C18.2218 9.24563 18.2139 9.14153 18.1996 9.0395L20.7018 8.03878L19.0321 12.2133H18.8241C18.533 12.2133 18.2968 12.4494 18.2968 12.7406C18.2968 14.2772 19.5469 15.5273 21.0836 15.5273H22.2133C23.7499 15.5273 25 14.2772 25 12.7406C25 12.4494 24.7639 12.2133 24.4726 12.2133ZM10.9165 18.9913H9.78668C9.01544 18.9913 8.36038 18.4847 8.13681 17.7867H12.5618C12.5633 17.7868 12.5647 17.7871 12.5662 17.7872C12.3425 18.485 11.6874 18.9913 10.9165 18.9913ZM11.8321 16.732H8.87111L10.3515 13.0308L11.8321 16.732ZM18.7798 22.9453H13.2202C13.4437 22.2474 14.0989 21.7406 14.8703 21.7406H17.1298C17.901 21.7406 18.5564 22.2474 18.7798 22.9453ZM16 10.5187C15.3565 10.5187 14.8328 9.99517 14.8328 9.35151C14.8328 8.70799 15.3565 8.18435 16 8.18435C16.6435 8.18435 17.1671 8.70799 17.1671 9.35151C17.1671 9.99517 16.6436 10.5187 16 10.5187ZM21.6485 8.51216L23.1289 12.2133H20.1679L21.6485 8.51216ZM22.2133 14.4726H21.0836C20.3124 14.4726 19.6572 13.9659 19.4336 13.268H23.8586C23.8601 13.2681 23.8616 13.2683 23.863 13.2684C23.6393 13.9662 22.9844 14.4726 22.2133 14.4726Z" fill="black"/>
</svg>
