<svg xmlns="http://www.w3.org/2000/svg" width="98.872" height="28.585" viewBox="0 0 26.16 7.563"  fill="#455053" xmlns:v="https://vecta.io/nano"><path d="M13.657 7.563v-3.45h1.157l.174-1.345h-1.331V1.91c0-.389.108-.655.666-.655h.712V.053A9.65 9.65 0 0 0 13.998 0c-1.027 0-1.729.627-1.729 1.777v.992h-1.161v1.345h1.161v3.45zm11.378-5.839h-3.571c-.62 0-1.125.505-1.125 1.125V6.42c0 .62.505 1.125 1.125 1.125h3.571c.62 0 1.125-.505 1.125-1.125V2.849c0-.62-.505-1.125-1.125-1.125zm.354.651h.127v.966l-.973.003-.003-.966zm-2.14 1.286c.807 0 .974.758.974.974 0 .536-.437.974-.974.974s-.974-.437-.974-.974c0-.216.166-.974.974-.974zm2.273 2.689a.56.56 0 0 1-.558.558h-3.44a.56.56 0 0 1-.558-.558V3.987h.808c-.075.185-.117.437-.117.648 0 .878.714 1.592 1.592 1.592s1.591-.714 1.591-1.592c0-.211-.042-.464-.117-.648h.799V6.35zM2.284 5.485l-.096 1.661c.138 0 .197-.073.269-.16l.646-.757 1.338 1.202c.245.168.418.079.485-.277l.878-5.048h0c.078-.445-.131-.619-.37-.51L.27 4.021c-.352.168-.347.409-.06.518l1.32.504L4.596 2.69c.144-.117.276-.052.168.065z"/></svg>