<svg xmlns="http://www.w3.org/2000/svg" fill="none" width="96" height="32" xmlns:v="https://vecta.io/nano"><mask id="A" height="31" maskUnits="userSpaceOnUse" width="22" x="75" y="0"><path d="M85.878 0c-7.227 0-10.727 6.319-9.722 13.028.13.907.875 3.241 1.62 4.893 1.167 2.625 2.69 5.25 3.889 7.291l8.88-15.393H80.92V7.972h.745 11.018.648v.745l-.616 1.037-9.949 17.24c1.329 2.074 2.398 3.37 2.722 3.37.875 0 8.815-9.657 10.305-17.597C96.961 6.06 93.104 0 85.878 0z" fill="#81c0a4"/></mask><path d="M17.176 14.259c-.648-.648-1.62-1.458-2.722-1.944s-2.398-.81-3.63-.81c-4.861 0-8.426 3.889-8.426 8.75 0 5.704 4.634 8.555 8.458 8.555 1.426 0 2.787-.389 3.889-.972 1.232-.583 2.042-1.393 2.43-1.75v2.884c-2.366 1.653-4.731 2.042-6.319 2.042C4.634 31.013 0 26.282 0 20.222 0 13.935 4.699 9.301 10.986 9.301c1.264 0 3.694.162 6.19 2.074zm3.694 3.305h2.268v1.426c.259-.357 1.167-1.718 2.949-1.718.713 0 1.426.259 2.009.518l-1.07 2.042c-.518-.357-.972-.454-1.329-.454-.907 0-1.491.357-1.815.81-.389.518-.745 1.393-.745 3.532v6.87H20.87zm20.124 9.722c-.389.713-.94 1.523-1.588 2.107-1.199 1.069-2.625 1.588-4.343 1.588-3.143 0-6.449-1.944-6.449-6.838 0-3.889 2.43-6.903 6.319-6.903 2.56 0 4.148 1.264 4.926 2.398.843 1.167 1.329 3.143 1.231 4.893H30.948c0 2.657 1.88 4.44 4.148 4.44 1.037 0 1.912-.324 2.657-.94.583-.518 1.069-1.167 1.361-1.782zm-2.236-4.634c-.389-2.042-1.912-3.403-3.824-3.403s-3.5 1.426-3.824 3.403zM54.54 7.68h2.268v22.912H54.54v-1.815c-.713.972-2.204 2.204-4.472 2.204-3.273 0-6.352-2.333-6.352-6.903 0-4.504 2.981-6.838 6.352-6.838 2.528 0 3.856 1.426 4.472 2.171zm-8.49 16.398c0 2.755 1.588 4.893 4.278 4.893 2.755 0 4.343-2.268 4.343-4.861 0-3.37-2.333-4.829-4.343-4.829-2.236-.032-4.278 1.62-4.278 4.796zm15.847-13.06a1.59 1.59 0 0 1 1.588 1.588 1.59 1.59 0 0 1-1.588 1.588 1.59 1.59 0 0 1-1.588-1.588 1.59 1.59 0 0 1 1.588-1.588zm1.134 6.546v13.06h-2.269v-13.06zm6.611 2.074v10.986h-2.268V19.638H65.98v-2.074h1.394v-4.731h2.268v4.731h2.269v2.074z" fill="#67579c"/><g mask="url(#A)"><path d="M75-1h31.013v34.795H75z" fill="#59c2a4"/></g></svg>