<svg xmlns="http://www.w3.org/2000/svg" xmlns:xlink="http://www.w3.org/1999/xlink" viewBox="0 0 988.88 442.27" width="989" height="442" xmlns:v="https://vecta.io/nano"><linearGradient id="A" gradientUnits="userSpaceOnUse" x1="145.6" x2="281.58" y1="283.45" y2="375.16"><stop offset="0" stop-color="#6c4a1d"/><stop offset="1" stop-color="#291b12"/></linearGradient><linearGradient id="B" gradientUnits="userSpaceOnUse" x1="193.13" x2="193.13" y1="423.55" y2="252.74"><stop offset="0" stop-color="#7c4c28"/><stop offset=".12" stop-color="#85542e"/><stop offset=".32" stop-color="#9f693d"/><stop offset=".5" stop-color="#bb814f"/><stop offset=".99" stop-color="#7c4c28"/></linearGradient><radialGradient id="C" cx="418.19" cy="228.9" gradientTransform="matrix(.94 0 0 .66 -61.54 85.23)" gradientUnits="userSpaceOnUse" r="24.87"><stop offset="0" stop-color="#f2a27d"/><stop offset=".22" stop-color="#f2a27d" stop-opacity=".99"/><stop offset=".36" stop-color="#f2a47e" stop-opacity=".95"/><stop offset=".47" stop-color="#f2a67f" stop-opacity=".89"/><stop offset=".58" stop-color="#f2aa80" stop-opacity=".81"/><stop offset=".67" stop-color="#f2ae82" stop-opacity=".7"/><stop offset=".76" stop-color="#f2b484" stop-opacity=".56"/><stop offset=".84" stop-color="#f2ba87" stop-opacity=".4"/><stop offset=".92" stop-color="#f2c18a" stop-opacity=".22"/><stop offset="1" stop-color="#f2ca8d" stop-opacity=".01"/><stop offset="1" stop-color="#f2ca8d" stop-opacity="0"/></radialGradient><radialGradient id="D" cx="164.46" cy="253.96" gradientUnits="userSpaceOnUse" r="15.59"><stop offset="0" stop-color="#fff"/><stop offset=".73" stop-color="#b4574f"/><stop offset=".99" stop-color="#98180d"/></radialGradient><radialGradient id="E" cx="215.79" cy="238.51" gradientTransform="matrix(1 0 0 .7 0 71.55)" r="37.89" xlink:href="#C"/><radialGradient id="F" cx="224.6" cy="204.03" gradientUnits="userSpaceOnUse" r="12.32"><stop offset="0" stop-color="#f0ffd4"/><stop offset=".99" stop-color="#3e6525"/></radialGradient><radialGradient id="G" cx="329.94" cy="215.74" r="12.2" xlink:href="#F"/><linearGradient id="H" gradientUnits="userSpaceOnUse" x1="184.71" x2="250.94" y1="174.31" y2="174.31"><stop offset="0"/><stop offset=".07" stop-color="#2e2014"/><stop offset=".14" stop-color="#593e26"/><stop offset=".21" stop-color="#7d5635"/><stop offset=".28" stop-color="#996a41"/><stop offset=".36" stop-color="#ac7749"/><stop offset=".43" stop-color="#b87f4e"/><stop offset=".5" stop-color="#bc8250"/><stop offset=".57" stop-color="#b77f4e"/><stop offset=".64" stop-color="#aa7548"/><stop offset=".72" stop-color="#93663f"/><stop offset=".79" stop-color="#745031"/><stop offset=".87" stop-color="#4b3420"/><stop offset=".96" stop-color="#1a120b"/><stop offset=".99"/></linearGradient><linearGradient id="I" gradientUnits="userSpaceOnUse" x1="233.88" x2="213.55" y1="120.2" y2="38.66"><stop offset="0" stop-color="#fff"/><stop offset=".06" stop-color="#f0ede9"/><stop offset=".25" stop-color="#c8bbad"/><stop offset=".43" stop-color="#a7937b"/><stop offset=".6" stop-color="#8e7354"/><stop offset=".76" stop-color="#7b5c38"/><stop offset=".89" stop-color="#704e27"/><stop offset=".99" stop-color="#6c4921"/></linearGradient><linearGradient id="J" gradientUnits="userSpaceOnUse" x1="124.88" x2="262.45" y1="208.18" y2="70.61"><stop offset="0" stop-color="#b17c4a"/><stop offset=".15" stop-color="#9c6c41"/><stop offset=".53" stop-color="#6d482c"/><stop offset=".83" stop-color="#503120"/><stop offset=".99" stop-color="#45291b"/></linearGradient><linearGradient id="K" gradientUnits="userSpaceOnUse" x1="205.08" x2="205.08" y1="254.72" y2="82.88"><stop offset="0" stop-color="#7a4f3f"/><stop offset=".13" stop-color="#7e5240"/><stop offset=".27" stop-color="#8b5c44"/><stop offset=".41" stop-color="#a06b4b"/><stop offset=".55" stop-color="#bd8154"/><stop offset=".57" stop-color="#c18455"/><stop offset=".67" stop-color="#a8714d"/><stop offset=".79" stop-color="#8f5e45"/><stop offset=".9" stop-color="#7f5341"/><stop offset=".99" stop-color="#7a4f3f"/></linearGradient><linearGradient id="L" gradientUnits="userSpaceOnUse" x1="187.64" x2="406.72" y1="156.66" y2="156.66"><stop offset="0" stop-color="#6c4921"/><stop offset=".1" stop-color="#755026"/><stop offset=".27" stop-color="#8f6235"/><stop offset=".49" stop-color="#b87f4d"/><stop offset=".5" stop-color="#bb814f"/><stop offset=".99" stop-color="#6c4921"/></linearGradient><linearGradient id="M" gradientUnits="userSpaceOnUse" x1="290.65" x2="306.29" y1="48.81" y2="227.52"><stop offset="0" stop-color="#6c4921"/><stop offset=".07" stop-color="#81582d"/><stop offset=".2" stop-color="#a06e3f"/><stop offset=".32" stop-color="#b37b4a"/><stop offset=".39" stop-color="#ba804e"/><stop offset=".53" stop-color="#ae7747"/><stop offset=".78" stop-color="#8d6034"/><stop offset=".99" stop-color="#6c4921"/></linearGradient><circle cx="248.83" cy="217.41" fill="#29abe2" r="193.03"/><path d="m187.64 264.47c.88 30.72-73.08 20.16-61.26 13 44-26.52 9.31-37.53 10.32-63.39 1.07-27.23 12.15 1 25.95 1s24.21 22.15 24.99 49.39z" fill="#2b170c"/><path d="M315 307.75c0 35.29-58 102.68-97.18 102.68s-99.23-33.74-99.23-69 31.74-63.89 70.89-63.89S315 272.47 315 307.75z" fill="url(#A)"/><path d="M358.79 378.54c-63.14 40.93-123.15 32-171.15 32 45.75-5.2 21-93.59 26-124.47l47.81-4.34c1.4 19.05 1.23 111.83 97.34 96.81z" fill="#eab17a"/><path d="m114.21 303c0 17.75 37.62 4.53 51.3-14.8 28-39.59 6.6-47.88 6.6-65.63s-.55 18.42-17.1 45c-18.01 29.05-40.8 17.69-40.8 35.43z" fill="#503325"/><path d="m216.76 307.5c5.42 44.93 8 122-22.48 115.69-16.41-3.37 17.95-26.58 11.85-46.06-12.34-39.41-37.42-44.42-43.79-94.33-5.85-45.82 19.5-25.66 49.11-25.66s-.22 4.5 5.31 50.36z" fill="url(#B)"/><path d="M246.35.68c-121.94 0-220.8 98.85-220.8 220.8q0 6.52.37 12.94L0 254.22l15.18 10.11L.39 286.74s32.91 17.59 42.8 21.33a220.85 220.85 0 0 0 203.17 134.2c121.94 0 220.8-98.85 220.8-220.8S368.3.68 246.35.68zm0 414c-106.7 0-193.2-86.5-193.2-193.2s86.5-193.2 193.2-193.2 193.2 86.5 193.2 193.2-86.5 193.19-193.2 193.19z" opacity=".1"/><path d="M248.83 0C129.13 0 32.1 97 32.1 216.73q0 6.4.37 12.7L7 248.88l14.9 9.93-14.52 22s32.3 17.27 42 20.94a216.79 216.79 0 0 0 199.45 131.71c119.7 0 216.73-97 216.73-216.73S368.53 0 248.83 0zm0 406.37c-104.74 0-189.64-84.9-189.64-189.64s84.9-189.64 189.64-189.64S438.47 112 438.47 216.73s-84.91 189.64-189.64 189.64z" fill="#fff"/><path d="M983.52 290.37L638.75 163.15c-20.17 9.72-39 36.27-42.68 43.68a64.89 64.89 0 0 1 3.05-10.73l10.81-24.62c1.34-3 4.27-4.89 6.6-7.09 12.78-10.53 34.56-36.31 36-43s2-15.07.25-20.63S642.6 78.2 638.7 77.17c-21 5.06-37.18 4-42.12 6.67s-16.88 19.9-16.88 19.9-64.08-43.39-115.13 8.16c-49 80-59 263-59 263s-4 4-8.25 7.6c4.58 3.72 9.54 7 14.4 10.26 5.45 3.18 10.61 7.24 16.91 8.61a22.84 22.84 0 0 0 22.39-7.17c3.05-2.92 4-7.13 5.32-11-.56-34.31.39-68.69 4.46-102.78l1.74-11c3.81.38 16 .64 18.23.76l1.12 10.18c.88 10.7 4.31 20.9 7 31.2 1.68 6.25 11.81 24.33 15.39 26.18 2.19 1.34 4.82 1.63 7.09 2.79.24 2-.36 4-.64 6-1.72 14.6-.08 29.93 7.08 43 1 3.06 16.1 21.5 23.73 25.78 14.55 9 32.35 11.37 49.12 9.27 22.61-2.61 43.61-14.76 58.05-32.19a106.74 106.74 0 0 1 7.29-9.17c4.12 2.73 7.83 6.35 12.77 7.58 9.56 3.21 20.19 1.31 28.7-3.81 4.24-2.27 8-5.33 11.73-8.27 1.6-1.64 3.48.48 5 1.16 9.9 6.26 22.23 7.12 33.54 5.19a57.44 57.44 0 0 0 25.95-11.91c1.68-2.08 3.77.28 5.41 1.14 9.4 6.44 21.88 7.06 32.35 3 5-1.78 9.29-5 13.47-8.15 6.13 3.92 13.28 6.77 20.69 5.91 8.91-.46 16.83-5.17 23.75-10.44 7.9 5.65 18.42 8.15 27.74 4.71 6.4-1.94 11.82-5.95 17-10 3.28 1.31 6.1 3.82 9.63 4.68 11.25 3.63 23.69 1 33.56-5.13 10.75-6.63 19.11-16.31 27.16-25.89a63.29 63.29 0 0 0 4.19-6.25c1.12-10.77-6-25.6-5.25-36.32a12.55 12.55 0 0 1-6.27.44c.15-1 0-2 .16-3 .41-8.21 2.88-30.31 3.08-33.42-2.22-.89-9.53-5.81-10.18-6.24.82-6.3 2.09-12.54 2.89-18.85.29-1.94 1.56-15.15 1.94-17.07 0 0-25.94 4.69-45.78 9.06-7.62-1.69-11.08-1.82-16.76-3.87-1.73 1.07-10.09 3.79-15.6 3.25-8-.78-14.07-3.82-15-3.87.32-7.73-.63-28.19-.56-31.89 1.47.13-59.34 18.38-60.73 19-.11-7.19.84-10.41-2.43-19.86-.94-2.72-17-29.33-53.54-14.76-33-17.17-61.14 8.52-66.08 16.8-.12-17.43-37.53-33.72-59.78-22.99z" opacity=".1"/><path d="M978 286.86L638.47 161.57c-19.87 9.57-38.43 35.72-42 43a63.9 63.9 0 0 1 3-10.57c3.58-8.08 6.85-16.28 10.65-24.25 1.32-3 4.2-4.82 6.5-7 12.58-10.37 34-35.76 35.5-42.33s1.95-14.84.24-20.31-10-22.21-13.87-23.23c-20.68 5-36.61 3.89-41.48 6.57s-16.01 19.66-17.25 20.31c3.73-13.24-74.77-52.06-125-1.3-81.42 102.66-72 236.46-71.93 247.78 1.09 8.27 2.07 8.51 5.16 13.56 6.58 10.29 17 17.25 27 23.91 5.37 3.13 10.45 7.13 16.65 8.48a22.49 22.49 0 0 0 22.05-7.06c3-2.88 4-7 5.24-10.82-.55-33.79.38-67.65 4.39-101.22l1.71-10.87c3.76.37 15.72.63 18 .75l1.1 10c.87 10.54 4.24 20.58 6.94 30.73 1.65 6.16 11.63 24 15.16 25.78 2.16 1.32 4.75 1.61 7 2.74.23 2-.35 4-.63 5.92-1.69 14.38-.08 29.48 7 42.32 1 3 15.85 21.17 23.37 25.39 14.32 8.89 31.86 11.2 48.37 9.13 22.26-2.57 42.94-14.54 57.17-31.7a105.12 105.12 0 0 1 7.18-9c4.06 2.69 7.71 6.26 12.57 7.46 9.41 3.16 19.88 1.29 28.27-3.76a82.36 82.36 0 0 0 11.55-8.14c1.58-1.62 3.43.48 4.94 1.14 9.75 6.17 21.89 7 33 5.11a56.57 56.57 0 0 0 25.55-11.73c1.65-2 3.72.27 5.32 1.12 9.25 6.34 21.54 6.95 31.86 3 4.91-1.75 9.15-4.89 13.26-8 6 3.86 13.08 6.67 20.38 5.82 8.78-.46 16.57-5.09 23.39-10.29 7.78 5.57 18.14 8 27.31 4.64 6.31-1.91 11.64-5.86 16.75-9.83 3.23 1.29 6 3.77 9.49 4.61 11.08 3.57 23.33 1 33-5.05 10.59-6.53 18.82-16.07 26.75-25.5a62.33 62.33 0 0 0 4.13-6.16c1.1-10.61-5.9-25.21-5.17-35.77a12.36 12.36 0 0 1-6.18.44c.15-1 0-2 .15-3 .41-8.09 2.84-29.85 3-32.91-2.19-.88-9.38-5.73-10-6.14.81-6.21 2.06-12.35 2.84-18.57.28-1.91 1.53-14.92 1.91-16.81 0 0-25.54 4.62-45.09 8.92-7.5-1.66-10.91-1.79-16.5-3.81-1.7 1.05-9.93 3.73-15.37 3.2-7.89-.77-13.86-3.76-14.75-3.81.31-7.61-.62-27.76-.55-31.4 1.45.13-58.43 18.1-59.81 18.75-.11-7.08.83-10.26-2.4-19.56-.93-2.68-16.73-28.89-52.73-14.54-32.48-16.91-60.21 8.39-65.08 16.54-.26-17.25-37.07-33.25-59.01-22.68z" fill="#fff"/><path d="M604.79 101.67l22.41-5.78a4 4 0 0 1 4.8 1.66c2.69 5.07 3.86 11.44 1.27 16.8-6 14.36-18.4 24.43-29.86 34.34-3.53 3.25-8.19 5.79-10 10.5-4.78 10.46-9.44 21-13.58 31.71-3.58 12.36-6.51 25.13-6.37 38.07.29 5.37.94 11.86 6 15 7.44 2.21 14.8-1.83 20.39-6.47 3.58-3 7-6.13 10.5-9.15 1.54-17.33 11.56-33.22 25.43-43.43a37.53 37.53 0 0 1 27.92-7.19c5.67 1.06 11.39 4.2 13.91 9.62 3.44 7.17 1.29 16.1-4.08 21.73-9.89 10.62-24.12 15.6-37.65 19.75l-1.28 1.8c1.56 5.46 3.77 11.11 8.4 14.71 8 5.67 19.36 4.78 27.17-.77 6.72-4.83 12.63-10.7 18.37-16.64 10.32-13.38 17.87-29 30.37-40.61 6.17-5.95 14.42-10.74 23.28-9.91a18.29 18.29 0 0 1 13.45 6.71c2.06 2.87 2.86 6.41 4.79 9.37l2.24-.3c3-5 6.35-10 11.39-13.11 6.36-3.69 15.09-4 21.1.56 2.75 2.94 5.57 6.8 5.05 11-2.16 3.24-5.13 5.87-8 8.49-1.9 1.53-3.91 3.53-6.57 3.08-.47-4.45-.8-9.38-4.11-12.77-2.59-2.85-7.12-1.12-9.26 1.42-4.61 6-6.79 13.35-8.78 20.53-2.56 9.84-5.18 19.83-5.25 30-.27 5.78 3.81 12.58 10.18 12.5 4.11-.14 7.82-2.15 11.48-3.83a184.47 184.47 0 0 0 27.37-17.34c3.51-2.52 6.54-5.69 10.28-7.88-.59 3.2-.63 6.55-1.49 9.67a139.39 139.39 0 0 1-36.43 25c-7.45 3.32-15.55 6.86-23.89 5.3-7.31-1-13.25-6.46-16.26-13-1.08-1.79-1.34-5.23-4.23-4-3.64 5.64-7.78 11.35-14 14.43-7.52 4-17.37 4.15-24.52-.75-2.78-1.67-5.51-4.06-6.14-7.39-.3-2.86 2.38-4.66 4.08-6.54 3.07-2.44 5.78-5.75 9.69-6.8 2.78 4.13 3.46 9.89 8 12.62 3.43 2.24 7.85.7 10.67-1.81 3.33-3.07 5.24-7.3 7.07-11.35 5-11.34 6.78-23.67 8.82-35.77.49-4.41.93-9.59-2.11-13.22-3.52-3.66-9.4-2-12.82 1-14.61 12.32-20.43 31.63-33.91 44.91-9.06 8.87-18.46 17.82-29.82 23.69a43.65 43.65 0 0 1-28.26 3.22 28.24 28.24 0 0 1-19.86-18.63 38 38 0 0 0-1.93-5.05l-1.69-.08c-8.73 7.15-17.75 14.64-28.7 18.05-7.57 2.31-16.6 2.29-23.07-2.79a26.59 26.59 0 0 1-10.18-17.86c-1.38-8.08-.1-16.26 1-24.28a8.28 8.28 0 0 0-3.3-.71A136.12 136.12 0 0 1 524.1 230c-1.54.66-1.3 2.41-1.33 3.8a182.83 182.83 0 0 0 2.49 28.12c1.82 8.84 4 18 9.85 25.17.91 1.23 2.7 3 .91 4.35a72.9 72.9 0 0 0-16.53 25.4 5.33 5.33 0 0 1-5.25-1.12 177.67 177.67 0 0 1-13.3-66.29 13.11 13.11 0 0 0-.82-5.42c-4.66.77-9.06 2.69-13.77 3.19-10.83 1.71-21.81-.41-32.08-3.81-2.41-1.11-4.73.83-5 3.24-4 15.93-6 32.28-7.49 48.6-2.19 25.87-2.91 51.86-2.53 77.82a26.29 26.29 0 0 1-.52 4.33c-4 .61-7.3-1.94-10.46-3.92-8.19-5.1-16.46-10.49-22.7-18a10.24 10.24 0 0 1-2.35-7.73c2-63.24 14.05-127.25 43.12-183.91 7.58-13.94 15.56-28.08 27.29-39 10.65-10.16 23.52-18.3 37.88-21.93 11.19-2.72 22.84-1.09 34 1a53.49 53.49 0 0 1 17 6.06 12.21 12.21 0 0 1-.71 7.84c-2.31 1.28-5.08 1.64-7.1 3.44a33.41 33.41 0 0 0-8.49 11c-12.44 25.4-19.22 53.26-22.81 81.21 12.48-4.68 22.72-14.15 30.35-24.93 4.28-5.32 6.15-12 9.13-18.05 9.86-21.53 20.51-42.86 34-62.38 1.96-2.76 4.43-5.62 7.91-6.41zm14.48 7.47c-4 5.55-7.15 11.67-10.75 17.48a35.36 35.36 0 0 0-3.37 6.69 103.82 103.82 0 0 0 16.11-16.44c2.35-3.3 5.36-6.4 6.24-10.5-2.84.46-5.9 1.05-8.23 2.77zm-107.3 14c-13.72 6.83-23.75 19.09-31.52 32-9.84 16.88-16.13 35.57-21 54.42-.47 2.31-1.45 4.72-.86 7.1a42.92 42.92 0 0 0 14.82 9.5c8.44 3 17.76 2.25 26.18-.41 1.24-.31 2.71-1.11 2.58-2.62 4-35.23 13.29-70.49 30.87-101.42.35-.22.46-.14 0 0-.24-1.56-1.06-3.47-2.95-3.27-6.32.11-12.46 2.06-18.09 4.72zm131.84 67c-7.44 8.19-10 19.57-10.25 30.36l1.48 1c5-.46 9.59-3.23 13.82-5.87 8-5.23 12.53-15.32 10.38-24.74-.64-2-1.68-4.18-3.82-4.82-4.3-1.75-8.79.93-11.62 4.06zm193.41 24.1c7.78-4.18 14.64-9.8 22.14-14.43-2 39.47-10.95 78.2-13.07 117.66 0 5.11-1 11.44 3.55 15.08A8.54 8.54 0 0 0 856 331c5.38-4 9.42-9.51 13.31-14.91.75-14.09 4-27.88 7.46-41.5 7.51-2.37 15.08-4.59 22.5-7.27.1 4.51-1.55 8.82-2.32 13.21-2.29 11.31-5.1 22.56-6.13 34.07-.31 4.28-.64 9.57 3.4 12.31 6.08.34 10.2-4.86 13.61-9.15 1.71-2.55 4.64-4.73 4.62-8.06.57-8.76 2.79-17.27 3.94-25.94.1-.46 0-.1.24-1.13-2.3-.48-4.1.13-6.45.26.13-4.69.88-9.31 1.3-14 2.77-.43 5.54-.83 8.34-1.14l5.28-32.24c7.71-2.25 15.3-4.94 23-7.14q-2.89 17.57-5.91 35.11c4.16-.26 8.23-1.23 12.37-1.79l-1.58 13.87-13.56 2.46c-1.59 11.22-4.94 22.23-5.21 33.61-.13 4.13.7 9.41 5 11.25 3.56 1.49 7.51-.15 10.57-2.08 5.32-3.75 8.87-9.32 13.18-14.08.46 3.23.74 6.47 1.08 9.72a113.34 113.34 0 0 1-19.3 19.69c-5.53 4-12.83 7-19.6 4.66-7.4-2.68-11-10.56-12.48-17.77-6.84 7.9-13.36 16.54-22.6 21.84-3.77 2.21-8.86 2.43-12.4-.35-5.31-3.84-7.25-10.53-8.34-16.68-7.41 7.49-13.45 16.89-23.17 21.69-4.31 2.3-10.1 1.84-13.53-1.82-5.11-5.12-6.14-12.65-7.41-19.43a50.59 50.59 0 0 1-20.43 24.52c-5.26 3.16-12.31 3.85-17.61.39a26 26 0 0 1-8.44-9c-1.32-2.39-2-5.08-3.18-7.51-4.18 5.69-9.4 10.53-14.64 15.24-8 6.93-18.84 10.76-29.44 9.36-9.95-1-18.18-9.11-20.79-18.54-6 7.16-12.25 14.25-19.91 19.7-4.26 3.11-9.34 5.89-14.79 5.32-6.62-1.25-10.94-7.85-11.39-14.27-.9-11 4-21.26 7.94-31.24l-1.18-1.54a65.86 65.86 0 0 1-10.5 4.3c-3.9 20.8-17.23 38-30.88 53.5a66.7 66.7 0 0 1-40.14 21c-14.83 2.21-31.35-.17-42.83-10.5a44.19 44.19 0 0 1-15.46-29.69c-1.63-17.35 2.86-35 11.74-49.94a79 79 0 0 1 35.14-32.7 44.81 44.81 0 0 1 26.58-3.73c10.15 1.9 19.19 10 21.11 20.3 3 16.29-4.52 34.67-19.23 42.81a25.52 25.52 0 0 1-19.72 2.15c-4.58-1.57-8.57-5.76-8.61-10.81-.53-3.46 1.35-6.51 3.16-9.25 2 1.31 3.07 4 5.64 4.39 6.53 2 12.65-3.24 15.87-8.47 5-7.23 7.19-16.57 5.26-25.18-1.09-5-5.24-9.54-10.55-10-5.79-.43-11 3-15.21 6.65-13.06 12.54-20.59 29.9-24.1 47.45-2.07 11.84-1.79 24.67 3.92 35.53 4.59 8.53 12.34 15.74 21.86 18.27 10.45 2.67 22.24 1.27 31.15-5.07 11.32-7.78 19.54-19.1 26.6-30.68 4.55-8.09 8.83-16.54 10.72-25.68-3.51-1.43-7.45-3.71-8.1-7.79-1.19-6.62.84-13.57 4.45-19.12a13.54 13.54 0 0 1 12.21-6.24 5.44 5.44 0 0 1 5.05 3.79c2.17 6-1 12.15-.92 18.24 6.31-1 11.28-5.66 14.94-10.61a44.87 44.87 0 0 0 7.07-13.57 37.33 37.33 0 0 1 7.11-1.11c1 .9.48 2.54.25 3.7l-7 28.29c-1.44 6.28-3.22 12.58-3.11 19.08a10.68 10.68 0 0 0 3.58 8.16c2.32.41 4.87.72 7-.53 5.73-3.17 8.29-10.1 13.94-13.26-.88-12.92 3.83-25.75 11.79-35.82 6.06-8.22 15.41-14.42 25.77-15.15 5.27-.47 11.1.73 14.81 4.78 4.57 4.45 5 11.84 2.46 17.46a31.11 31.11 0 0 1-9.77 11.48 95.27 95.27 0 0 1-24.28 13.06c1.39 5.55 4.64 11 9.76 13.79 7.66 3.7 17.18 1.25 23.2-4.43A119.15 119.15 0 0 0 775 326.2c1.06-6.63 2-13.41 5-19.51 5.28-11.31 13.28-22.07 24.7-27.7 7.28-3.24 17.33-5.15 23.34 1.52 1.35-4.11 1.42-8.49 2.08-12.73l7.1-53.54zm-31.5 78.43a78.61 78.61 0 0 0-7.76 24.8c-.49 6-1.27 13.12 3 18.07 3.64 3.25 9.38 2.05 12.7-1.08 5.24-4.74 7.7-11.88 10.09-18.31 2.24-8.39 4.09-17.28 2.19-25.92-1-4-4.44-8.14-9-7.52-5.48.55-8.79 5.57-11.22 9.96zm-69.58 1.38c-7.45 8.09-8.46 19.86-7.44 30.33 7.86-2.78 15.67-8.13 19.22-15.94.12-.14 0 .1 0 0 1.23-5.2 1.87-11.26-1.33-15.89-2.96-2.85-8.07-1.46-10.44 1.5zM894.87 237c3.21-.37 5.71-2.58 8.41-4.15.44 6.6.38 14.24-4.53 19.32-6.35 5.63-16.32 5-23.26.8 2.75-6.08 5.21-12.38 6.22-19 4.16 1.67 8.54 3.86 13.16 3.03z" fill="#234044"/><path d="M137.63 302.08c.39-6.26-1.85-26.68-11.58-50.93-5-9.6-11.13-18.79-19.45-25.83-2.6-1.88-5.24-3.83-8-5.57a78.81 78.81 0 0 1-7-5c-2.78-2.47-5.42-4.65-8.29-7.45a4.08 4.08 0 0 0-3.26.05c-3.44 2.38-46.54 33.31-56.63 40.84 12.16 7.36 23.18 16.47 33.42 26.29 8.53 8.45 17.23 20.21 23.8 30.27a16 16 0 0 1 1.71 3.76 38.62 38.62 0 0 1-4.87-5.14c-9.71-11.11-21-20.76-32.84-29.49-4.73-3.38-9.35-6.95-14.41-9.81-2.91 4.52-9.31 15-9.48 15.81a240.81 240.81 0 0 1 49.33 30.62c5.68 5.11 24.71 24.4 29.17 30.6.35-.59 2.27-12.08 10.86-18.54.47 4.89 2.3 20 3.43 24.83.58-3.49 2.25-15.46 2.8-21.58.4-4.35.2-6.37.39-8.21l20.9-15.52z" fill="#4b911f"/><path d="M97.26 279a16.47 16.47 0 0 1-1.71-1.77 20.88 20.88 0 0 0-1.74-1.73L92 277.21l3 3c-.86 1.26-1.78 2.66-.56 3.49.8.54 1.67-.21 2-.54 3.61-4.51 5-7.8 5.14-9.62.06-.58.19-2.54 1.43-3.21a2.36 2.36 0 0 1 1.49-.2c.94.14 1.65.74 3.35 2.85s2.5 3.4 3.08 3.21c.15-.05.33-.34.7-.93s.5-.81.5-1-.1-.53-1.31-1.54c-1-.85-1.44-1-1.42-1.44 0-.17.22-.44.64-1a1.85 1.85 0 0 0 .49-1 1 1 0 0 0-.27-.86c-.38-.52-.72-.48-.72-.48a1.78 1.78 0 0 0-.92.45 3.58 3.58 0 0 1-.91.63c-.76.25-1.33-.67-2.47-1.07a4 4 0 0 0-2.63 0c-1.06.42-4.28 1.73-3.2 6.28.8 3.29-1.14 5.66-2.15 4.77z" fill="#a3e170"/><path d="M96.94 317.41C85.56 298 71.14 277.9 54 263.23c4.12-3.85 7.34-9.08 7.4-14.87.25-3.85-1.16-7.5-2.76-10.92 5.26-4.81 10-10.15 15.12-15.12 1.71 1.92 3.28 4.22 5.88 5 5.55 2.07 11.53.34 17-1.28a39.63 39.63 0 0 1 5.19 4.19c19.53 18.31 29.9 44.78 31.88 71.16-.33 3.83-6.7 18.79-7.87 18.71-.84 1.3-12.88 11.34-14.08 12.64-2.94-18.73-7.79-29.8-2.73-40.31 5.28-3 8.13-4.93 10.26-10.5a18 18 0 1 0-34.35-1.45c1.94 6.48 6.16 9.9 12 12.46 2.25 8.69 3.83 12.67 4.16 22.62-.2 1.44-1.52 2.59-4.16 1.85z" fill="#9de371"/><path d="M101.63 273.52c.8.24 3.62 1.38 4.37 3.75 5.15 21.59 5.26 37.05 7.59 70.09 1-6 5.51-54.66 6.32-59.4a6.73 6.73 0 0 1 1.86-4.23 2.72 2.72 0 0 1 3.27 1.11c1.88 2.51 5.19 16.38 6.58 19 1.75-.48 2-1.45 3-2.17a2.61 2.61 0 0 1 3 .43c7.38 23.87 9.24 39.73 9.91 40.85a11.41 11.41 0 0 0 3.36 1.44c6.5 2 13.47 2 19.78 4.64a18.85 18.85 0 0 1 9.8 9.37 22.08 22.08 0 0 1 1.21 6.45c9.26 9.92 17.81 21.56 18.6 35.26-5.73-1.39-25.94-7.56-40.81-16.11-4.58-1.57-37.48-2.26-57.68-6.43a17.87 17.87 0 0 1-8.24-4.14c-7.3-6.47-21.08-18.69-25.18-21.65-.87-.87-2-1.86-1.83-3.22.34-3.66.66-7.33.65-11 .54-9.06 1.5-18.11 2.92-27.08.29-1.56 1.89-4.3 4.17-4.42a3.77 3.77 0 0 1 3.94 2.48 25.89 25.89 0 0 1 .64 10.3c-1.12 6.7-2.09 12.12-1.29 19.6.81 5.18 2.09 5.1 5.93 9 4.57 4.1 8.14 7.24 12.79 10 1-5.64.37-11.39.5-17.07.41-15.82 0-31.66.09-47.48v-10.21a33.6 33.6 0 0 1 .4-3.69 8.21 8.21 0 0 1 2.18-4.73 2.27 2.27 0 0 1 2.17-.74zm29.87 34.26c0 3-.6 5.91-.76 8.89-.37 7.46 0 14.91-.16 22.37a20.7 20.7 0 0 0 .41 4.38 21.1 21.1 0 0 0 .35-2.42c.08-11.07-.25-22.15.15-33.22z" fill="#f2ca8d"/><path d="m268 359.53c5.77-22.49 57-59.63 68.43-91.26 6.09-16.87 14-65 16.4-70.52 17.21 6.32 33.8 20.61 28.56 48.51-8.18 43.45-125.86 101.11-84.2 152.22-14.99-5.42-33.32-22.86-29.19-38.95z" fill="#3b2317"/><path d="M352.82 197.74c.49 13.19 2.34 31.38 0 49.4-1.75 9.76-23.18 42.1-40.65 59.33a1.75 1.75 0 0 0-.28.36c-7.09 12-19.11 20.24-35.21 19.35-36.69-2-44.13-14.12-60.9-29.48-58.92-54-54.16-71.79-52.32-80.95C174.87 158.9 196.65 107.07 268 107.07c16.47 46.06 21.68 52.15 84.82 90.67z" fill="#f2ca8d"/><path d="m354 235.42c0 11 3.92 18.17-6.79 21.72-20.5 6.78-39.1-8.95-39.1-20s21.38-32.32 39.1-20c15.43 10.8 6.79 7.24 6.79 18.28z" fill="url(#C)" opacity=".7"/><ellipse cx="337.4" cy="233.77" fill="#f2bb9c" opacity=".65" rx="6.61" ry="4.06"/><path d="m304.17 222.77c-14.48 6.36-118.86-54.86-128.8 10-.79 5.18-25.06-91.46 13.55-113.36 149.78-85 157.56 35 154.87 46.62-2.57 11.14 9 19.64 9.82 48.32-23.85 10.26-63.49-4.61-73.66-10 3.56 10.07 19.22 14.75 24.22 18.42z" fill="#f2bb7b" opacity=".59"/><path d="m299.06 258a42 42 0 0 0 11.76-3.52c-1.44 3.7-4.56 6.4-7.69 8.7-2.78 2.12-7.19 2.17-9.55-.62-2.29-1.84-3.12-4.74-3.94-7.43 3.17.87 6.07 2.75 9.42 2.87z" fill="#eda469"/><path d="M295.94 239.21c4-.48 8.42-.49 11.94 1.83a5.11 5.11 0 0 1 2.88 6c-.6 1.21-2 1.7-3.16 2.07a14.73 14.73 0 0 1-13.47-2.71 4.92 4.92 0 0 1-1.46-4 5 5 0 0 1 3.27-3.19z" fill="#fcebd3"/><circle cx="164.46" cy="253.96" fill="url(#D)" r="15.59"/><circle cx="165.02" cy="252.55" fill="#fcc8c0" r="5.41"/><ellipse cx="215.79" cy="238.51" fill="url(#E)" opacity=".7" rx="47.71" ry="24.38"/><ellipse cx="213.77" cy="229.42" fill="#f2bb9c" rx="11.68" ry="7.19"/><path d="M238.27 218.78l-2 .46a48.19 48.19 0 0 1-16.63.92 30.92 30.92 0 0 1-9.53-2.91 24 24 0 0 1-8-6.44 68.84 68.84 0 0 1-8.18-.61c1.7-1.31 3.71-2.3 5-4.08-2.82-.29-8.29 1.56-8.48-2.06.14-2.06-.09-4.58 1.86-5.89a12.46 12.46 0 0 1 2.82-.82c3.1-1.8 6.43-3.15 9.64-4.75s6.58-3.54 10.17-4.61a27.49 27.49 0 0 1 17.68.68c5.63 2.12 10.21 6.3 13.72 11.09 3 4.14 6.08 13.4 6.08 13.4-.37-.66-3-.52-3-.52a33.31 33.31 0 0 1 4 5.73c-4.25-2.39-4.83-3-10.46-4.47-.12 0-11.69 1-13.45 2-1.48.79 1.79 3.27 1.69 3.24z" fill="#56380f"/><path d="m252.43 213.14c0 1.12.19 1.79 1 5.22-1.65-2-1.33-2.27-4-5.73.57-1.06 1.57-1.02 3 .51z" fill="#bc9a74"/><path d="M230.79 192.49c-2.68-.84-3.94-.93-12.76 0a16 16 0 0 0-6.35 2.48c-2.44 2.55-6.2 6-8.86 8.33 4.2 8.28 12.83 13.19 21.54 15.48a42.53 42.53 0 0 0 6.89.28c15.08-8 19.65-6.59 21.17-5.95-.48-1.11-8.36-18.02-21.63-20.62z" fill="#f1f7f3"/><circle cx="224.6" cy="204.03" fill="url(#F)" r="12.32"/><circle cx="225.28" cy="204.68" fill="#030403" r="6.89"/><circle cx="231.33" cy="203.8" fill="#f1f7f3" r="3.38"/><path d="M216.8 191.13c6.87-2.13 14.34-.29 20.46 3.14 4.14 2 7 5.69 9.87 9.18a11.73 11.73 0 0 1 2.08 5.3c-4.25-6.5-10.14-12.37-17.72-14.7a31.45 31.45 0 0 0-9.31-1 21.17 21.17 0 0 0-3.58.33 45 45 0 0 0-8 2.72c-3.83.55-7.18 2.84-11.07 3.1-2.55.23-7.55-.72-9.58-2.36 1 0 4.24.55 5.23.5 1.88-.08 3.83.09 5.63-.57l15.99-5.64z" fill="#050300"/><path d="m306.68 221.65c2.6-11.49 13.84-39.39 38.39-21-28.67-4.85-35.55 14.18-38.39 21z" fill="#56380f"/><path d="m343.43 207.05c3.09-.1 7.76-1.1 8.89-2.23s.11-1.79-.47-2.24c-24.05-8.86-40 4.31-45.16 19.07 5.73 1.74 16.21 11.34 29.75 5.74 6.74-2.79 10.18-10 11.47-16.84l-1.23-1.48c-.55 4.36-3.63-2.07-3.25-2.02z" fill="#050304"/><path d="M343.43 207.05c-.38 0-18-12.77-36.75 14.6 32 20 39.45-8.23 40-12.58a25 25 0 0 1-3.25-2.02z" fill="#f1f7f3"/><circle cx="329.94" cy="215.74" fill="url(#G)" r="12.2"/><circle cx="331.15" cy="215.74" fill="#050605" r="7.03"/><circle cx="332.97" cy="215.15" fill="#fcfdfd" r="3.46"/><path d="M248.75 175c-2.55-4.16-7-6.5-11.34-8.43-9.75-4.17-20.79-6.21-31.26-3.81A28.36 28.36 0 0 0 189 175.87c-2.68 4.83-4 8-4.29 11 5.39-8.83 11.43-13.4 15.15-15.33 6.81-4 15.25-4.19 22.75-2.21 4.61 1 8.48 3.93 11.86 7.1 2.09 1.8 3.73 4 5.72 5.94 2.11 2.08 4.82 4.83 8.07 3.81 2.05-.74 2.37-3 2.66-4.85a1.89 1.89 0 0 0 0-.64 15.25 15.25 0 0 0-2.17-5.69z" fill="url(#H)" opacity=".73"/><path d="m309.56 283.62s-40.55 14.73-57.43-7.51c.19 5.55 6.41 42.63 35.37 42.52 20.27-2.63 21.85-31.78 22.06-35.01z" fill="#da775d"/><path d="m282.47 310.24c2.08-1.6 5.76.35 4.79 3.12-.65 2.4-4.16 2.3-5.15 1.51s-.69-3.58.36-4.63z" fill="#f5dbc6"/><path d="M270.17 303.1l5.74 2.4a24.41 24.41 0 0 1 6.3 3.62l-1.42 2.13a5.94 5.94 0 0 1-5.28.88c-2.39-1.94-5.82-3.87-5.7-7.4l.36-1.63z" fill="#ffd4c9"/><path d="m256.59 276.8c7.88 1.49 15.91 1 23.88.93l-1.07 1.15c-4.06.14-8.05 1-12.11 1s-8.11.36-11.78-1.42z" fill="#f6c69b"/><path d="M269.67 279.1c2.26-.88 20.85-5.9 30.81-5.07 8.48.7 8.65 8 9.22 8.79-.08.28-.05.53-.14.81a64.16 64.16 0 0 1-3.42 5.82s-32.54-10.17-36.47-10.35z" fill="#e39f8c"/><path d="M268.85 274.13c13.59-6.48 29.53-6.19 43.78-2.17 2.35.81 5.22 1.58 6.35 4a3.28 3.28 0 0 1-1.06 2.62c-2 2.09-5.77 2.72-8.23 4.19-14.2-14.29-26.45-4.48-40-3.12a24.88 24.88 0 0 1-15-3.56 32.25 32.25 0 0 0 14.16-1.96z" fill="#f78368"/><path d="m252.12 276.11c11.53 10.49 50.63-8.86 55.61 5.77.22 2.32.11 16.57-22.28 17.92-24.93 1.88-33.33-23.69-33.33-23.69z" fill="#fefefe"/><path d="m252.12 276.11c14.07 26.23 43.2 20.48 53.55 14.15-4.47 12.46-39.94 27.02-53.55-14.15z" fill="#050203"/><path d="M115.6 124.07c12.47-61.36 76.63-80.32 92.56-84C287.74 21.39 341.88 75.1 341.88 75.1S172.6 162.78 115.6 124.07z" fill="url(#I)"/><path d="M186.32 169.89c-30.53 53.17 3.6 81.1 3.6 81.1S83.2 222.77 117.24 118.75c11.12-34 54.21-58.58 70.4-60.93 44.54-6.46 88.93 26.9 88.93 26.9s-64.29 39.96-90.25 85.17z" fill="url(#J)"/><path d="m176.33 167.52c-25.47 55.78 26.5 87.2 26.5 87.2s-98.36-36.54-60.6-117.59c32.34-69.43 134.34-52.41 134.34-52.41s-72.48 22.01-100.24 82.8z" fill="url(#K)"/><path d="m121.86 180.84c5.31-5.59 8.9-6.87 8.9-20.14.17-7.11 10.86-42.28 37.78-61.08 15.7-11 31.28-15.75 43.74-18.79s8.33 4.4 8.33 4.4-49.37 6.26-70.86 44.36c-11.36 20.14-9.33 27.07-13.55 36.23-5.87 12.76-12.76 14.57-14.34 15.02z" fill="#281d16"/><path d="m306.68 194.52c-121.71-37.5-119-136.7-119-136.7s37.6 97.34 119 136.7z" fill="#b47952"/><path d="m330.5 379.42c1.41-.91 7.9-6.39 11.34-3.3 5.26 4.7 9 16.49-1.74 26.14-8.13 7.29-29.08-.4-36.39-3.9-14.65-7-22.12-19.43-19.25-43.06 5.22-42.9 153.46-99.9 67.89-157.51-10.94-1.43-31.4-3.63-53.82-12.87-26.53-10.92-35.59-19.43-60.17-41.84-23.77-21.67-36-67.35-50.72-85.25 104.7.83 202.56 101 211.69 173.75 5.25 41.87-40.47 72.92-89.63 117.17-11.69 10.53-14.08 54.51 26.55 46.17 5.76-2.37 5.82-8.82 2.79-13.46-2.53-3.9-4.99-.68-8.54-2.04z" fill="#8c6239"/><path d="M398.2 262.73c12.64-72.52-52.23-80.19-113.27-110.52-43.27-21.5-77.35-33.12-97.28-94.39 85.81-17.77 140.93-1.67 175.78 35.86C404 137.37 417.16 211.9 398.2 262.73z" fill="url(#L)"/><path d="m408.13 218.61c-23.25-80.39-133.2-54.53-220.49-160.78 217.1 1.72 221.62 129.01 220.49 160.78z" fill="url(#M)"/><path d="m337.52 377.22c.68 4.57.31 11-7.95 12.21-6.57 1-9.28-8-1.71-15.4-1.23-4.35-11.47-3.67-11.47-3.67s4.34 4.16 3.73 8c-8.63-.84-11.51-.9-17.84-6.38 1.35-5.76 6.08-7.73 15.87-7.73s18.3 5.75 19.37 12.97z" fill="#603813"/></svg>