<svg xmlns="http://www.w3.org/2000/svg" xmlns:xlink="http://www.w3.org/1999/xlink" width="106" height="42" xmlns:v="https://vecta.io/nano"><defs><path id="A" d="M0 .293h102.872v36.329H0z"/><path id="B" d="M96.55 28.224c-.303.38-1.022 1.074-2.123.54s-2.806-3.825.715-6.378c2.27-1.648 10.016-1.552 9.689 4.178-.062 1.068-.823 2.38-2.055 2.313s-1.814-.834-1.814-.834l-4.412.18z"/></defs><g fill="none" fill-rule="evenodd"><g transform="translate(0 .239)"><mask id="C" fill="#fff"><use xlink:href="#A"/></mask><path fill="#fff200" d="M102.872 36.622H0l.133-1.125C3.128 13.771 29.502.51 50.695.295c22.231-.224 49.406 13.797 52.124 35.877l.053.45" mask="url(#C)"/></g><path fill="#ffcf00" d="M71.498 27.156c-.148.046-.273.139-.548.477l-.438.596-1.204 2.028c-.475.941-.761 1.68-.986 2.267-.302.784-.495 1.293-.657 2.028-.11.498-.219 1.428-.22 1.431v.597h6.243c1.243-.003 1.343-.01 1.424-.12.31-.42-.538-1.172-.548-2.744a7.625 7.625 0 0 1 .11-1.192l.329-1.67c.139-.571.21-.75.11-.955-.116-.232-.312-.208-.768-.477a3.97 3.97 0 0 1-.876-.716c-.305-.317-.261-.37-.766-.954-.3-.345-.487-.526-.767-.596a.787.787 0 0 0-.438 0"/><path fill="red" d="M75.543 30.454c-.108.06-.282.207-.45 2.29-.041.514-.105 1.438.113 2.53.069.347.122.482.225.602.266.309.638.253 2.024.24h1.462 6.074 1.799 2.137l2.136.121H94.1c.42.05.602.129.787 0 .135-.093.187-.236.338-.843l.224-.964.226-1.686c.01-.349-.013-.327-.113-1.687-.087-1.18-.08-1.356-.225-1.446-.288-.18-.64.317-1.687.843-.333.168-.897.353-2.024.723l-1.574.482c-.553.14-1.034.23-1.913.361l-2.812.362c-1.693.103-2.973-.075-4.16-.24-1.36-.19-2.041-.285-2.7-.603l-1.574-.723c-1.002-.43-1.186-.45-1.35-.362"/><path fill="#000" d="M67.867 36.355c.19-3.622 1.89-6.883 4.713-9.15.423-.339-.177-.932-.597-.596-3.003 2.41-4.758 5.906-4.959 9.746-.029.543.815.541.843 0m7.435-6.52a9.16 9.16 0 00-.562 6.284c.139.525.953.302.814-.224-.502-1.897-.354-3.853.476-5.634.228-.49-.498-.918-.728-.426"/><path fill="#ffcf00" d="M99.81 23.775l-.007-.01-.006-.008c.583-1.624.817-3.413.684-5.308-.305-4.32-1.955-6.916-3.398-8.698l-.112-1.392c-.268-3.013-.513-3.918-.605-4.237-.397-1.378-.595-2.067-1.097-2.277-.303-.128-.914-.21-4.351 2.277a63.544 63.544 0 0 0-1.875 1.41l-.296-.033c-1.622-.187-2.795-.321-5.36-.017-.103.01-2.494.246-5.002 1.415a84.68 84.68 0 0 1-3.205-1.564c-2.014-1.036-2.476-1.428-3.027-1.21-1.142.451-1.186 2.907-1.21 4.236a13.513 13.513 0 0 0 .605 4.238c-.28.682-.628 1.658-.886 2.864-.386 1.798-1.65 6.662 1.287 10.834.964 1.37 2.923 3.732 6.136 5.087 1.55.654 2.818.831 3.914.985 1.075.15 4.534.545 8.86-.766 1.763-.535 3.558-1.08 5.46-2.627 3.041-2.477 3.492-5.195 3.49-5.2"/><path stroke="#fff" stroke-width=".583" d="M99.81 23.775h0l-.007-.01-.006-.008c.583-1.624.817-3.413.684-5.308-.305-4.32-1.955-6.916-3.398-8.698l-.112-1.392c-.268-3.013-.513-3.918-.605-4.237-.397-1.378-.595-2.067-1.097-2.277-.303-.128-.914-.21-4.351 2.277a63.544 63.544 0 0 0-1.875 1.41l-.296-.033c-1.622-.187-2.795-.321-5.36-.017-.103.01-2.494.246-5.002 1.415a84.68 84.68 0 0 1-3.205-1.564c-2.014-1.036-2.476-1.428-3.027-1.21-1.142.451-1.186 2.907-1.21 4.236a13.513 13.513 0 0 0 .605 4.238c-.28.682-.628 1.658-.886 2.864-.386 1.798-1.65 6.662 1.287 10.834.964 1.37 2.923 3.732 6.136 5.087 1.55.654 2.818.831 3.914.985 1.075.15 4.534.545 8.86-.766 1.763-.535 3.558-1.08 5.46-2.627 3.041-2.477 3.492-5.195 3.49-5.2z"/><g fill="#000"><path d="M88.915 19.73a.366.366 0 00.255-.104l.014-.012c.164-.154 1.633-1.458 4.5-1.96a.402.402 0 00.322-.37.418.418 0 00-.255-.428c-.044-.017-.285-.1-.706-.1-.919 0-2.424.387-4.373 2.237l-.02.018a.435.435 0 00-.025.583c.077.09.182.136.288.136"/><path d="M88.915 19.73c-.292.012-.485-.343-.358-.6.058-.132.181-.207.274-.305l.301-.276a10.24 10.24 0 0 1 1.288-1.016c.906-.598 2.005-1.062 3.165-.878.072.017.14.034.22.064a.531.531 0 0 1 .221.167c.115.145.15.34.1.512a.536.536 0 0 1-.366.375l-.411.078c-.53.096-1.057.218-1.571.386s-1.018.373-1.496.631c-.238.131-.47.274-.691.431l-.324.248c-.098.089-.208.194-.352.183m0 0c.144.006.248-.099.345-.19l.318-.258c.218-.163.447-.313.682-.451a10.04 10.04 0 0 1 1.466-.735c.51-.203 1.035-.37 1.57-.496l.39-.083a.266.266 0 0 0 .172-.192.298.298 0 0 0-.057-.259.24.24 0 0 0-.102-.072 1.295 1.295 0 0 0-.174-.045c-.499-.101-1.04-.04-1.548.099a6.285 6.285 0 0 0-1.479.614c-.47.265-.917.576-1.337.92l-.308.268c-.096.094-.22.168-.277.29-.127.24.047.593.339.59m.7 4.231a.382.382 0 0 0-.42.367c-.08.816-.457 1.183-1.187 1.196-.24.005-.42-.04-.557-.08-.633-.18-1.106-.63-1.106-.63-.221-.206-.534-.496-.663-.98a1.694 1.694 0 0 1-.058-.402c.855-.663 1.15-1.08 1.054-1.32-.235-.575-2.855-.318-2.982.317-.062.309.47.697 1.152 1.063.03.089.062.217.058.372-.003.105-.03.464-.55.992-.454.459-.884.834-1.418.844-.55.01-1.104-.377-1.17-.643-.052-.218-.252-.353-.455-.308-.215.057-.341.271-.3.5.094.459.566 1.272 1.688 1.29.102 0 .202.002.315-.02.349-.031.62-.172.859-.324.304.622.917 1.002 1.569.974.636-.028 1.208-.438 1.476-1.06.109.055.254.118.43.166.185.05.397.081.657.079 1.145-.007 1.84-.705 1.95-1.942.025-.228-.129-.435-.342-.45m7.958 3.015c-2.583 3.102-6.84 4.87-12.31 5.122-5.11.228-9.536-1.563-12.12-4.906-2.279-2.97-2.953-6.973-1.931-11.566.18-.817.45-1.599.809-2.32v-.024c.011-.013.011-.024.022-.037 0-.012.012-.023.012-.036v-.048c0-.012.01-.024.01-.036v-.036c0-.024-.01-.036-.01-.048v-.024l-.034-.168c-.221-1.062-.386-2.244-.517-3.86a15.76 15.76 0 0 1-.053-1.385c.003-.478.004-1.017.097-1.667.156-1.084.234-1.626.606-1.816s.856.065 1.815.605c.87.49 1.467.948 1.817 1.21.488.37.587.438 1.083.792a43.01 43.01 0 0 0 1.374.939 11.956 11.956 0 0 1 1.629-.938c3.787-1.805 7.548-1.15 9.603-.577.232-.271.57-.642 1.016-1.051 0 0 .206-.19.427-.375 1.866-1.56 3.394-2.84 4.238-2.42.65.323.856 1.639 1.06 2.945.06.389.092.677.15 1.291l.275 3.024c-.004.018-.009.038-.01.06l-.001.06v.085c.011.012.011.024.011.036s.012.024.012.036c0 .024.01.036.01.048.012.012.012.024.023.036 0 .012.011.024.023.036l.022.024c1.494 1.84 3.078 4.305 3.37 8.585.224 3.234-.652 6.132-2.528 8.404m2.606-3.018c.596-1.66.832-3.499.697-5.447-.315-4.448-2-7.105-3.471-8.945a89.933 89.933 0 0 1-.434-3.63c-.252-1.639-.297-2.82-.904-3.926-.164-.299-.299-.467-.504-.571-.46-.235-1.004-.015-1.283.102-1.514.635-4.786 3.448-5.074 3.697l-.292-.036-.41-.047c-1.856-.2-4.582-.492-7.51.372-.627.185-1.565.513-2.66 1.106-.31-.2-4.044-2.608-5.575-3.117-.72-.24-1.06-.094-1.21 0-.286.178-.395.489-.446.654-.609 1.96-.374 4.88-.374 4.88.138 1.718.378 3.097.495 3.756l.044.247c-.348.745-.618 1.55-.808 2.38-.955 4.293-.495 8.116 1.314 11.134.988 1.407 2.988 3.835 6.256 5.23 1.583.673 2.875.854 3.999 1.01 1.09.156 4.615.565 9.03-.782 2.023-.616 3.773-1.155 5.57-2.705 2.178-1.877 3.135-4.13 3.55-5.362"/></g><path fill="red" d="M74.075 10.401c-.442.302-.531.267-.585.256-.14-.028-.337-.168-.68-1.514-.061-.24-.297-1.107-.333-2.324-.02-.624.028-.842.17-.94.185-.124.447-.018.71.106 0 0 1.677.79 2.77 2.302.05.068.141.201.125.361-.019.196-.202.307-.306.41-.274.269-.526.463-.97.77l-.901.573"/><path stroke="#000" stroke-width=".583" d="M74.075 10.401c-.442.302-.531.267-.585.256-.14-.028-.337-.168-.68-1.514-.061-.24-.297-1.107-.333-2.324-.02-.624.028-.842.17-.94.185-.124.447-.018.71.106 0 0 1.677.79 2.77 2.302.05.068.141.201.125.361-.019.196-.202.307-.306.41-.274.269-.526.463-.97.77l-.901.573z"/><g fill="#000"><path d="M80.64 20.446a.367.367 0 01-.272-.053l-.015-.01c-.19-.117-1.886-1.111-4.795-1.044a.402.402 0 01-.388-.301.417.417 0 01.166-.47c.04-.025.26-.154.673-.236.901-.179 2.453-.091 4.725 1.343l.023.014a.436.436 0 01.137.568.371.371 0 01-.254.189"/><path d="M80.64 20.446c.286-.055.387-.435.216-.645-.078-.109-.215-.157-.327-.231l-.354-.202a9.425 9.425 0 0 0-1.492-.642 6.314 6.314 0 0 0-1.57-.315c-.524-.036-1.068.008-1.537.206a1.11 1.11 0 0 0-.162.077.236.236 0 0 0-.086.091.297.297 0 0 0-.005.265c.039.084.12.145.206.154l.398.006a10.96 10.96 0 0 1 1.637.181c.54.1 1.068.248 1.58.434a7.15 7.15 0 0 1 .757.31l.362.19c.114.072.236.154.377.12m0 0c-.14.039-.269-.043-.382-.11a5.143 5.143 0 0 0-.365-.18 7.236 7.236 0 0 0-.763-.288 9.089 9.089 0 0 0-1.59-.329 11.95 11.95 0 0 0-1.615-.071l-.42.003a.538.538 0 0 1-.432-.297.584.584 0 0 1-.002-.522.552.552 0 0 1 .186-.207c.071-.044.135-.074.203-.104 1.102-.408 2.27-.166 3.275.244.51.205.994.465 1.461.745l.35.213c.11.077.245.127.328.246.174.226.054.612-.234.658"/></g><path fill="#ffcf00" d="M103.21 36.355c-.064-.29-.38-1.767-.431-3.142a12.1 12.1 0 0 1 .048-1.714l.059-.46c.257-1.776.767-1.677.825-2.9.068-1.425-.579-2.702-.898-3.358a7.541 7.541 0 0 0-.505-.876c-.812-1.237-2.15-2.165-3.561-2.089-1.256.069-2.39.919-3.123 2.01a8.37 8.37 0 0 0-.66 1.17c-.24.525-.685 1.476-.738 2.543-.01.183-.056.42.038.689.134.384.42.546.623.733.385.353.481.961.675 2.179.17 1.07.125 1.869.113 2.065a8.582 8.582 0 0 1-.226 1.492 7.833 7.833 0 0 1-.562 1.545"/><path fill="#000" d="M103.616 36.243c-.388-1.855-.69-3.966-.177-5.838.343-1.245.81-1.84.642-3.211-.294-2.377-2.065-5.394-4.637-5.757-2.913-.412-5.024 2.687-5.52 5.216-.335 1.701.287 1.781.966 3.185.853 1.764.362 4.498-.367 6.191-.212.493.514.924.729.426.77-1.79.991-3.496.717-5.427-.126-.885-.494-1.55-.75-2.324-.714-2.15-.07-4.553 2.046-5.776 2.438-1.409 4.426.328 5.407 2.53.805 1.81.44 2.98-.046 4.723-.565 2.02-.244 4.273.177 6.286.112.53.924.306.813-.224"/><use xlink:href="#B" fill="#ffcf00"/><use xlink:href="#B" stroke="#000" stroke-width=".843"/><path fill="#ffcf00" d="M96.515 25.98c-.748 3.635 2.644 4.171 3.542 3.435 1.427-1.17.96-3.599.96-3.599"/><path fill="#000" d="M96.515 25.98c-.042.858.072 1.712.497 2.348.424.627 1.155 1 1.906 1.027.365.021.757-.031.975-.225.293-.224.51-.542.68-.894.324-.717.434-1.564.444-2.42.265.818.325 1.732.047 2.612-.137.44-.397.858-.753 1.186-.079.085-.225.167-.338.229-.12.042-.245.106-.366.122a2.482 2.482 0 01-.724.063 3.07 3.07 0 01-1.355-.406 2.672 2.672 0 01-.969-1.028c-.43-.857-.355-1.819-.044-2.613"/><path fill="#fff200" d="M83.303 33.824a2.643 2.643 0 105.287 0 2.643 2.643 0 00-5.287 0"/><g stroke="#000"><path stroke-width=".787" d="M83.303 33.824a2.643 2.643 0 105.287 0 2.643 2.643 0 00-5.287 0z"/><path stroke-linejoin="round" stroke-width=".9" d="M67.502 36.41h35.54-35.54z"/></g><path fill="red" d="M8.631 36.822H5.223V23.153H.087v-3.42h13.668v3.42H8.631zm11.333-9.832a1.91 1.91 0 0 0-.447-.107 4.243 4.243 0 0 0-.459-.024 3.23 3.23 0 0 0-1.257.245 3.007 3.007 0 0 0-1.025.696c-.29.302-.518.666-.685 1.09s-.25.905-.25 1.436a5.17 5.17 0 0 0 .178 1.311c.04.144.092.271.155.382l3.79-5.029zm-1.668 6.71c.127.039.254.064.38.077l.382.018a3.291 3.291 0 0 0 1.746-.507 3.107 3.107 0 0 0 1.186-1.376l2.383 2.395c-.302.429-.65.814-1.043 1.156a6.578 6.578 0 0 1-1.275.87 6.385 6.385 0 0 1-1.441.542 6.56 6.56 0 0 1-1.556.185 6.452 6.452 0 0 1-4.606-1.895 6.566 6.566 0 0 1-1.4-2.127c-.341-.823-.512-1.726-.512-2.712 0-1.008.17-1.93.512-2.764a6.385 6.385 0 0 1 1.4-2.133 6.335 6.335 0 0 1 2.074-1.37 6.572 6.572 0 0 1 2.532-.49 6.56 6.56 0 0 1 5.339 2.777L18.296 33.7zm10.986 3.122H26.03l.12-13.33 1.74 1.806a5.707 5.707 0 0 1 3.861-1.49c.778 0 1.513.15 2.204.447a5.696 5.696 0 0 1 1.811 1.228 5.8 5.8 0 0 1 1.222 1.823c.297.695.447 1.436.447 2.222v7.294H34.18v-7.294a2.452 2.452 0 0 0-1.489-2.252 2.35 2.35 0 0 0-.942-.19 2.461 2.461 0 0 0-1.751.714 2.452 2.452 0 0 0-.715 1.728v7.294zm19.544-6.496c0-.444-.085-.875-.256-1.292a3.731 3.731 0 0 0-.698-1.108 3.47 3.47 0 0 0-1.03-.775 2.797 2.797 0 0 0-1.258-.292c-.445 0-.864.076-1.257.226a2.88 2.88 0 0 0-1.025.668c-.29.294-.518.657-.685 1.09s-.25.928-.25 1.483c0 .533.083 1.012.25 1.436s.395.79.685 1.09a2.97 2.97 0 0 0 1.025.698c.393.163.812.244 1.257.244a2.81 2.81 0 0 0 1.258-.291 3.487 3.487 0 0 0 1.03-.775c.294-.322.526-.691.698-1.108a3.4 3.4 0 0 0 .256-1.294m3.277 4.886c-.012.406-.047 1.455-.513 2.527a6.537 6.537 0 0 1-1.4 2.061 6.646 6.646 0 0 1-2.074 1.394 6.304 6.304 0 0 1-2.532.513l-1.632-.024V38.43l1.608.024c.509 0 .942-.066 1.3-.197s.659-.31.905-.536.443-.487.59-.78a4.97 4.97 0 0 0 .352-.93 1.45 1.45 0 0 1-.549.507c-.238.13-.502.238-.792.321s-.592.141-.906.173a8.676 8.676 0 0 1-.876.048 6.873 6.873 0 0 1-2.532-.465 6.162 6.162 0 0 1-2.073-1.329 6.15 6.15 0 0 1-1.4-2.115c-.342-.834-.513-1.776-.513-2.825 0-.96.17-1.854.512-2.68a6.68 6.68 0 0 1 1.4-2.145 6.467 6.467 0 0 1 2.074-1.419 6.32 6.32 0 0 1 2.532-.512 4.97 4.97 0 0 1 1.228.155c.405.103.798.246 1.18.43a7.3 7.3 0 0 1 1.09.643c.345.246.669.512.971.798l2.154-2.014-.104 11.63m11.535-4.886a3.8 3.8 0 0 0-.256-1.423 3.39 3.39 0 0 0-.697-1.097 3.024 3.024 0 0 0-1.031-.702 3.234 3.234 0 0 0-1.257-.245 3.24 3.24 0 0 0-1.258.245 2.953 2.953 0 0 0-1.025.702 3.35 3.35 0 0 0-.685 1.097c-.167.425-.25.9-.25 1.423 0 .493.083.95.25 1.371s.395.787.685 1.097.632.554 1.025.732.813.268 1.258.268.863-.083 1.257-.25.736-.4 1.03-.703.527-.667.698-1.096.256-.902.256-1.419m3.277 0c0 .954-.17 1.842-.512 2.664a6.646 6.646 0 0 1-1.395 2.133 6.485 6.485 0 0 1-2.068 1.418 6.27 6.27 0 0 1-2.543.519 6.226 6.226 0 0 1-2.532-.52 6.559 6.559 0 0 1-2.074-1.417 6.593 6.593 0 0 1-1.4-2.133 6.865 6.865 0 0 1-.512-2.664c0-.968.17-1.866.512-2.692a6.592 6.592 0 0 1 1.4-2.14 6.512 6.512 0 0 1 2.074-1.412 6.32 6.32 0 0 1 2.532-.512c.905 0 1.753.16 2.543.483s1.48.778 2.068 1.37a6.486 6.486 0 0 1 1.395 2.133c.341.83.512 1.754.512 2.77M94.039 8.544c.476.243.56.197.612.18.135-.046.313-.21.485-1.588.03-.245.154-1.135.037-2.347-.06-.622-.134-.832-.288-.91-.199-.1-.445.037-.69.193 0 0-1.564.994-2.46 2.633-.039.073-.113.217-.077.374.044.192.239.28.356.368.305.232.58.392 1.058.641.758.395.39.16.967.456"/><path stroke="#000" stroke-width=".583" d="M94.039 8.544c.476.243.56.197.612.18.135-.046.313-.21.485-1.588.03-.245.154-1.135.037-2.347-.06-.622-.134-.832-.288-.91-.199-.1-.445.037-.69.193 0 0-1.564.994-2.46 2.633-.039.073-.113.217-.077.374.044.192.239.28.356.368.305.232.58.392 1.058.641.758.395.39.16.967.456z"/></g></svg>