<svg xmlns="http://www.w3.org/2000/svg" width="900" height="148" viewBox="0 0 11107535 1826569" shape-rendering="geometricPrecision" image-rendering="optimizeQuality" fill-rule="evenodd" xmlns:v="https://vecta.io/nano"><path d="M9357134 1406952c-48547 92775-201195 23632-143750-78575 48526-86338 195069-19497 143750 78575zm883842-388568c22614-122679 7154-133969 79551-151559 93254-22659 374570-40631 426935 73450 32924 71721-67600 395375-81447 495935l-175583-424-15337-54222c-80468 108871-391881 115459-347147-115476 40218-207629 340244-165543 436805-204704 11880-156632-241977-59110-323777-43000zm-553929 293201c141309 76580 197263-3285 227871-134841 23048-99079 48681-244397 80055-334989l147553 200c-3642 78309-61131 305532-85750 390509-39165 135190-108070 207447-269275 216746-155767 8984-290293-37325-264926-209364 13165-89287 64858-313771 94108-398028l147932 137c-11132 137925-112269 352128-77568 469630zm-1047855 465617h1147781c222721 0 403667 24465 598933-7501 263862-43195 721629-270509 721629-572557 0-367952-216980-551906-553757-655730-265510-81845-758944-89524-1024468-20151-218617 57116-415156 171417-529779 369764-18986 32851-31041 64844-47669 100433-148271 317371-55724 300016-209627 604922-30999 61418-89689 123516-103043 180820z" fill="#ffd200"/><path d="M629428 1481000H506010L678795 394935c403870 0 674383 58508 628490 554366-14371 155299-102801 326960-203280 401536-138783 103001-241962 130163-474577 130163zM0 1801884l996344-28016c839821-137810 1085873-1369473 329224-1630775-275163-95021-680190-69042-1041708-69042l-70560 423108-70483 435528L0 1801884zm4912000-814548c37325-160225 146340-259178 333226-259178 153557 0 222151 80995 222151 234493 0 47201-499587 24685-555377 24685zm382593 839233h-120053c-188086-1505-337053-17822-511341-158476-166544-134400-183161-303538-183161-507977 0-102742 31276-190108 59715-261168 172536-431134 746667-525945 1088251-368442 122848 56644 246647 204033 246647 382778 0 61247 9470 320884-61709 320884h-925627c0 302296 293271 296202 468987 296202 194548 0 339505-146042 431959-148103 0 113220-49367 232349-49367 345569-118523 27613-205760 98733-444301 98733zm2641123-283860c-252059 0-246832-176325-246832-345565 0-217162 107056-444302 345565-444302 296356 0 249767 489897 115169 670542-42748 57371-120105 119325-213902 119325zm38896 283860h-159788c-85271-6196-167708-22251-238796-47586-68219-24314-109963-60852-159025-100153-153207-122719-160081-319184-160081-494029 0-204438 104949-374591 200988-490148 89690-107916 309175-209819 454787-224005 985603-96032 854321 841615 569325 1124698-75504 75000-117901 111989-221049 161544-81549 39179-182143 62034-286361 69679zM3381627 641767c13364-27854 24685-92537 24685-135757h-419620c0 54335-15103 115463-22967 162156l-77501 477873-96998 655845h407274l100472-603005c51574-310080 10551-302650 154788-363564 113542-47950 307380-78418 330809 109109 8343 66795-21481 215794-31353 289079l-45123 275761c-13791 94675-40606 201653-40606 292620h419616c0-72680 19434-151707 31615-227560l104145-796797c0-141025-112058-251943-232390-285962-328570-92894-527379 128984-606846 150202zm2678151 1160117h419616c10929-131332 45830-288352 68772-424893l66989-439022c164503-13689 53333-37027 394934-37027 68517 0 73188 12342 135757 12342 1214-54512 61709-327698 61709-407274-291969 0-323675 38235-543034 185124 0-63924 19826-126759 24685-185124h-419620l-156940 966153-26105 159018c-8512 62174-25549 116235-26763 170703zm-4097446 0h419617c0-94546 195139-1119594 209808-1295874h-419616c-22989 98677-35079 208539-54695 315552-20501 111835-38392 229998-52791 329805l-102323 650517z" fill="#ff3f00"/><path d="M10537500 1181156c-12616 88937-9621 105408-54968 131699-178619 103564-296153-133791 54968-131699zm-296524-162772c81800-16110 335657-113632 323777 43000-96561 39161-396587-2925-436805 204704-44734 230935 266679 224347 347147 115476l15337 54222 175583 424c13847-100560 114371-424214 81447-495935-52365-114081-333681-96109-426935-73450-72397 17590-56937 28880-79551 151559zm-553929 293201c-34701-117502 66436-331705 77568-469630l-147932-137c-29250 84257-80943 308741-94108 398028-25367 172039 109159 218348 264926 209364 161205-9299 230110-81556 269275-216746 24619-84977 82108-312200 85750-390509l-147553-200c-31374 90592-57007 235910-80055 334989-30608 131556-86562 211421-227871 134841z" fill="#fefefe"/><path d="M2184483 320884h444301c17430-74814 49367-237376 49367-320884h-444302c0 49814-36334 293722-49366 320884z" fill="#ff3f00"/><path d="M10537500 1181156c-351121-2092-233587 235263-54968 131699 45347-26291 42352-42762 54968-131699z" fill="#ffd100"/><path d="M9357134 1406952c51319-98072-95224-164913-143750-78575-57445 102207 95203 171350 143750 78575z" fill="#fefefe"/></svg>