<svg xmlns="http://www.w3.org/2000/svg" fill="#e60000" viewBox="0 0 228 56" width="800" height="196" xmlns:v="https://vecta.io/nano"><path d="M148.452 44.78a5.145 5.145 0 0 0-5.047 6.151 5.147 5.147 0 0 0 10.194-1.004 5.157 5.157 0 0 0-5.147-5.146zM207.705.006a20.13 20.13 0 0 0-10.012 2.663 20.408 20.408 0 0 0-10.283 16.63v15.91a9.227 9.227 0 0 1-9.482 8.623 9.234 9.234 0 0 1-8.961-9.164V5.553a5.555 5.555 0 0 0-9.396-3.776 5.556 5.556 0 0 0-1.707 3.776v29.115a20.395 20.395 0 0 0 20.295 20.405 20.1 20.1 0 0 0 10.012-2.663 20.393 20.393 0 0 0 10.283-16.63v-.861a1.901 1.901 0 0 1 1.902-1.903h14.638a1.901 1.901 0 0 1 1.902 1.903v14.608a5.56 5.56 0 0 0 5.552 5.32 5.556 5.556 0 0 0 5.552-5.32V20.41A20.392 20.392 0 0 0 207.705.006zm9.251 20.805a1.91 1.91 0 0 1-1.912 1.913h-14.648a1.922 1.922 0 0 1-1.912-1.913v-.4a9.234 9.234 0 0 1 2.595-6.73 9.252 9.252 0 0 1 6.641-2.816 9.244 9.244 0 0 1 8.623 5.917 9.251 9.251 0 0 1 .613 3.629v.4zM130.28 10.308h15.339a5.146 5.146 0 1 0 0-10.292h-22.398a5.146 5.146 0 0 0-5.146 5.146v27.734a1.9 1.9 0 0 1-2.287 1.876 1.903 1.903 0 0 1-.977-.534l-12.015-12.015a1.926 1.926 0 0 1-.57-1.362 1.903 1.903 0 0 1 .55-1.341l10.793-10.734a5.136 5.136 0 0 0 1.508-3.639A5.14 5.14 0 0 0 109.93 0a5.15 5.15 0 0 0-3.639 1.508L94.116 13.693a1.923 1.923 0 0 1-3.264-1.372V5.152a5.147 5.147 0 1 0-10.293 0v44.775a5.147 5.147 0 1 0 10.293 0V29.502a1.922 1.922 0 0 1 3.324-1.322l25.381 25.381.39.36c.073.06.15.114.231.161a1.02 1.02 0 0 0 .17.13l.28.17.15.09.291.14.16.07.29.111.19.07.281.07h.21l.31.05h.191a4.17 4.17 0 0 0 .5 0c.17.01.341.01.511 0 .067.005.134.005.2 0h.501l.29-.08.15-.05a2.42 2.42 0 0 0 .331-.12h.08a5.11 5.11 0 0 0 3.084-4.776V34.959a1.91 1.91 0 0 1 1.912-1.903h11.955a5.146 5.146 0 1 0 0-10.292H130.28a1.91 1.91 0 0 1-1.902-1.903v-8.66a1.9 1.9 0 0 1 1.902-1.893zM66.542.006H3.685A3.705 3.705 0 0 0 0 3.69v47.7a3.704 3.704 0 0 0 3.685 3.684H16.3c-3.374-6.788-5.847-14.297-5.847-21.606 0-12.586 11.013-22.788 24.66-22.788s24.66 10.202 24.66 22.788c0 7.008-2.613 14.628-6.137 21.606h12.906a3.704 3.704 0 0 0 3.684-3.684V3.69A3.704 3.704 0 0 0 66.542.006zM24.92 25.607a5.147 5.147 0 1 0-.06 10.293 5.147 5.147 0 0 0 .06-10.293zm20.305 0a5.146 5.146 0 1 0 5.147 5.146 5.157 5.157 0 0 0-5.147-5.146zM31.89 36.13a11.534 11.534 0 0 0 3.263 7.71 11.494 11.494 0 0 0 3.274-7.71 11.494 11.494 0 0 0-3.274-7.71 11.534 11.534 0 0 0-3.264 7.71z"/><path d="M51.333 21.222a23.519 23.519 0 0 0-16.22-6.829 23.54 23.54 0 0 0-16.22 6.829c7.179.45 13.257 3.274 16.26 7.209 3.004-3.925 9.041-6.739 16.18-7.21z"/></svg>