<svg xmlns="http://www.w3.org/2000/svg" viewBox="0 0 266.667 38.667" width="800" height="116" xmlns:v="https://vecta.io/nano"><defs><clipPath id="A"><path d="M0 29h200V0H0z"/></clipPath><linearGradient id="B" spreadMethod="pad" gradientTransform="matrix(10.045386,19.771551,-19.715208,10.074113,31.041124,2.666513)" gradientUnits="userSpaceOnUse" y2="0" x2="1" y1="0" x1="0"><stop offset="0" stop-color="#38b24a"/><stop offset=".271" stop-color="#009245"/><stop offset=".635" stop-color="#38b24a"/><stop offset=".811" stop-color="#38b24a"/><stop offset="1" stop-color="#009245"/></linearGradient><clipPath id="C"><path d="M0 29h200V0H0z"/></clipPath><linearGradient id="D" spreadMethod="pad" gradientTransform="matrix(11.131062,10.159,-20.393944,13.366398,17.183735,11.694928)" gradientUnits="userSpaceOnUse" y2="0" x2="1" y1="0" x1="0"><stop offset="0" stop-color="#f7a41a"/><stop offset=".445" stop-color="#f38120"/><stop offset=".792" stop-color="#f7a41a"/><stop offset="1" stop-color="#f38120"/></linearGradient><clipPath id="E"><path d="M0 29h200V0H0z"/></clipPath></defs><g transform="matrix(1.333333 0 0 -1.333333 0 38.666667)"><g clip-path="url(#A)"><path d="M50.803 15.819c-2.714-.033-5.329-1.081-7.767-2.44-2.368-1.324-4.365-3.49-6.844-4.549-4.019-1.719-5.485-1.577-9.544-1.116-.707.078-2.386.494-3.095.46-.364-.02-3.464.643-3.714.82L31.072.986c9.821 2.725 10.468 12.083 19.731 14.833" fill="#007b38"/></g><path d="M19.839 8.994c5.736-4.038 5.612-3.157 11.349-7.195h0c9.264 2.756 10.352 11.269 19.614 14.019h0c-1.992.573-2.264.906-3.275 1.721h0c-1.53 1.237-3.13 2.733-5.065 2.835h0a3.6 3.6 0 0 1-.179.005h0C37.265 20.38 31.83 9.264 19.839 8.994" fill="url(#B)"/><g clip-path="url(#C)"><path d="M19.838 8.994l11.349-7.195s3.939-.48 10.365 7.649c0 0-5.109-6.31-10.056-7.166z" fill="#71bd44"/><path d="M39.778 13.656c-3.063 1.117-6.039 1.454-8.821 1.481-2.707.03-5.013-.716-7.836-.448-4.574.434-6.226 1.155-10.79 3.203-.794.355-2.676 1.367-3.476 1.637-.411.144-4.52 1.877-4.798 2.112 6.366-5.374 6.724-5.166 13.087-10.542 11.143-2.135 11.695 3.626 22.634 2.557" fill="#f4911e"/></g><path d="M4.308 21.552v-.123c6.13-5.143 6.71-4.48 12.99-9.78h0c5.258-.941 8.248.032 11.238 1.004h0c2.99.972 5.981 1.945 11.24 1.004h0c-2.231 1.257-5.517 4.634-7.695 5.524h0c-2.418.988-5.358.701-8.983.413h0c-4.886-.388-11.016-.777-18.789 1.958h0z" fill="url(#D)"/><g clip-path="url(#E)"><path d="M4.29 21.566c5.797-4.843 6.938-4.397 13.099-9.596 10.515-1.883 11.647 3.677 22.167 1.791-.01.005-.021.014-.029.019l.222-.105c.007-.005.02-.013.028-.019-10.518 1.884-11.963-3.891-22.478-2.008-6.365 5.373-6.876 4.62-13.241 9.993.08-.028.151-.047.232-.075" fill="#f7a41a"/><path d="M187.126 8.604h2.954l-.188 2.101-.293 3.879h-.217l-1.45-3.96zm3.465-3.988h-5.132l-1.289-3.099c-.107-.197-.21-.347-.308-.444s-.301-.149-.604-.149h-3.922c-.162 0-.262.05-.296.149s-.027.219.025.363l7.47 16.679c.323.717.667 1.179 1.033 1.387s.838.31 1.412.31h2.123c.303 0 .571-.014.804-.041s.435-.095.605-.202.313-.275.43-.497.203-.535.254-.931l2.794-16.705c.019-.09.011-.196-.025-.322s-.152-.19-.35-.19h-3.868a1.34 1.34 0 0 0-.497.081c-.136.054-.219.179-.255.378zm-15.583 6.332c.43-.199.78-.41 1.05-.633s.48-.468.63-.729.259-.543.324-.848l.175-1.024.966-6.251c.017-.089.009-.202-.027-.337s-.17-.202-.404-.202h-4.111c-.089 0-.186.018-.295.054s-.178.144-.214.323l-.725 5.362c-.072.486-.18.884-.322 1.199a1.95 1.95 0 0 1-.565.742 1.98 1.98 0 0 1-.86.363c-.341.063-.734.095-1.182.095h-1.21l-1.047-7.706c-.037-.198-.089-.32-.161-.364s-.189-.068-.35-.068h-4.084c-.143 0-.253.023-.334.068s-.106.166-.069.364l2.527 17.997c.036.198.094.319.176.365s.19.067.334.067h4.111c.16 0 .272-.023.335-.067s.067-.167.013-.365l-.941-6.681h1.559a3.15 3.15 0 0 1 .646.067c.214.045.43.147.645.31s.425.391.63.687.409.687.606 1.173l1.854 4.552c.072.18.16.287.268.324s.205.053.294.053h4.139c.214 0 .325-.067.337-.201.006-.135-.005-.247-.041-.338l-1.936-4.822c-.286-.755-.666-1.424-1.142-2.008s-1.007-1.046-1.599-1.386zm-15.809-9.903c-.063-.08-.238-.121-.524-.121h-3.708c-.411 0-.59.19-.537.567l.779 5.468-1.558-.133-1.371-.054c-1.451 0-2.614.178-3.492.537s-1.535.859-1.974 1.496-.705 1.392-.794 2.264-.062 1.817.082 2.842l.752 5.308c.037.197.098.341.188.431s.25.135.483.135h3.707c.287 0 .457-.042.511-.122s.062-.229.028-.444l-.672-4.822c-.09-.576-.113-1.062-.068-1.455s.17-.715.376-.957.498-.417.873-.526.851-.162 1.425-.162l.994.041 1.156.148 1.074 7.733c.053.377.277.566.672.566h3.708c.285 0 .456-.042.508-.122s.063-.229.028-.444l-2.498-17.728c-.037-.215-.085-.365-.148-.446m-22.689 14.51c-.645 0-1.208-.208-1.692-.621s-.886-.955-1.21-1.629-.564-1.429-.724-2.263-.243-1.684-.243-2.545c0-1.042.193-1.857.578-2.441s1.044-.875 1.975-.875c.663 0 1.232.201 1.706.607s.868.938 1.181 1.602.542 1.406.686 2.225.215 1.646.215 2.491c0 .502-.04.966-.121 1.388s-.214.784-.402 1.09a1.99 1.99 0 0 1-.753.715c-.313.17-.713.256-1.196.256m.457 4.526c1.235 0 2.306-.185 3.211-.552s1.653-.885 2.244-1.55 1.034-1.468 1.328-2.412.444-1.988.444-3.138c0-1.744-.202-3.338-.604-4.783s-1.008-2.689-1.814-3.73-1.809-1.851-3.009-2.425-2.588-.863-4.164-.863c-1.253 0-2.329.171-3.224.511s-1.636.841-2.217 1.497-1.012 1.458-1.289 2.411-.416 2.029-.416 3.233c0 1.761.219 3.368.658 4.822s1.071 2.699 1.894 3.732 1.823 1.833 2.996 2.398 2.493.849 3.962.849M116.2 12.833h2.739c.179 0 .363.023.551.068s.364.131.525.256a1.4 1.4 0 0 1 .388.484c.1.198.149.45.149.756 0 .322-.103.573-.31.753s-.487.27-.845.27h-2.848zm-1.075-7.517h3.09c.394 0 .724.073.994.217s.483.318.645.523a1.86 1.86 0 0 1 .335.675c.063.242.094.462.094.659 0 .432-.13.782-.389 1.052s-.65.403-1.169.403h-3.089zm5.291 14.469c.717 0 1.398-.073 2.044-.216s1.208-.381 1.691-.714.865-.764 1.143-1.293.416-1.181.416-1.954c0-1.096-.241-1.976-.726-2.64a5.62 5.62 0 0 0-1.746-1.59l-.026-.162c.806-.378 1.36-.92 1.665-1.63a5.57 5.57 0 0 0 .456-2.222c0-.899-.179-1.739-.537-2.52s-.859-1.459-1.504-2.034-1.41-1.033-2.297-1.374-1.85-.512-2.889-.512h-6.767c-.737 0-1.184.14-1.345.418s-.197.731-.107 1.361l2.149 15.303c.089.593.25 1.037.483 1.334s.715.445 1.451.445zm-14.088-18.74c-.064-.08-.247-.121-.552-.121h-3.681c-.43 0-.617.19-.563.567l2.497 17.728c.054.377.288.566.7.566h3.68c.305 0 .484-.042.537-.122s.063-.229.028-.444l-2.5-17.728c-.036-.215-.084-.365-.146-.446m-5.414 14.456h-4.461l-1.987-14.01c-.035-.215-.085-.365-.148-.446s-.237-.121-.524-.121h-3.707c-.413 0-.592.19-.539.567l1.99 14.01h-4.353c-.376 0-.529.206-.457.62l.43 3.017c.036.305.097.488.187.552s.234.095.43.095h13.729c.216 0 .359-.032.431-.095s.089-.247.053-.552l-.43-3.017c-.072-.414-.286-.62-.644-.62m-23.186.054c-.644 0-1.208-.208-1.692-.621s-.887-.955-1.209-1.629-.565-1.429-.726-2.263-.242-1.684-.242-2.545c0-1.042.192-1.857.579-2.441s1.042-.875 1.974-.875c.662 0 1.231.201 1.705.607s.869.938 1.182 1.602.543 1.406.686 2.225.215 1.646.215 2.491c0 .502-.041.966-.12 1.388s-.216.784-.404 1.09-.439.544-.752.715-.712.256-1.196.256m.457 4.526c1.235 0 2.305-.185 3.211-.552s1.652-.885 2.243-1.55 1.033-1.468 1.33-2.412.443-1.988.443-3.138c0-1.744-.202-3.338-.605-4.783s-1.008-2.689-1.812-3.73-1.81-1.851-3.01-2.425-2.588-.863-4.164-.863c-1.255 0-2.329.171-3.224.511s-1.635.841-2.217 1.497-1.012 1.458-1.29 2.411-.416 2.029-.416 3.233c0 1.761.22 3.368.658 4.822s1.07 2.699 1.894 3.732 1.823 1.833 2.997 2.398 2.494.849 3.962.849M58.519 1.463c-.036-.214-.085-.36-.147-.43s-.238-.109-.524-.109H54.14c-.412 0-.591.179-.537.539l1.854 13.203c.089.646.264 1.279.523 1.899a5.43 5.43 0 0 0 1.062 1.643c.447.477.998.857 1.652 1.145s1.419.432 2.297.432h8.032c.198 0 .323-.032.377-.095s.062-.247.027-.552l-.43-3.044c-.036-.235-.094-.391-.174-.473s-.211-.12-.39-.12h-6.368c-.339 0-.622-.05-.845-.149s-.4-.22-.524-.364-.22-.305-.282-.485-.104-.36-.121-.539z" fill="#38b24a"/><g fill="#f38120"><path d="M59.606 25.954h1.726c.105 0 .226.017.366.049s.275.091.405.176a1.1 1.1 0 0 1 .332.351 1.09 1.09 0 0 1 .136.575c0 .234-.081.423-.244.566s-.39.214-.682.214h-1.766zm-.107-.76l-.351-2.517h1.775c.312 0 .567.052.765.156s.356.231.474.38a1.26 1.26 0 0 1 .239.484 1.93 1.93 0 0 1 .062.453c0 .312-.095.564-.287.756s-.493.288-.903.288zm-.859-3.336c-.169 0-.286.038-.351.116s-.084.202-.058.372l.81 5.852c.032.169.088.294.17.376s.209.121.385.121l2.195.01c.247 0 .476-.029.687-.088a1.59 1.59 0 0 0 .551-.268c.157-.121.279-.277.366-.468s.131-.422.131-.688a1.66 1.66 0 0 0-.063-.453 1.62 1.62 0 0 0-.195-.439c-.088-.14-.199-.269-.336-.386a1.63 1.63 0 0 0-.497-.283l-.01-.058c.338-.13.578-.328.722-.591a1.79 1.79 0 0 0 .214-.873c0-.356-.062-.676-.185-.955s-.296-.515-.517-.707-.483-.338-.785-.439a3.11 3.11 0 0 0-.991-.151zm8.954 4.399l-.244 1.424h-.048l-.625-1.375-.936-2.078h2.194zm.966-4.399c-.059 0-.107.006-.142.019s-.06.055-.073.127l-.264 1.434h-2.672l-.673-1.434c-.033-.052-.063-.089-.092-.111s-.074-.035-.132-.035h-.693c-.065 0-.102.018-.112.054a.27.27 0 0 0 .005.131l3.033 6.272c.072.156.142.259.21.307s.177.077.327.083h.272c.169 0 .281-.028.332-.083s.095-.157.127-.307l1.248-6.272c.014-.045.01-.087-.009-.126s-.059-.059-.117-.059zm10.211 6.691c-.006-.079-.032-.272-.079-.582l-.155-1.096-.19-1.361-.196-1.36-.155-1.098-.083-.58c-.026-.208-.094-.362-.205-.463a.56.56 0 0 0-.39-.151h-6.701c-.156 0-.273.049-.351.151s-.104.255-.078.463l.858 6.077c.014.064.031.104.055.122s.059.024.111.024h.595c.059 0 .099-.008.122-.024s.028-.058.015-.122l-.829-5.901h2.574l.83 5.901c.013.064.032.104.058.122s.065.024.117.024h.547c.058 0 .098-.008.121-.024s.031-.058.024-.122l-.838-5.901h2.516l.839 5.901c.007.064.024.104.054.122s.069.024.121.024h.567c.051 0 .088-.008.111-.024s.028-.058.015-.122m3.823-2.292l-.244 1.424h-.048l-.625-1.375-.936-2.078h2.195zm.966-4.399a.43.43 0 0 0-.142.019c-.035.014-.059.055-.073.127l-.263 1.434h-2.673l-.673-1.434c-.032-.052-.063-.089-.093-.111s-.072-.035-.131-.035h-.692c-.065 0-.103.018-.113.054a.27.27 0 0 0 .005.131l3.033 6.272c.072.156.142.259.21.307s.177.077.327.083h.273c.169 0 .28-.028.331-.083s.095-.157.127-.307l1.249-6.272a.17.17 0 0 0-.009-.126c-.02-.04-.059-.059-.118-.059z"/></g></g></g></svg>