<svg xmlns="http://www.w3.org/2000/svg" xmlns:xlink="http://www.w3.org/1999/xlink" width="182.052" height="52.619" fill="none" xmlns:v="https://vecta.io/nano"><defs><path id="A" d="M44.659 26.667V10.683h3.36v6.96l5.448-6.96h3.744l-5.88 7.416 6.144 8.568h-4.008l-5.448-7.656v7.656h-3.36z"/></defs><path fill="#1861da" d="M0 0h183v54H0z"/><g fill="#fff"><use xlink:href="#A" y="9.278" x="17.526"/><path d="M85.504 34.385c-1.008 1.232-2.464 1.848-4.368 1.848s-3.36-.6-4.368-1.8c-.992-1.2-1.488-2.632-1.488-4.296s.496-3.104 1.488-4.32c.992-1.232 2.44-1.848 4.344-1.848 1.296 0 2.4.304 3.312.912.928.608 1.592 1.36 1.992 2.256.416.88.624 1.848.624 2.904 0 1.648-.512 3.096-1.536 4.344zm-4.32-.576c1.648 0 2.472-1.224 2.472-3.672 0-1.152-.216-2.072-.648-2.76-.416-.688-1.064-1.032-1.944-1.032-1.6 0-2.4 1.232-2.4 3.696 0 1.152.2 2.072.6 2.76.416.672 1.056 1.008 1.92 1.008zm11.347 2.424c-1.664 0-3.048-.368-4.152-1.104l1.08-2.232c.928.64 1.888.96 2.88.96 1.28 0 1.92-.352 1.92-1.056 0-.16-.048-.296-.144-.408-.08-.128-.224-.24-.432-.336-.208-.112-.416-.208-.624-.288l-.816-.36-.936-.408c-.88-.416-1.536-.88-1.968-1.392-.432-.528-.648-1.216-.648-2.064 0-1.088.392-1.952 1.176-2.592.8-.656 1.864-.984 3.192-.984 1.44 0 2.688.312 3.744.936l-1.128 2.184a4.59 4.59 0 0 0-2.496-.744c-1.072 0-1.608.344-1.608 1.032a.81.81 0 0 0 .096.408c.064.112.192.224.384.336l.48.264.696.264.744.264c1.056.448 1.848.928 2.376 1.44.544.512.816 1.224.816 2.136 0 1.216-.408 2.144-1.224 2.784s-1.952.96-3.408.96zm6.814-.288v-17.28h3.192v7.008c1.056-1.136 2.272-1.704 3.648-1.704 1.216 0 2.104.344 2.664 1.032.56.672.84 1.592.84 2.76v8.184h-3.192v-7.536c0-.608-.12-1.056-.36-1.344s-.632-.432-1.176-.432c-.864 0-1.672.488-2.424 1.464v7.848h-3.192zm18.664.288c-1.92 0-3.424-.56-4.512-1.68-1.072-1.12-1.608-2.624-1.608-4.512 0-1.808.552-3.272 1.656-4.392s2.48-1.68 4.128-1.68 2.904.504 3.768 1.512c.88.992 1.32 2.408 1.32 4.248l-.048 1.104h-7.392c.08.912.36 1.648.84 2.208.496.544 1.208.816 2.136.816.944 0 1.96-.272 3.048-.816l1.032 2.064c-1.344.752-2.8 1.128-4.368 1.128zm-2.736-7.56h4.368c-.032-1.6-.704-2.4-2.016-2.4s-2.096.8-2.352 2.4zm10.046 7.272v-17.28h3.192v17.28h-3.192zm14.265.288c-2.56 0-4.592-.8-6.096-2.4-1.488-1.616-2.232-3.568-2.232-5.856 0-2.304.736-4.264 2.208-5.88s3.488-2.424 6.048-2.424 4.568.8 6.024 2.4c1.472 1.6 2.208 3.536 2.208 5.808 0 2.32-.728 4.296-2.184 5.928-1.44 1.616-3.432 2.424-5.976 2.424zm-3.552-4.344c.8 1.072 1.96 1.608 3.48 1.608s2.672-.52 3.456-1.56c.8-1.04 1.2-2.36 1.2-3.96s-.392-2.928-1.176-3.984c-.768-1.056-1.904-1.584-3.408-1.584-1.536 0-2.712.52-3.528 1.56-.8 1.024-1.2 2.328-1.2 3.912 0 1.6.392 2.936 1.176 4.008z"/><use xlink:href="#A" x="106.119" y="9.278"/></g><g fill="#c2e812"><path d="M24.966 27.821c.48-.486 1.12-.729 1.84-.729.64 0 1.28.243 1.84.729.48.567.72 1.297.72 2.026s-.24 1.459-.72 2.026c-.48.486-1.12.729-1.84.729-.72.081-1.36-.243-1.84-.729-.48-.567-.72-1.297-.72-2.026s.24-1.459.72-2.026z"/><path fill-rule="evenodd" d="M49.526 21.986l-.08 14.021c.08.648.08 1.378.08 1.945-.72 2.026-2.64 3.404-4.8 3.323h-22c-2.8 0-5.04-2.269-5.04-5.106l-.16-20.505v-.405c0-.162 0-.324.08-.486.4-1.703 1.92-2.918 3.68-2.918h2.32a1.27 1.27 0 0 1 1.28 1.297 1.27 1.27 0 0 1-1.28 1.296h-2.32c-.72 0-1.28.567-1.28 1.216.08.648.64 1.216 1.28 1.216h1.92l12.08-7.457c.56-.324 1.36-.081 1.68.486l1.44 2.431 3.12-1.944c.56-.405 1.36-.162 1.68.405l4.24 7.051c1.28.973 2.08 2.512 2.08 4.133zm-8.16 2.918l-2.72 3.89h-1.6v-3.971h-2.88v10.212h2.88v-3.809h1.52l2.64 3.809h3.44l-3.68-5.268 3.44-4.863h-3.04zm-9.84 7.7a5.15 5.15 0 0 0 .72-2.675c0-.973-.24-1.945-.72-2.675-.48-.811-1.12-1.459-1.92-1.864-.88-.405-1.84-.648-2.8-.648s-1.92.162-2.8.648c-.8.405-1.44 1.054-1.92 1.864a5.15 5.15 0 0 0-.72 2.675 5.15 5.15 0 0 0 .72 2.675c.4.811 1.12 1.459 1.92 1.864.88.405 1.84.648 2.8.648s1.92-.162 2.8-.648c.8-.405 1.44-1.054 1.92-1.864zm12.4-15.643l-2.24-3.728-2.08 1.378 1.36 2.35h2.96zm-7.2-2.35l-1.36-2.269-7.44 4.62h10.16l-1.2-2.026c0-.041-.02-.061-.04-.081s-.04-.041-.04-.081c0 0-.08-.081-.08-.162z"/></g></svg>