<svg xmlns="http://www.w3.org/2000/svg" viewBox="0 0 237 45" width="800" height="152" xmlns:v="https://vecta.io/nano"><path d="M23.1 32.4c-.6 0-1.1.2-1.4.5-.4.3-.8.8-1.5 1.4l-1.3 1.2c-.4.3-.8.6-1.3.8-.4.2-.9.4-1.4.5s-1.1.1-1.7.1c-1.4 0-2.5-.3-3.5-.8s-1.8-1.3-2.4-2.2a9.96 9.96 0 0 1-1.4-3.3c-.3-1.3-.4-2.6-.4-4s.1-2.7.4-3.9.7-2.3 1.4-3.2c.6-.9 1.4-1.7 2.4-2.2s2.1-.8 3.5-.8c1.2 0 2.2.2 3 .6s1.7 1.1 2.6 2.1c.5.5.9 1 1.3 1.3s.9.5 1.7.5 1.5-.3 2-.8.7-1.1.7-1.9c0-.6-.1-1.1-.4-1.6s-.7-1-1.1-1.5-1-.9-1.6-1.4c-.6-.4-1.3-.8-2.1-1.2-.8-.3-1.7-.6-2.6-.8s-2-.3-3-.3c-2.5 0-4.6.4-6.4 1.2s-3.2 2-4.4 3.4c-1.1 1.4-2 3-2.5 4.9-.5 1.8-.8 3.8-.8 5.8 0 1.9.2 3.8.7 5.6s1.2 3.4 2.3 4.8 2.4 2.5 4.2 3.4c1.7.8 3.9 1.2 6.3 1.2s4.5-.4 6.2-1.1 3-1.6 3.9-2.5c1.1-1.1 1.6-2.2 1.6-3.2 0-.7-.3-1.3-.8-1.8-.8-.5-1.4-.8-2.2-.8zm19.8-12.3c-.2-.3-.5-.5-.8-.7-.4-.2-.9-.3-1.5-.3-1.2 0-2.2.3-3.1 1a6.59 6.59 0 0 0-2.1 2.3v-.9c0-.7-.2-1.2-.7-1.5s-1.2-.4-2-.4c-1.1 0-1.8.2-2.2.7s-.6 1-.6 1.6v17.3c0 1.6.9 2.5 2.8 2.5 1 0 1.7-.2 2.2-.6.4-.4.7-1 .7-1.9v-8.1c0-1.3.1-2.5.3-3.4s.8-1.6 1.7-2.1c.6-.3 1.2-.5 1.8-.6l1.6-.3c.5-.1.9-.2 1.2-.4s.5-.4.7-.7c.2-.2.3-.5.3-.8s.1-.6.1-.8 0-.5-.1-.8c-.1-.5-.2-.8-.3-1.1zm12.3-1c-1.9 0-3.5.3-4.9 1s-2.5 1.5-3.4 2.6-1.5 2.3-2 3.7a15.4 15.4 0 0 0-.6 4.3c0 1.9.3 3.6.8 5a9.52 9.52 0 0 0 2.2 3.5 9.07 9.07 0 0 0 3.6 2c1.4.4 3 .7 4.7.7 1.2 0 2.4-.1 3.6-.4s2.3-.7 3.2-1.3c.7-.4 1.1-.8 1.4-1.2s.4-.8.4-1.3c0-.7-.2-1.3-.7-1.9s-1-.8-1.5-.8-.9.1-1.3.3-.7.4-1.2.7l-1.6.8c-.6.3-1.4.4-2.2.4-3.4 0-5.3-1.7-5.5-5.1h12.1c.9 0 1.6-.2 2.1-.5s.7-.9.7-1.7c0-3.5-.9-6.2-2.7-8.1-1.7-1.8-4.1-2.7-7.2-2.7zm-4.7 8.7c.1-1.4.6-2.5 1.5-3.2s1.9-1.1 3.1-1.1c.7 0 1.4.1 1.9.4s1 .6 1.3 1 .6.9.8 1.4.2 1 .2 1.5c0 0-8.8 0-8.8 0zM86.8 12c-.7 0-1.4.1-2 .4s-.9.9-.9 1.8v8.1c-.2-.4-.5-.7-.8-1.1s-.7-.7-1.2-1-1.1-.6-1.7-.7c-.7-.2-1.4-.3-2.2-.3-1.5 0-2.8.3-4 .9s-2.2 1.4-3 2.4-1.4 2.2-1.9 3.6c-.4 1.4-.6 2.9-.6 4.5 0 1.7.2 3.2.6 4.6s1 2.6 1.8 3.6 1.8 1.8 3 2.4 2.5.9 4 .9c1.1 0 2.1-.1 2.8-.4.8-.3 1.4-.6 1.9-1 .6-.4 1.1-.9 1.4-1.5v.2c0 .8.2 1.4.7 1.7.4.4 1.2.5 2.2.5 1.8 0 2.7-.8 2.7-2.3v-25c0-.7-.2-1.3-.7-1.7-.4-.4-1.1-.6-2.1-.6zm-3.9 23.4c-.8 1.2-2 1.8-3.6 1.8s-2.9-.6-3.7-1.9c-.8-1.2-1.2-2.8-1.2-4.7a10.9 10.9 0 0 1 .3-2.6c.2-.8.5-1.5.9-2.1s.9-1.1 1.6-1.4a4.65 4.65 0 0 1 4.2 0c.6.3 1.1.8 1.5 1.4s.7 1.3.9 2.1a10.9 10.9 0 0 1 .3 2.6c0 2-.4 3.6-1.2 4.8zm15.6-15.9c-1.1 0-1.8.2-2.3.7s-.7 1.1-.7 1.9v17.1c0 1.5 1 2.2 3 2.2.9 0 1.6-.2 2.1-.5.5-.4.7-1 .7-1.8V21.9c0-.8-.2-1.4-.7-1.8s-1.2-.6-2.1-.6zm2.2-7.7c-.7-.5-1.4-.7-2.2-.7-1 0-1.8.3-2.4.9s-.9 1.3-.9 2.2.3 1.7.9 2.2c.6.6 1.4.8 2.4.8s1.8-.3 2.4-.8c.6-.6.9-1.3.9-2.2-.1-1.2-.4-1.9-1.1-2.4zm18.5 25.1c-.3-.6-.8-.8-1.5-.8-.3 0-.5.1-.7.2l-.7.3c-.2.1-.5.2-.7.3s-.5.1-.9.1c-.5 0-.9-.1-1.1-.4s-.4-.7-.4-1.4V24h3.4c1 0 1.5-.7 1.5-2.2 0-.6-.1-1-.3-1.4s-.6-.6-1.2-.6h-3.4V15c0-.5-.1-1-.4-1.3s-.8-.5-1.5-.5c-.4 0-.8 0-1.3.1-.4.1-.8.3-1.2.5a2.36 2.36 0 0 0-.9.8c-.2.3-.4.8-.4 1.3v4h-1.8a1 1 0 0 0-1 .6c-.2.4-.3.9-.3 1.4s.1 1 .3 1.5a1.04 1.04 0 0 0 1 .7h1.8v11.8c0 2.1.5 3.6 1.6 4.6s2.5 1.5 4.4 1.5c1.2 0 2.2-.1 3-.3s1.5-.5 2.1-.9c.4-.2.7-.5.8-.9.2-.3.2-.7.2-1.2 0-.7-.1-1.3-.4-1.8z" fill="#373742"/><path d="M235.7 40.9c-.4.4-1.1.5-2.1.5-.8 0-1.5-.2-2-.5s-.7-.9-.7-1.8v-.7c-.3.4-.6.8-1 1.2a5.02 5.02 0 0 1-1.4 1c-.5.3-1.2.6-1.9.7-.7.2-1.6.3-2.5.3-2.2 0-3.9-.6-5.2-1.7-1.3-1.2-1.9-2.7-1.9-4.6 0-1.1.2-2.1.6-2.8.4-.8.9-1.4 1.5-2 .7-.5 1.4-.9 2.3-1.2s1.8-.5 2.8-.7l3.2-.5 3.5-.3V27c0-.4-.1-.8-.2-1.2s-.3-.8-.6-1.1-.6-.6-1.1-.8-1.1-.3-1.7-.3c-.4 0-.9 0-1.2.1-.4.1-.7.1-1.1.3-.3.1-.7.3-1.1.5s-.8.5-1.3.8c-.4.3-.7.5-1 .6-.3.2-.7.3-1.2.3a2.34 2.34 0 0 1-1.7-.7c-.5-.5-.7-1.1-.7-1.8 0-.5.2-1 .6-1.5s1-1 1.8-1.5 1.8-.8 2.9-1.1a16.42 16.42 0 0 1 4.1-.5c3.2 0 5.5.6 6.9 1.9 1.4 1.2 2.1 3.2 2.1 5.8v12.4c-.1.8-.3 1.4-.7 1.7zm-4.9-9.5l-3 .4c-1 .1-1.7.3-2.1.4-1.3.3-2.2.7-2.6 1.2s-.6 1-.6 1.6c0 .7.2 1.3.7 1.7.4.4 1.2.6 2.3.6 1.7 0 3.1-.4 4-1.2s1.4-1.8 1.4-3.1l-.1-1.6h0zm-26.5-3.7l2.2.4c2.5.5 4.4 1.2 5.5 2.2s1.7 2.6 1.7 4.6c0 2.3-.8 4.1-2.5 5.2-1.7 1.2-4 1.7-6.9 1.7-1.7 0-3.2-.2-4.5-.6s-2.4-.9-3.2-1.5c-.4-.2-.6-.5-.8-.9-.2-.3-.3-.6-.3-.9 0-.6.1-1.1.4-1.6.2-.4.5-.8.9-1 .3-.3.8-.4 1.2-.4a1.92 1.92 0 0 1 1.2.4c.4.3.8.5 1.3.8s1 .6 1.7.8a7.46 7.46 0 0 0 2.4.4c1.2 0 2.1-.2 2.6-.6s.8-.9.8-1.6c0-.5-.2-1-.6-1.4s-1.1-.7-2.3-.9l-2.5-.4-2.8-.7c-.8-.3-1.6-.7-2.2-1.2s-1.1-1.1-1.4-1.9c-.3-.7-.5-1.6-.5-2.7s.2-2.1.7-3c.4-.9 1.1-1.6 1.9-2.2s1.8-1 2.9-1.4c1.1-.3 2.4-.5 3.7-.5 1.9 0 3.5.2 4.7.7s2.1.9 2.7 1.4c.4.3.6.6.7.9s.2.6.2.9c0 .7-.2 1.2-.5 1.7-.2.3-.5.5-.7.6-.2.2-.5.2-.9.2-.3 0-.6-.1-.9-.2s-.6-.3-.8-.4a22.56 22.56 0 0 0-2.2-1.1c-.7-.3-1.6-.4-2.7-.4s-1.9.2-2.4.6-.8.8-.8 1.4c0 .5.2.9.6 1.3.3.7 1.1 1 2.4 1.3zm-16.1 13.8c-.8 0-1.5-.2-2-.5s-.7-.9-.7-1.8v-.7c-.3.4-.6.8-1 1.2a5.02 5.02 0 0 1-1.4 1c-.5.3-1.2.6-1.9.7-.7.2-1.6.3-2.5.3-2.2 0-3.9-.6-5.2-1.7-1.3-1.2-1.9-2.7-1.9-4.6 0-1.1.2-2.1.6-2.8.4-.8.9-1.4 1.5-2 .7-.5 1.4-.9 2.3-1.2s1.8-.5 2.8-.7l3.2-.5 3.5-.3v-.8c0-.4-.1-.8-.2-1.2s-.3-.8-.6-1.1-.6-.6-1.1-.8-1.1-.3-1.7-.3c-.4 0-.9 0-1.2.1-.4.1-.7.1-1.1.3-.3.1-.7.3-1.1.5s-.8.5-1.3.8c-.4.3-.7.5-1 .6-.3.2-.7.3-1.2.3a2.34 2.34 0 0 1-1.7-.7c-.5-.5-.7-1.1-.7-1.8 0-.5.2-1 .6-1.5s1-1 1.8-1.5 1.8-.8 2.9-1.1a16.42 16.42 0 0 1 4.1-.5c3.2 0 5.5.6 6.9 1.9 1.4 1.2 2.1 3.2 2.1 5.8v12.4c0 .8-.2 1.4-.6 1.7-.5.3-1.2.5-2.2.5zm-2.7-10.1l-3 .4c-1 .1-1.7.3-2.1.4-1.3.3-2.2.7-2.6 1.2s-.6 1-.6 1.6c0 .7.2 1.3.7 1.7.4.4 1.2.6 2.3.6 1.7 0 3.1-.4 4-1.2s1.4-1.8 1.4-3.1l-.1-1.6h0zm-31.6 11l-4-5.7 2-2.9 3.7 5.3c1.6 2.3 3.9 2.7 5.6 1.5s2-3.4.4-5.7l-5.3-7.5 2.1-3 6.9 9.9c1.9 2.7 1.1 7.1-2.1 9.3-3 2.3-7.4 1.6-9.3-1.2zm-6.7-5.8v-6L161.6 10c1.6-2.3 1.3-4.5-.4-5.7s-3.9-.8-5.6 1.5l-8.5 12.1v-5.8l6.7-9.6c1.9-2.7 6.3-3.5 9.4-1.2s4 6.6 2.1 9.3l-18.1 26zm-9.3 8.4c-3.5 0-6.3-2.5-6.9-5.4-.1-.5-.2-1.1-.2-1.9 0-.2 0-1 .1-1.7V6.5c0-3.4 3.1-6.4 7-6.4s7 3.1 7 6.4v32.1c0 3.3-3.1 6.4-7 6.4zm3.6-36.9c0-2.8-1.5-4.4-3.6-4.4-2 0-3.7 1.6-3.7 4.4v28.6c0 2.8 1.7 4.7 3.7 4.7s3.6-1.8 3.6-4.7V8.1z" fill="#ffc300"/></svg>