<svg xmlns="http://www.w3.org/2000/svg" viewBox="0 0 294.9 91.5" width="800" height="248" xmlns:v="https://vecta.io/nano"><path d="m65.4 71.8v-1.7c-20.7 0-39.5-8.5-53.1-22.1l-1.3 1.2-1.3 1.3c14.3 14.3 34 23.1 55.7 23.2z" fill="#fff"/><path d="m9.7 50.5-7.6 7.6c-2.9 2.9-2.7 7.7.4 10.3 4.2 3.6 8.7 6.8 13.5 9.7 7.4 4.4 15.3 7.8 23.8 10.2 5.9 1.6 12 2.7 18.3 3.2h.1c4 .3 7.4-2.9 7.4-6.9v-10.9c-21.9 0-41.6-8.9-55.9-23.2z" fill="#35af66"/><path d="m59.4 73.4-1.4 18h.1c4 .3 7.3-2.9 7.4-6.9v-10.9c-2.1.1-4.1 0-6.1-.2z" fill="#61e296"/><path d="m59.3 1.1-47 46.9c13.6 13.6 32.4 22.1 53.1 22.1l.1-66.4c0-3.3-3.9-4.9-6.2-2.6z" fill="#ef4848"/><path d="M64.9 1.8l-5.3 68 5.8.2.1-66.4c0-.7-.2-1.3-.6-1.8z" fill="#ff8383"/><path d="M131.8 70.1c0 .2 0 .3-.1.4s-.2.2-.5.3c-.2.1-.5.1-.8.2s-.8.1-1.3.1-.9 0-1.3-.1-.6-.1-.8-.2-.4-.2-.4-.3c-.1-.1-.1-.3-.1-.4V34.5h-.1L112 70.2c-.1.1-.2.3-.3.4s-.3.2-.5.3-.5.1-.8.2h-1.1c-.4 0-.8 0-1.1-.1s-.6-.1-.8-.2-.4-.2-.5-.3-.2-.2-.2-.3L92.9 34.5V70c0 .2 0 .3-.1.4s-.2.2-.5.3c-.3.2-.6.3-.9.3-.3.1-.8.1-1.3.1s-1 0-1.3-.1-.6-.1-.8-.2-.3-.2-.4-.3-.1-.3-.1-.4V32.6c0-.9.2-1.5.7-1.9s1-.6 1.6-.6H93c.7 0 1.3.1 1.8.2s1 .3 1.3.6a4.74 4.74 0 0 1 1 1c.3.4.5.9.7 1.5L109.5 63h.2l12.1-29.4c.2-.6.5-1.2.8-1.6l.9-1.1c.3-.3.7-.5 1.1-.6s.9-.2 1.4-.2h3.5c.3 0 .6 0 .9.1s.5.2.7.4.4.5.5.8.2.7.2 1.1zm16.2 0c0 .2 0 .3-.1.4s-.2.2-.4.3-.5.1-.8.2-.8.1-1.3.1-.9 0-1.3-.1-.6-.1-.9-.2-.4-.2-.4-.3c-.1-.1-.1-.3-.1-.4V30.9c0-.2 0-.3.1-.4s.3-.2.5-.3.5-.1.9-.2c.3-.1.8-.1 1.2-.1.5 0 1 0 1.3.1s.6.1.8.2.4.2.4.3c.1.1.1.3.1.4zm32.1-1.6c0 .4 0 .8-.1 1.1 0 .3-.1.5-.2.7a1.38 1.38 0 0 1-.3.4c-.1.1-.3.1-.5.1h-18c-.5 0-.9-.2-1.4-.5-.4-.3-.6-.9-.6-1.7V30.9c0-.2 0-.3.1-.4s.2-.2.4-.3.5-.1.9-.2.8-.1 1.3-.1 1 0 1.3.1.6.1.8.2.4.2.4.3c.1.1.1.3.1.4v35.3h14.6c.2 0 .4 0 .5.1s.3.2.3.4.2.4.2.7c.1.4.2.7.2 1.1zM218.8 50c0 3.3-.4 6.3-1.2 8.9s-1.9 4.9-3.5 6.8c-1.5 1.9-3.5 3.3-5.8 4.3s-5.1 1.5-8.2 1.5-5.7-.5-8-1.4c-2.2-.9-4.1-2.2-5.5-4-1.5-1.7-2.5-3.9-3.3-6.5s-1.1-5.6-1.1-8.9c0-3.2.4-6.1 1.2-8.8.8-2.6 1.9-4.9 3.5-6.7s3.5-3.3 5.8-4.3 5.1-1.5 8.2-1.5c3 0 5.6.5 7.9 1.4 2.2.9 4.1 2.2 5.6 4 1.5 1.7 2.6 3.9 3.3 6.4.7 2.6 1.1 5.5 1.1 8.8zm-5.7.4c0-2.3-.2-4.5-.6-6.4a16.11 16.11 0 0 0-2-5.2c-1-1.5-2.2-2.6-3.8-3.4s-3.6-1.2-5.9-1.2-4.3.4-5.9 1.3-2.9 2.1-3.9 3.5c-1 1.5-1.7 3.2-2.1 5.2s-.6 4-.6 6.2c0 2.4.2 4.6.6 6.6s1.1 3.8 2 5.2c.9 1.5 2.2 2.6 3.8 3.4s3.6 1.2 6 1.2 4.4-.4 6-1.3 2.9-2.1 3.9-3.6 1.7-3.2 2.1-5.2l.4-6.3zM257.2 69c.2.5.3.8.3 1.1s-.1.5-.2.6c-.2.1-.4.2-.8.3-.4 0-.9.1-1.6.1h-1.6c-.4 0-.7-.1-.9-.2s-.3-.2-.4-.3-.2-.3-.3-.5l-3.5-9.9h-17l-3.3 9.8c-.1.2-.1.4-.3.5-.1.1-.3.3-.5.3-.2.1-.5.2-.9.2s-.8.1-1.4.1-1.1 0-1.5-.1-.7-.2-.8-.3c-.2-.1-.2-.4-.2-.6 0-.3.1-.7.3-1.1l13.7-37.9.3-.6c.1-.2.3-.3.6-.3.3-.1.6-.1 1-.2h3.3c.4 0 .8.1 1.1.2s.5.2.6.4.3.4.3.6zm-17.6-33.5l-7.1 20.3h14.2zm55.3 33.2c0 .4-.1.8-.2 1.1s-.3.5-.6.7c-.2.2-.5.3-.8.4s-.6.1-.8.1h-1.8c-.6 0-1.1-.1-1.5-.2s-.8-.3-1.2-.6-.8-.7-1.1-1.2c-.4-.5-.8-1.2-1.2-2l-12.4-23.2-2-3.8c-.7-1.3-1.3-2.6-1.8-3.8h-.1l.1 4.6v29.3c0 .2 0 .3-.1.4s-.2.2-.5.3c-.2.1-.5.1-.8.2s-.8.1-1.3.1-1 0-1.3-.1-.6-.1-.8-.2a1.38 1.38 0 0 1-.4-.3c-.1-.1-.1-.3-.1-.4V32.4c0-.8.2-1.4.7-1.8s1-.5 1.6-.5h2.7a6.96 6.96 0 0 1 1.6.2c.4.1.8.3 1.1.5s.7.6 1 1 .6 1 1 1.6l9.6 17.9 1.7 3.2 1.6 3.1 1.5 3 1.5 2.9-.1-5.2V31c0-.1 0-.3.1-.4s.2-.2.4-.3.5-.2.8-.2.8-.1 1.3-.1.9 0 1.3.1c.4 0 .6.1.8.2a1.38 1.38 0 0 1 .4.3c.1.1.1.3.1.4zM57.5 58.8c-.7 1.8-2.7 2.6-4.5 1.9s-2.6-2.7-1.9-4.5 6.5-6.9 6.5-6.9.6 7.8-.1 9.5zM33 48.9c-.7 1.8-2.7 2.6-4.5 1.9s-2.6-2.7-1.9-4.5 6.5-6.9 6.5-6.9.6 7.7-.1 9.5zm20.2-14.7c-.7 1.8-2.7 2.6-4.5 1.9s-2.6-2.7-1.9-4.5 6.5-6.9 6.5-6.9.6 7.7-.1 9.5z" fill="#333"/></svg>