<svg xmlns="http://www.w3.org/2000/svg" viewBox="0 0 500 70.8" width="800" height="113" xmlns:v="https://vecta.io/nano"><path d="M17.23 0h14.21L26 20l-.78 3.27a46.69 46.69 0 0 0 4.92-2.95A71.19 71.19 0 0 0 50.79 0h15l-2.64 4.53c-7 10.78-17.27 18.87-27.88 25.85 4.74 5.15 9 10.92 11.51 17.49a41.14 41.14 0 0 1 2.69 16.07H35.22a41.68 41.68 0 0 0-3.06-12.49 44.21 44.21 0 0 0-7.38-12.24 18.71 18.71 0 0 0-3.1-2.94Q18.34 48.69 15 61.13a11.08 11.08 0 0 1-.87 2.75C9.43 64 4.71 63.89 0 64v-.64a33.28 33.28 0 0 0 1.4-4.56Q8.75 31.34 16.12 3.93c.36-1.31.66-2.64 1.11-3.93zm213.51 0h13.43l-11.88 15.84c4.42.1 8.83 0 13.25.05l-.4 1.66q-5.39 20.06-10.77 40.12c-.25 1.38-1.93 1.48-3 2a67.68 67.68 0 0 1-18.07 4.14c-4.68.24-9.62.39-14-1.61a10.1 10.1 0 0 1-5.54-6.32c-1-3.43-.52-7.1.4-10.49l7.94-29.51h13.36c-.47 2.2-1.12 4.35-1.69 6.52q-2.95 11-5.88 21.91a9 9 0 0 0 .11 6 5.24 5.24 0 0 0 4.72 2.6 26.74 26.74 0 0 0 9.88-1.63l9.48-35.36h-9.1c2.49-5.41 5.2-10.63 7.76-15.92zm42.97 0h21.48l-3 11c-4.81.22-9.64 0-14.45.12-3.64.17-7.45 1-10.35 3.32-3.14 2.55-4.8 6.42-5.83 10.23l-10.51 39.26h-14.23l10-37.54c1.07-3.89 1.93-7.88 3.69-11.54A24.34 24.34 0 0 1 259.91 4c4.14-2.59 9.01-3.6 13.8-4zm195.2 0h3.51c1.62.51 3.43 1.15 4.28 2.74 1.09 2 .38 4.41-.85 6.14a11.31 11.31 0 0 1-12.38 3.84 4.51 4.51 0 0 1-3.32-4.09 7.51 7.51 0 0 1 2.91-6A12.23 12.23 0 0 1 468.91 0zm17.66 0H500v.23c-1.07 3.57-2 7.19-3 10.79l-10.34 38.57c-4.48.07-9 0-13.44 0Q479.89 24.8 486.57 0zM67.24 16.4c4.35-.64 8.73-1.07 13.12-1.31 4.55-.16 9.25-.18 13.58 1.43a9.79 9.79 0 0 1 6 5.52c1.13 3.12.67 6.54-.15 9.68Q95.94 46 92.11 60.29c-.1.71-.93.74-1.46.95a74.68 74.68 0 0 1-18 2.68c-4.86.21-9.94-.27-14.27-2.64A11 11 0 0 1 52.62 54a17.32 17.32 0 0 1 2.6-11.85 18.08 18.08 0 0 1 9.84-7.46 29.51 29.51 0 0 1 20.29.76 44.16 44.16 0 0 0 1.32-5.38 3.45 3.45 0 0 0-2-3.67c-2.57-1.06-5.43-.93-8.16-.91A98.91 98.91 0 0 0 62.8 27c.44-2.24 1.15-4.42 1.71-6.63a31.32 31.32 0 0 1 1.06-3.64 9.18 9.18 0 0 1 1.67-.33zM74 42.78a10.08 10.08 0 0 0-5.43 2.56 5.47 5.47 0 0 0-1.19 6A5.42 5.42 0 0 0 71.25 54a20.7 20.7 0 0 0 9.26-.54l2.48-9.27A12.93 12.93 0 0 0 74 42.78zm87-26.33a108.22 108.22 0 0 1 19.63-1.35c3.8.29 7.88 1 10.89 3.49a8.83 8.83 0 0 1 3.07 6.71 19.89 19.89 0 0 1-.71 6.18l-7.6 28.36c-.15.49-.29 1.14-.91 1.2a73.21 73.21 0 0 1-19.3 2.91c-4.67.17-9.51-.39-13.68-2.65a11 11 0 0 1-5.74-7.3 17.33 17.33 0 0 1 2.6-11.86 17.92 17.92 0 0 1 9.18-7.22 31 31 0 0 1 14.8-1.24 30.73 30.73 0 0 1 6.16 1.77c.44-1.69 1-3.35 1.29-5.07a3.56 3.56 0 0 0-1.42-3.66 11.44 11.44 0 0 0-5.15-1.2A84.16 84.16 0 0 0 156.85 27c.71-3.26 1.69-6.46 2.52-9.7.07-.81 1.03-.7 1.63-.85zM162.9 45a5.5 5.5 0 0 0-1.5 6.35 5.34 5.34 0 0 0 3.66 2.51 20.61 20.61 0 0 0 9.5-.49l2.15-8c.07-.45.32-.93.15-1.39a11.39 11.39 0 0 0-6-1.56c-2.86.17-5.79.74-7.96 2.58zm119.81-26.89a69.51 69.51 0 0 1 17.29-3 29.7 29.7 0 0 1 15.26 2.68c3.7 1.88 7.1 5 8.08 9.18a23.57 23.57 0 0 1-.08 9.49 45.73 45.73 0 0 1-5.16 13.8A29.06 29.06 0 0 1 308 60.67a24.86 24.86 0 0 1-13 3.28 54.87 54.87 0 0 1-10.85-1.08l-2.15 8h-13.51l14.22-52.76zm11.19 8.19l-3.77 14.1c-1.05 4.13-2.32 8.21-3.23 12.37 4.39 1 9.38 1.46 13.39-1s6.15-6.68 7.56-10.9c1.07-3.37 2-7 1.09-10.53-.65-2.59-3.25-4.13-5.72-4.62a21.23 21.23 0 0 0-9.32.58zM108.11 15.88h13.36c-1 4.2-2.21 8.33-3.29 12.51-.63 2.58-1.7 5.15-1.36 7.85a4.57 4.57 0 0 0 2.72 3.76c2.4 1 5.06.54 7.54.18a15.89 15.89 0 0 0 4.83-1.38c2.19-7.6 4.09-15.28 6.22-22.9h13.37l-12.85 48h-13.39c1.09-4.43 2.39-8.81 3.49-13.24-5.18.79-10.48 1.37-15.68.49a14 14 0 0 1-7.36-3.32 11.29 11.29 0 0 1-3.17-8 29.54 29.54 0 0 1 1.46-8.7q2.07-7.62 4.11-15.25zm276.56.02h13.47l-7.52 27.94a10.6 10.6 0 0 0-.2 6.24 4.39 4.39 0 0 0 3.47 2.71c2.95.49 5.91-.35 8.63-1.43.67-.28 1.53-.55 1.61-1.41l9.12-34h13.47l-8.05 29.93a6.82 6.82 0 0 0 .09 4.79 4.73 4.73 0 0 0 3.64 2.19 20.89 20.89 0 0 0 9.44-1.31 1.23 1.23 0 0 0 .84-1l9.33-34.58h13.35l-11.43 42.64a61.81 61.81 0 0 1-15.67 4.73 48.29 48.29 0 0 1-11.61.56 18.73 18.73 0 0 1-7.52-2.13c-.56-.28-1.14-.77-1.79-.44a50.71 50.71 0 0 1-16.26 2.69 20.13 20.13 0 0 1-10.21-2.24 10.06 10.06 0 0 1-4.61-6.35 19.85 19.85 0 0 1 .44-9.65l7.97-29.88zm74.76.02c4.49-.07 9 0 13.46 0q-4.19 15.66-8.41 31.3c-.4 1.7-1.1 3.37-1 5.14a1.09 1.09 0 0 0 .93 1.1c1.24.16 2.5.05 3.75.12-.79 3.13-1.6 6.26-2.52 9.35a25.81 25.81 0 0 1-9.64.93 8.13 8.13 0 0 1-5.81-3.31 8.46 8.46 0 0 1-.9-5.17A50.36 50.36 0 0 1 451.1 47l8.33-31.08zm12.73 37.69c4.47-.2 8.95-.07 13.42-.07-.74 3.14-1.67 6.24-2.45 9.36-.17.37-.15 1.09-.72 1h-13c.85-3.42 1.89-6.83 2.75-10.29z" fill="#1d1d1b"/><path d="M348.48 15.52a31.06 31.06 0 0 1 8.33-.67v.16l-5.67 22.13-.15.46-.7.39c-.63-3.91-.07-7.87-.3-11.8-.38-3.41-.07-6.87-.67-10.27z" fill="#5c5a4d"/><path d="M356.77 15a20.37 20.37 0 0 1 14.16 7q-5.52 4.81-11.1 9.56c-2.76 2.33-5.81 4.28-8.66 6.49 0-.23-.05-.68-.07-.9L356.77 15z" fill="#fee600"/><path d="M343 17.37a33.16 33.16 0 0 1 5.51-1.85l.8.4c.6 3.4.28 6.85.67 10.27.23 3.93-.33 7.88.3 11.8l.7-.39-.28.75-.22.6a10.69 10.69 0 0 1-1.24-2.77c-1-4-2.05-7.95-3.35-11.85-.59-1.74-.94-3.54-1.56-5.26a3.88 3.88 0 0 0-1.33-1.7z" fill="#65634f"/><path d="m333.88 23.66a32.84 32.84 0 0 1 9.1-6.29 3.88 3.88 0 0 1 1.34 1.7c.61 1.72 1 3.53 1.56 5.26 1.3 3.9 2.36 7.86 3.35 11.85a10.69 10.69 0 0 0 1.23 2.82l.09.45-.45-.2c-3.51-2.63-6-6.28-9.37-9.09-2.24-2.25-4.66-4.25-6.85-6.5z" fill="#736e52"/><path d="M370.93 22a21 21 0 0 1 3.94 7.21c-.44 1.38-1.91 1.68-3.12 2.07-2.63.85-5.11 2.11-7.73 3-3.37 1.31-6.87 2.24-10.28 3.42a12.52 12.52 0 0 0-2.62 1.48l-.22.08-.23-.89.28-.75.15-.46c0 .23.05.68.07.9 2.85-2.21 5.9-4.16 8.66-6.49q5.58-4.76 11.1-9.57z" fill="#f4da00"/><path d="M329.41 29.25a31.06 31.06 0 0 1 4.47-5.58l6.84 6.45c3.33 2.81 5.87 6.46 9.38 9.09-3.15-.76-5.77-2.76-8.62-4.19l-8.72-4.38a26.16 26.16 0 0 0-3.35-1.39z" fill="#7f7952"/><path d="M374.88 29.21a24.35 24.35 0 0 1 .61 10.15 3.21 3.21 0 0 1-2.16 1.15c-1.42 0-2.83-.26-4.26-.27l-.28 1.13-1.11-1.27c-.79.19-1.61.82-2.43.43a6.66 6.66 0 0 0-2.13-.61c-4-.15-8-1.22-12-.76a12.52 12.52 0 0 1 2.62-1.48c3.42-1.17 6.91-2.11 10.28-3.42 2.62-.88 5.1-2.14 7.73-3 1.25-.37 2.69-.66 3.13-2.05z" fill="#ebd100"/><path d="M326.07 36.77a28.23 28.23 0 0 1 3.34-7.52 26.16 26.16 0 0 1 3.34 1.39l8.72 4.38c2.9 1.46 5.47 3.43 8.62 4.19l.45.2v.18l-.23.05-.52.1-8.54-1.29-5.52-.74c-3.21-.25-6.4-.97-9.66-.94z" fill="#8a824e"/><path d="M326.07 36.77c3.26 0 6.46.69 9.7.94 1.85.14 3.69.41 5.52.74l8.54 1.29-.48.11c-4.09.86-8.28 1.07-12.36 1.94-2.56.6-5.16.95-7.73 1.47-1.37.26-2.77.13-4.14.36a26.36 26.36 0 0 1 .95-6.85z" fill="#958948"/><path d="M350.46 39l.22-.6.23.89.22-.08c4-.46 8 .6 12 .76a6.66 6.66 0 0 1 2.13.61c.82.39 1.64-.24 2.43-.43l1.11 1.27.28-1.13c1.42 0 2.83.27 4.26.27a3.21 3.21 0 0 0 2.16-1.15A29.25 29.25 0 0 1 370 52c-2.18-1.09-4.12-2.6-6.22-3.84-3-2.06-6.28-3.74-9-6.18a7.45 7.45 0 0 0-3.87-2.12l-.24-.07v-.21-.18z" fill="#e2c800"/><path d="M349.83 39.74l.52-.1-.69.75-.18.15a43.79 43.79 0 0 0-6 3.51c-3.26 2.07-6.35 4.4-9.66 6.41-1.93 1.28-3.88 2.52-5.68 4a22.15 22.15 0 0 1-2.14-4.81c2.38-1.24 4.93-2.06 7.37-3.17 2.07-1 4.24-1.68 6.34-2.59 3.21-1.35 6.6-2.31 9.64-4z" fill="#a69638"/><path d="M350.35 39.64l.23-.05v.21a26.82 26.82 0 0 1 .1 5.7c-.07 1.81-1.15 3.4-1.2 5.21l-1 12.59 1.54.57a23.3 23.3 0 0 1-10.76-.78A10.14 10.14 0 0 1 336.7 62l9.14-14.94c1.24-2.24 3-4.21 3.83-6.64.22-.28.44-.53.68-.78z" fill="#c3a900"/><path d="M337 41.79c4.08-.87 8.27-1.08 12.36-1.94-3 1.74-6.43 2.69-9.64 4-2.1.91-4.27 1.62-6.34 2.59-2.43 1.11-5 1.93-7.37 3.17a24.07 24.07 0 0 1-.88-6c1.37-.23 2.77-.1 4.14-.36 2.56-.52 5.17-.87 7.73-1.46z" fill="#9e9041"/><path d="M350.61 39.8l.24.07a16.22 16.22 0 0 1 2 5.14c.57 2.93 1.88 5.64 2.86 8.45l3.13 7.68a27.36 27.36 0 0 1-8.84 2.73l-1.54-.57c.23-4.2.7-8.39 1-12.59 0-1.82 1.13-3.4 1.2-5.21a26.82 26.82 0 0 0-.05-5.7z" fill="#cdb200"/><path d="M350.86 39.88a7.45 7.45 0 0 1 3.87 2.12c2.72 2.44 6 4.12 9 6.18 2.1 1.24 4 2.74 6.22 3.84a32 32 0 0 1-11.06 9.13c-1.24-2.48-2.09-5.12-3.13-7.68-1-2.81-2.29-5.51-2.86-8.45a16.22 16.22 0 0 0-2.04-5.14z" fill="#d7bd00"/><path d="M343.46 44.05a43.79 43.79 0 0 1 6-3.51l-4.91 4.34c-2 1.59-3.7 3.45-5.64 5.08l-6.3 5.6a8 8 0 0 0-1.86 2.36 22.8 22.8 0 0 1-2.67-3.47c1.79-1.46 3.75-2.71 5.68-4 3.34-1.99 6.43-4.32 9.7-6.4z" fill="#ad9a2d"/><path d="M349.49 40.54l.18-.15c-.86 2.44-2.59 4.41-3.83 6.64L336.7 62l-.09.14a23.67 23.67 0 0 1-5.82-4.2 8 8 0 0 1 1.86-2.36l6.3-5.6 5.64-5.08 4.9-4.36z" fill="#b5a01d"/></svg>