<svg xmlns="http://www.w3.org/2000/svg" xmlns:xlink="http://www.w3.org/1999/xlink" width="768" height="273" fill="none" xmlns:v="https://vecta.io/nano"><path d="M466.328 117.454v62.673h10.409v-26.354h.221c2.658 4.208 7.972 6.865 13.73 6.865 12.623 0 20.596-10.187 20.596-22.145 0-12.402-8.416-21.925-20.153-21.925-7.751 0-12.401 3.765-14.394 7.087h-.443v-5.758h-9.966v-.443zm22.367 7.308c8.194 0 11.959 6.866 11.959 13.288s-3.986 13.509-11.959 13.509c-7.751 0-12.18-6.866-12.18-13.288s4.429-13.509 12.18-13.509zm43.189-31.225h-10.408v65.773h10.408V93.537zm50.936 65.773v-41.634h-10.409v22.81c0 5.536-3.1 11.294-9.744 11.294s-7.751-6.201-7.751-11.073v-23.031h-10.408v26.132c0 8.415 4.429 16.83 15.28 16.83 6.201 0 11.073-3.764 12.845-7.972h.221v6.644h9.966 0zm26.131-35.211c3.765 0 7.309 1.993 9.08 4.429l6.865-5.979c-3.321-4.208-9.744-6.422-15.723-6.422-8.194 0-16.609 3.986-16.609 13.287 0 7.751 6.2 10.409 12.401 11.737 6.423 1.551 9.523 2.436 9.523 5.98 0 3.765-3.543 4.872-6.644 4.872-4.429 0-8.415-2.215-10.63-5.315l-6.865 6.422c3.986 4.429 10.63 6.865 17.052 6.865 9.08 0 17.274-3.764 17.274-13.952 0-8.193-7.308-10.851-13.509-12.401-5.758-1.329-9.08-2.215-9.08-5.536.222-2.658 3.544-3.987 6.865-3.987zm18.377-62.451c-1.107-1.329-2.657-1.993-4.65-1.993-3.322 0-6.201 2.657-6.201 6.201 0 1.55.664 3.1 1.55 3.986 16.609 18.381 25.689 42.077 25.689 66.88 0 55.365-44.956 100.32-100.32 100.32s-100.32-44.955-100.32-100.32 44.956-100.319 100.32-100.319c8.858 0 17.495 1.107 25.91 3.322.443.221 1.108.221 1.551.221 3.321 0 6.2-2.657 6.2-6.201 0-2.879-1.993-5.094-4.429-5.979C563.106 25.329 553.362 24 543.396 24c-62.008 0-112.5 50.492-112.5 112.5S481.388 249 543.396 249s112.5-50.492 112.5-112.5c.221-27.461-9.966-54.257-28.568-74.852zm-43.411-5.536h7.308v7.308c0 3.322 2.658 6.201 6.201 6.201 3.322 0 6.201-2.657 6.201-6.201v-7.308h7.308c3.322 0 6.201-2.657 6.201-6.201 0-3.322-2.658-6.201-6.201-6.201h-7.308v-7.308c0-3.322-2.658-6.201-6.201-6.201-3.322 0-6.201 2.658-6.201 6.201v7.308h-7.308c-3.322 0-6.201 2.657-6.201 6.201.222 3.322 2.879 6.201 6.201 6.201z" fill="#f29022"/><path d="M181.98 99.295l-10.408 8.415c-1.993-2.657-4.429-4.65-7.751-5.979s-6.644-1.993-9.966-1.993c-7.972 0-14.394 2.657-19.266 8.194-5.094 5.315-7.53 12.18-7.53 20.152 0 8.416 2.436 15.281 7.087 20.596 4.872 5.315 11.073 7.972 19.045 7.972 8.194 0 14.395-2.879 18.824-9.08l11.073 7.751c-7.308 9.08-17.274 13.509-29.897 13.509-12.18 0-21.924-3.765-29.675-11.516-7.751-7.529-11.516-17.495-11.516-29.453 0-12.18 3.986-21.924 11.959-29.454 7.972-7.308 17.938-11.073 30.118-11.073 5.315 0 10.63 1.107 15.945 3.1 5.093 1.993 9.079 4.872 11.958 8.858zm9.079 67.544v-52.485h12.623v8.858h.221c1.55-3.1 3.543-5.536 6.201-7.529 2.657-1.772 5.758-2.879 9.08-2.879 1.328 0 2.214 0 3.1.221v11.959c-1.55-.443-2.879-.443-3.986-.443-2.215 0-4.208.443-5.98 1.108s-3.1 1.55-4.207 2.657c-.886 1.107-1.772 2.215-2.436 3.765-.665 1.328-1.108 2.657-1.329 3.765s-.221 1.993-.221 2.878v28.125h-13.066zm88.583-25.688v3.543H239.78c.221 3.544 1.993 6.644 4.872 9.08s6.201 3.765 10.187 3.765c5.979 0 10.63-2.215 13.952-6.865l8.858 7.086c-5.094 7.087-12.623 10.409-22.589 10.409-8.194 0-15.059-2.436-20.374-7.53-5.315-4.872-7.972-11.737-7.972-19.931 0-8.415 2.657-15.059 7.972-20.374 5.315-5.093 11.959-7.751 19.931-7.751 7.53 0 13.731 2.436 18.381 7.308 4.429 5.094 6.644 12.18 6.644 21.26zm-39.862-5.758h27.018c0-3.543-1.108-6.643-3.101-9.079-2.214-2.436-5.093-3.544-9.08-3.544-3.764 0-7.086 1.108-9.965 3.544-3.101 2.214-4.651 5.315-4.872 9.079zm102.98-51.378v82.603h-12.623v-7.972h-.222c-1.771 3.1-4.207 5.315-7.529 6.865s-6.865 2.436-10.409 2.436c-7.751 0-13.951-2.658-18.823-8.194-4.651-5.315-7.087-11.959-7.087-19.931s2.436-14.395 7.087-19.71c4.872-5.315 10.851-7.972 18.38-7.972 7.309 0 13.288 2.657 17.717 8.194h.221V83.572h13.288v.443h0zm-39.419 44.512c-2.658 3.322-3.987 7.309-3.987 11.738s1.329 8.415 3.987 11.958c2.657 3.322 6.422 5.094 11.072 5.094s8.416-1.772 11.073-5.094c2.879-3.322 4.208-7.308 4.208-11.737s-1.329-8.415-4.208-11.737c-2.879-3.543-6.643-5.315-11.073-5.315-4.65 0-8.415 1.772-11.072 5.093zm52.261-26.574c-1.551-1.55-2.436-3.322-2.436-5.536s.885-3.986 2.436-5.537 3.543-2.436 5.979-2.436 4.429.664 5.979 2.215 2.436 3.322 2.436 5.536-.886 4.208-2.436 5.537c-1.55 1.55-3.765 2.214-5.979 2.214-2.436.443-4.429-.442-5.979-1.993zm-.443 64.887v-52.485h13.066v52.485h-13.066zm30.566-42.078h-9.08v-10.408h9.08V99.073h12.844v15.281h13.066v10.408h-12.844v24.36c0 2.658.443 4.651 1.328 5.98s2.879 1.993 5.537 1.993c2.214 0 4.208-.443 5.536-1.107l.443 10.187c-2.436.885-5.315 1.328-8.858 1.328-6.422 0-10.851-1.55-13.287-4.872s-3.765-7.751-3.765-13.509v-24.36h0z" fill="#002b5d"/><path d="M477.194 248.716c-26.058-15.529-46.264-39.854-56.523-68.878H228.633v68.878h248.561z" fill="#036"/><path d="M266.024 239.505v-15.532h3.242c3.348-4.149 5.021-10.809 5.021-19.978v-9.414h28.032v29.392h4.08v15.532h-7.845v-7.897h-24.685v7.897h-7.845zm12.918-15.532h14.434v-21.809h-10.46v2.981c0 8.403-1.324 14.679-3.974 18.828zm27.755 7.635l15.533-37.027h8.682l15.375 37.027h-9.936l-2.877-7.269h-14.33l-2.719 7.269h-9.728zm15.01-14.434h9.309l-4.602-12.709-4.707 12.709zm44.817 15.428c-5.648 0-10.373-1.831-14.173-5.491-3.766-3.661-5.648-8.333-5.648-14.017 0-5.718 1.882-10.39 5.648-14.016 3.8-3.661 8.525-5.491 14.173-5.491 2.789 0 5.421.488 7.897 1.464 2.51.977 4.533 2.302 6.067 3.975l-5.649 6.328c-1.743-2.475-4.55-3.713-8.42-3.713-2.405 0-4.497.715-6.276 2.144s-2.911 3.225-3.399 5.387h13.65v7.113h-13.755a9.38 9.38 0 0 0 3.243 5.909c1.813 1.569 3.975 2.354 6.485 2.354 4.044 0 7.025-1.325 8.943-3.975l5.439 6.015c-1.534 1.813-3.521 3.277-5.962 4.393-2.441 1.081-5.195 1.621-8.263 1.621zm28.204-13.389h-8.786v-24.632h8.786v24.632zm.732 7.95c0 1.395-.505 2.58-1.516 3.556-.977.942-2.18 1.412-3.609 1.412-1.36 0-2.545-.47-3.556-1.412-1.011-.976-1.517-2.144-1.517-3.504s.488-2.528 1.464-3.504c1.011-.976 2.214-1.464 3.609-1.464 1.429 0 2.632.488 3.609 1.464 1.011.942 1.516 2.092 1.516 3.452z" fill="#fff"/><path d="M93.989 33.489h3.522v3.523c0 1.601 1.281 2.989 2.989 2.989 1.601 0 2.989-1.281 2.989-2.989v-3.523h3.522c1.601 0 2.989-1.281 2.989-2.989 0-1.601-1.281-2.989-2.989-2.989h-3.522v-3.522c0-1.601-1.281-2.989-2.989-2.989-1.601 0-2.989 1.281-2.989 2.989v3.522h-3.522C92.388 27.511 91 28.792 91 30.5c.107 1.601 1.388 2.989 2.989 2.989z" fill="#f29022"/><g fill="#036"><use xlink:href="#B"/><use xlink:href="#B" x="-677" y="-31"/></g><use xlink:href="#B" x="31" y="-89" fill="#bac7d6"/><defs ><path id="B" d="M705.989 219.489h3.522v3.522c0 1.601 1.281 2.989 2.989 2.989 1.601 0 2.989-1.281 2.989-2.989v-3.522h3.522c1.601 0 2.989-1.281 2.989-2.989 0-1.601-1.281-2.989-2.989-2.989h-3.522v-3.522c0-1.601-1.281-2.989-2.989-2.989-1.601 0-2.989 1.281-2.989 2.989v3.522h-3.522c-1.601 0-2.989 1.281-2.989 2.989.107 1.601 1.388 2.989 2.989 2.989z"/></defs></svg>