<svg xmlns="http://www.w3.org/2000/svg" width="202" height="118" viewBox="0 0 101 59" fill="#000" xmlns:v="https://vecta.io/nano"><path d="M30.602 2.302V0L.079 11.724 0 11.757v.572 31.436L30.602 59V27.539L2.629 13.046 30.602 2.302zm12.694 14.157c2.31 0 3.647.746 3.91 2.666h2.819c-.276-3.43-2.432-5.23-6.73-5.23-4.745 0-6.776 2.155-6.776 6.096 0 3.955 2.031 6.129 6.776 6.129 4.295 0 6.454-1.818 6.73-5.263h-2.819c-.26 1.934-1.617 2.699-3.91 2.699-2.803 0-4.005-1.119-4.005-3.564 0-2.427 1.186-3.532 4.005-3.532zm10.439 3.495c1.603-1.376 3.296-1.75 4.774-1.75.772 0 1.466.101 2.326.341v-2.427a8.67 8.67 0 0 0-2.451-.341c-1.692 0-3.295.529-4.649 1.869v-1.699h-2.632v9.997h2.632v-5.991zm13.476 6.165c3.358 0 5.605-1.206 6.207-3.753h-2.619c-.664 1.018-1.771 1.391-3.588 1.395-1.755 0-3.142-.525-3.434-2.122h9.795c0-4.549-2.757-5.857-6.207-5.857-3.681 0-6.283 1.492-6.283 5.176 0 3.669 2.678 5.162 6.129 5.162zm.138-8.135c1.663 0 2.957.391 3.404 1.8h-6.884c.417-1.409 1.679-1.8 3.48-1.8zm16.912-.475c-.986-1.137-2.573-1.731-4.528-1.731-2.911 0-5.406 1.355-5.406 5.176s2.494 5.162 5.406 5.162c1.955 0 3.542-.594 4.528-1.731v1.561h2.632v-13.58h-2.632v5.143zm-3.653 6.179c-2.356 0-3.634-.761-3.634-2.731 0-1.985 1.278-2.749 3.634-2.749s3.65.764 3.65 2.749c0 1.967-1.294 2.731-3.65 2.731zm10.15-11.322h-2.632v2.528h2.632v-2.528zm0 3.582h-2.632v10.001h2.632V15.948zM101 18.375v-2.427h-4.298v-2.905l-2.648.833v2.072h-2.386v2.427h2.386v4.567c0 2.206 1.511 3.173 3.851 3.173 1.216 0 2.219-.083 3.096-.254v-2.343c-1.061.17-1.525.17-2.356.17-1.604 0-1.942-.493-1.942-2.427v-2.887H101zM48.439 36.891c.539-.659.848-1.474.848-2.307 0-1.746-.756-3.122-3.204-3.122h-9.486v11.884h9.858c2.451 0 3.513-1.46 3.513-3.463 0-1.376-.601-2.358-1.528-2.992zm-9.066-3.22h5.714c.756 0 1.433 0 1.433 1.221 0 1.239-.677 1.239-1.416 1.239h-5.731v-2.46zm6.408 7.317h-6.408v-2.514h6.408c.739 0 1.416 0 1.416 1.257s-.68 1.257-1.416 1.257zm11.162-7.81c-3.756 0-6.283 1.492-6.283 5.176 0 3.669 2.524 5.162 6.283 5.162 3.742 0 6.282-1.496 6.282-5.162 0-3.684-2.54-5.176-6.282-5.176zm0 7.907c-2.448 0-3.651-.659-3.651-2.731 0-2.086 1.203-2.749 3.651-2.749 2.432 0 3.634.659 3.634 2.749 0 2.072-1.2 2.735-3.634 2.731zm15.644-7.74l-3.325 3.311-3.325-3.311h-3.542l5.096 5.009-5.093 4.991h3.542l3.326-3.311 3.325 3.311h3.539l-5.113-4.991 5.113-5.009h-3.542z"/></svg>