<svg xmlns="http://www.w3.org/2000/svg" viewBox="0 0 500 66" width="800" height="106" xmlns:v="https://vecta.io/nano"><path d="M417.09 0h13.62a24.56 24.56 0 0 1 13.08 8.37 27.44 27.44 0 0 1 5.81 16.9A28 28 0 0 1 444.66 42a24.41 24.41 0 0 1-13.72 9.46 26.74 26.74 0 0 1-21.49-3.38 25 25 0 0 1-9.77-13.17c-2.68-8.51-1.59-18.39 3.74-25.67A24.71 24.71 0 0 1 417.09 0zm5.17 9.57a13.67 13.67 0 0 0-6.15 2.26 15.41 15.41 0 0 0-6.24 10 19.8 19.8 0 0 0 1.68 12.73 13.89 13.89 0 0 0 7.49 6.66 14.17 14.17 0 0 0 13.57-2.15c4.75-3.8 6.37-10.38 5.54-16.22a15.94 15.94 0 0 0-5.55-10.39 14 14 0 0 0-10.34-2.89zM37.22.34q9.11 0 18.22 0C56.91 3 59 5.22 60.65 7.76l5.6 7.89 14.27 19.74 11.79 16.35v14.3H61V51.55h14.92c-3.26-4.11-6.13-8.52-9.29-12.71L52.56 19.2a42.54 42.54 0 0 1-2.85-4H42.9L22.79 43c-1.9 2.93-4.17 5.61-6 8.57h15.89V41.11H46.5V66H0V52.11L31.59 8.38c1.73-2.79 4.02-5.18 5.63-8.04zM313.1 40.88Q324.82 20.55 336.51.19h12.43l-21.81 39h13l.07-12.15h11.16v12.12h8.13c.08 4.16 0 8.34 0 12.5h-8.13c-.08 4.49 0 9 0 13.47h-11.57V51.67h-27c-.11-2.85 0-5.71-.06-8.57a4.07 4.07 0 0 1 .37-2.22zM351.37.24c3.92-.11 7.84 0 11.76 0l12.35 22.4q6.14-11.26 12.33-22.45h10.88l-17.05 31c-.43.89-1.2 1.71-1.1 2.77V51.3h-11.05V33.63a5.06 5.06 0 0 0-.93-2.28L351.37.24zM457.41.2q5.53 0 11.06 0v28.78c.09 3.51.55 7.32 2.88 10.11a9.37 9.37 0 0 0 7.42 3c2.8 0 5.8-.86 7.57-3.15 2.18-2.8 2.61-6.5 2.7-9.93V.23h10.92V30.7c-.35 5.49-1.68 11.22-5.44 15.41s-9.32 6.12-14.78 6.24c-5.8.25-12-1.24-16.21-5.47-4.52-4.48-6.09-11.07-6.16-17.25q.01-14.71.04-29.43z" fill="#145a82"/><path d="M160.93 25.85c8-5.3 19.64-4.48 26.63 2.21 8.35 7.81 9 22.13 1.8 30.9A20.74 20.74 0 0 1 177.75 66h-9.82a20.69 20.69 0 0 1-12.33-8 23.81 23.81 0 0 1-3.3-20.29 21 21 0 0 1 8.63-11.86zm8.72 5.72a11.93 11.93 0 0 0-8.34 9.14c-1.07 4.78-.16 10.32 3.44 13.86a11.81 11.81 0 0 0 13.61 1.89 12.22 12.22 0 0 0 6-8.33c1.12-5-.05-11-4.18-14.39a11.82 11.82 0 0 0-10.53-2.17zm77.15-8.46l28.46-.05c.43.09 1.06-.18 1.39.18v8.09h-20.52q0 4.34 0 8.67h18.13v7.94c-6 .09-12.08 0-18.12 0v9.61h21.22v8.26q-15.27 0-30.54 0l-.02-42.7zm-146.66.02h7.78l14.46 26.15 14.28-26.16h7.67l.06 42.8h-8.75l-.07-24.85-11.17 20.37h-4.25l-11.13-19.86V65.9h-8.77l-.11-42.77zm101.01-.02h7.74l19.21 25.4q0-12.69 0-25.37h9.25q0 21.38 0 42.76h-7.64l-19.3-25.42v25.39h-9.24q-.03-21.4-.02-42.76zm77.39.01h9.94q5.15 9.31 10.29 18.64 5.18-9.29 10.3-18.63h9.18c-1.73 3.56-3.81 7-5.68 10.45q-4.63 8.37-9.27 16.74a3.62 3.62 0 0 0-.25 1.91v13.66h-9.3l-.05-15.23-15.16-27.54z" fill="#ef7f24"/></svg>