<svg xmlns="http://www.w3.org/2000/svg" width="726" height="216" xmlns:v="https://vecta.io/nano"><path d="M261.46 1.46l14.85.06 23.04 56.14c1.62 3.91 3.09 7.89 5.03 11.66L332.5 1.48l14.5-.04.09 79.72a259.33 259.33 0 0 1-8.82-.02l-.24-71.9c-10.44 23.79-19.69 48.11-29.92 71.99-2.58-.02-5.16-.04-7.72-.24l-30-71.49-.12 71.67c-2.94.03-5.89.03-8.83-.08l.02-79.63zm137.93.2c9.26-1.35 18.78-1.38 28.04.11 6.31.95 12.42 4.65 15.04 10.65 3.8 8.64 3.7 18.32 3.96 27.58-.12 9.71.02 19.78-3.44 29-2.22 6.13-7.94 10.43-14.26 11.6-9.79 1.9-19.97 1.86-29.82.33-6.35-.92-12.56-4.56-15.24-10.59-4-8.84-3.86-18.83-4.09-28.34.2-9.86-.01-20.19 3.97-29.41 2.69-6.34 9.22-10.08 15.84-10.93m.97 7.91c-3.33.7-6.53 2.55-8.26 5.55-2.81 4.78-3 10.52-3.32 15.91-.33 8.96-.42 17.97.53 26.9.62 4.91 2.02 10.49 6.51 13.28 4.87 2.82 10.73 2.79 16.19 2.98 5.92-.09 12.19.07 17.64-2.6 5.21-2.8 6.62-9.16 7.17-14.57.83-9.66.78-19.39.22-29.07-.43-5.05-.99-10.59-4.43-14.6-3.15-3.52-8.15-4.21-12.6-4.61-6.55-.4-13.21-.5-19.65.83zM579.93 1.5l51.03-.02c.09 2.64.1 5.28.1 7.91l-42.25.05c-.25 9-.1 18.01-.08 27.01l40.28.04c.1 2.59.11 5.19.12 7.78l-40.37.05-.03 28.76 42.15.06-.02 8.01h-51.01l.08-79.65zm-101.92.04c4.68-.08 9.36-.06 14.04-.02l44.76 72.22.1-72.21c2.95-.05 5.9-.05 8.85.04l-.03 79.56c-4.55.01-9.1.26-13.63-.05-2.1-1.71-3.08-4.43-4.62-6.61l-40.5-64.79-.13 71.48-8.82.01-.02-79.63zm179.31.03c3.24-.09 6.49-.09 9.74-.06l24.15 37.85 24-37.77a137.93 137.93 0 0 1 10.17-.02l-28.99 44.78a5.757 5.757 0 0 0-1.02 3.62l-.03 31.19c-2.99.04-5.98.04-8.96-.05-.15-11 .24-22.01-.16-32.99-9.13-15.79-19.53-30.88-28.9-46.55zm-249.9 92.87c11.28-.42 22.78-.51 33.82 2.17 7.88 1.88 15.09 7.04 18.59 14.47 5.23 10.82 5.5 23.13 6.08 34.9.25 12.94.26 25.98-1.88 38.77-1.46 8.21-4.3 16.83-10.96 22.31-6.95 5.77-16.27 7.17-24.99 7.87-10.99.71-22.11.73-32.98-1.17-7.59-1.29-15.17-4.75-19.77-11.14-5.74-7.95-7.22-18-8.12-27.52-1.09-14.87-1.12-29.86.44-44.69 1.22-9.85 3.57-20.57 11.32-27.45 7.75-6.83 18.57-7.91 28.45-8.52m-6.02 12.23c-6.67.67-13.72 3.62-16.86 9.92-4.24 8.09-4.06 17.53-4.56 26.41-.28 12.06-.39 24.17.89 36.19.74 6.17 2.17 12.72 6.5 17.45 3.74 4.04 9.31 5.6 14.61 6.28 8.33 1.05 16.78 1.05 25.15.4 6.07-.58 12.66-1.56 17.3-5.89 4.53-4.3 6.18-10.66 7.01-16.65 1.34-11.2 1.28-22.52 1.15-33.79-.2-7.27-.38-14.58-1.7-21.74-1.05-5.39-3.22-10.98-7.78-14.34-4.88-3.62-11.16-4.25-17.02-4.77-8.22-.53-16.51-.53-24.69.53zm119-12.26c10.19-.39 20.5-.36 30.55 1.54 7.11 1.32 14.13 4.65 18.56 10.53 5.14 6.82 6.92 15.47 7.88 23.79 1.52 14.54 1.52 29.23.52 43.81-.89 9.89-2.26 20.37-8.19 28.65-4.96 6.88-13.36 10.16-21.49 11.33-11.01 1.61-22.22 1.62-33.3.71-8.29-.78-17.08-2.51-23.48-8.24-6.6-5.83-9.3-14.69-10.68-23.11-1.84-12.04-1.89-24.28-1.67-36.43.36-10.1.83-20.37 3.86-30.08 2.02-6.48 5.81-12.66 11.68-16.31 7.63-4.86 16.95-5.63 25.76-6.19m-6.01 12.2c-4.59.59-9.35 1.72-13.01 4.73-4.79 3.91-6.76 10.16-7.67 16.06-1.16 8.48-1.29 17.06-1.35 25.6.01 9.68.05 19.4 1.44 29 .94 5.78 2.8 11.88 7.38 15.84 4.75 4.09 11.24 4.95 17.26 5.51 8.43.61 16.95.62 25.34-.51 5.53-.74 11.35-2.65 14.87-7.23 4.49-5.86 5.34-13.5 5.93-20.62.83-12.34.79-24.72.24-37.07-.54-7.69-.9-15.88-5.09-22.61-3.12-5.1-9-7.66-14.72-8.43-10.13-1.46-20.46-1.4-30.62-.27zM261.4 95.45l58.63.04c8.85.17 19.15 2.2 24.23 10.24 5.42 9.27 4.83 20.68 3.49 30.95-.98 7.19-6.68 12.52-13.18 15.06 4.57 2.03 9.65 3.73 12.81 7.86 4.34 5.43 4.49 12.78 4.72 19.4.05 9.52-1.19 19.96-7.7 27.41-5.87 6.41-15.14 7.75-23.41 7.71-19.87-.07-39.75.15-59.62-.1l.03-118.57m13.24 11.8l-.03 39.9 38.37.03c5.41-.17 11.24-.33 15.98-3.27 4.59-2.98 5.77-8.8 6.14-13.88.28-5.66.42-11.72-2.24-16.89-2.73-4.86-8.92-5.62-13.95-5.85l-44.27-.04m-.03 51.6v43.3l40.37-.02c6.17-.27 12.99-.1 18.21-3.93 4.77-3.82 5.35-10.47 5.54-16.14-.09-5.95.12-12.43-3.03-17.72-3.38-5.12-10.24-5.07-15.69-5.43l-45.4-.06zM597.1 95.31l21.79-.06 41.99 101.49 42.27-101.47 21.58.06.01 118.72c-4.4.12-8.8.11-13.2.03l-.1-108.37-44.64 108.33a147.77 147.77 0 0 1-11.53-.02L610.3 106.7l-.09 107.38a382.55 382.55 0 0 1-13.12 0l.01-118.77z" fill="#006fba"/><path d="M97.42 3.45c12.32-4.54 27.32.8 33.72 12.34 4.52 7.66 5.03 17.49 1.37 25.58-3.27 7.43-9.92 13.27-17.73 15.52-5.08 1.57-10.46.93-15.67 1.54-10.66 1.04-21.4 4.93-29.07 12.62-3.42 3.27-5.85 7.36-8.27 11.39-.21-3.19-.63-6.36-1-9.53 8.24-5.58 13.79-14.48 15.97-24.12 1.65-6.47 1.96-13.18 2.07-19.83.18-11.28 7.97-21.85 18.61-25.51zm19.6 76.3c7.02-.77 13.81-3.17 19.86-6.82.09 5.1.51 10.18.86 15.27-.4 3.32-1.41 6.55-1.72 9.89-1.04 7.85.43 16.29-3.43 23.55-3.41 7-10.76 11.02-18.05 12.85-8.29 2.37-17.08 1.38-25.42 3.55-8.6 1.89-16.69 6.35-22.33 13.19l-1.22-3.59c10.68-10.13 13.45-25.54 13.69-39.65-.06-10.9 6.41-21.9 16.75-25.92 6.64-2.96 14.02-1.34 21.01-2.32zm-10.05 78.24c10.19-.05 20.69-1.26 29.75-6.27.23 4.9.71 9.79 1.06 14.68-.48 3.53-1.53 6.97-1.79 10.54-.75 5.79-.06 11.77-1.75 17.42-1.73 6.06-5.62 11.49-10.85 15-8.11 5.52-19.14 6.36-27.99 2.15-7.27-3.37-12.93-10.01-15.07-17.74-2.34-8.15-.77-17.35 4.28-24.19 5.07-7.11 13.62-11.54 22.36-11.59z" fill="#f79436"/><path d="M170.78 5.81c11.02-6.81 26.64-4.57 35.17 5.23 9.63 10.17 9.59 27.69-.1 37.8-5.47 6.08-13.66 9.46-21.82 9.2-12.78-.17-26.59 2.71-35.9 12.09-5.1 4.92-8.08 11.48-10.39 18.07-.35-5.09-.77-10.17-.86-15.27 13.87-8.97 20.47-25.92 20.18-41.98-.38-10.06 5.05-20.04 13.72-25.14zm-11.05 86.94c6.66-11.66 22.71-14.71 34.56-10.03 8.97 3.59 15.73 12.1 17.13 21.67 1.46 8.94-1.75 18.47-8.35 24.68-5.3 5.13-12.66 7.9-20.01 7.78-11.68-.17-24.16 2.1-33.23 9.97-6.03 5.03-9.6 12.25-12.05 19.58l-1.06-14.68c9.85-5.89 15.29-16.83 17.22-27.82 2.38-10.3.15-21.72 5.79-31.15zm21.56 66.42c15.36-2.31 30.71 10.38 31.37 25.88 1.58 15.5-12.01 30.49-27.66 30.01-14.8.77-28.3-12.31-28.41-27.05-.82-14.12 10.63-27.48 24.7-28.84z" fill="#fcb139"/><path d="M21.39 3.63c13.27-4.35 28.88 3 34.04 15.96 5.57 12.52.26 28.51-11.71 35.19-11.89 7.3-28.84 3.78-36.84-7.65C-1.6 36.04.15 18.83 10.7 9.68c3.06-2.77 6.73-4.87 10.69-6.05zm6.65 77.04c11.3-.01 22.95-1.74 32.73-7.76.37 3.17.79 6.34 1 9.53-3.25 8.15-5.21 16.83-5.1 25.65.11 7.77-2.97 15.57-8.66 20.92-6.17 6.03-15.22 8.85-23.73 7.49-9.33-1.33-17.69-7.78-21.43-16.42-2.45-5.26-2.48-11.27-1.78-16.91 2.22-12.62 14.18-22.54 26.97-22.5zm18.71 75.85c6.9-1.34 13.43-4.35 18.82-8.88l1.22 3.59c-5.11 6.92-8 15.23-9.13 23.71-1.21 6.92-.4 14.16-2.72 20.88-2.04 6.25-6.41 11.77-12.23 14.9-8.6 4.64-19.63 4.66-28.11-.26C7.5 206.41 2.21 199.12.98 191c-.56-5.62-.57-11.64 2.14-16.77 3.34-6.93 10.19-11.49 17.36-13.75 8.49-2.86 17.62-1.93 26.27-3.96z" fill="#f47732"/></svg>