<svg xmlns="http://www.w3.org/2000/svg" xmlns:xlink="http://www.w3.org/1999/xlink" viewBox="0 0 420 136.9" width="420" height="137" xmlns:v="https://vecta.io/nano"><g fill="#25313e"><path d="M121.2 118.5c-.1-.2-.2-.4-.2-.6v-14.1c0-.2.1-.4.2-.6l.6-.2h4c.9 0 1.8.2 2.6.6s1.4 1 1.8 1.8.6 1.7.6 2.6-.2 1.8-.6 2.6-1 1.4-1.8 1.8-1.7.6-2.6.6h-3.2v4.7c0 .2-.1.4-.2.6l-.6.2zm4.6-6.8c.6 0 1.3-.2 1.8-.5s.9-.7 1.2-1.2.5-1.2.5-1.8c0-.7-.2-1.3-.5-1.9-.3-.5-.7-1-1.2-1.3s-1.2-.5-1.8-.5h-3.2v7.1zm9.7 6.4c-.8-.5-1.5-1.2-2-2a5.79 5.79 0 0 1 0-5.7c.5-.8 1.2-1.5 2-2a5.79 5.79 0 0 1 5.7 0c.8.5 1.5 1.2 2 2a5.79 5.79 0 0 1 0 5.7c-.5.8-1.2 1.5-2 2a5.79 5.79 0 0 1-5.7 0zm4.9-1.2c.6-.4 1.1-.9 1.4-1.5.7-1.3.7-3 0-4.3-.3-.6-.8-1.1-1.4-1.5-1.3-.7-2.8-.7-4.1 0-.6.4-1.1.9-1.5 1.5-.7 1.3-.7 3 0 4.3.4.6.9 1.1 1.5 1.5 1.3.7 2.8.7 4.1 0zm13.9-3c.4.5.6 1.1.6 1.7s-.2 1.2-.5 1.7c-.4.5-.9.9-1.5 1.2-.7.3-1.4.4-2.1.4-.8 0-1.6-.2-2.4-.5-.7-.3-1.3-.7-1.8-1.3-.1-.1-.2-.2-.2-.4 0-.3.1-.5.4-.6h.3c.3 0 .5.1.7.3.4.4.8.7 1.3.9s1.1.3 1.7.3c.7 0 1.3-.1 1.9-.5.5-.3.8-.8.8-1.4 0-.5-.2-1-.6-1.3-.4-.4-.9-.6-1.5-.6h-1l-.6-.2c-.1-.1-.2-.3-.2-.5s.1-.4.2-.5l.6-.2h1c.5 0 .9-.2 1.2-.5s.5-.7.5-1.2-.2-.9-.6-1.2c-.5-.3-1.1-.5-1.7-.5-1-.1-2 .3-2.7 1.1-.1.2-.4.3-.6.3h-.4a.55.55 0 0 1-.3-.5c0-.2.1-.4.2-.5.5-.6 1-1 1.7-1.3s1.4-.5 2.2-.5c.7 0 1.4.1 2 .4.4.2.8.6 1.1 1s.5 1 .5 1.5-.2 1.1-.5 1.5c-.4.4-.9.7-1.4.9.7.1 1.3.5 1.7 1zm12.3-5.5v.4l-5 11.5c-.4.9-1 1.7-1.7 2.4-.6.5-1.4.8-2.2.8-.6 0-1.1-.2-1.6-.5l-.3-.3c-.1-.1-.1-.3-.1-.4 0-.2.1-.3.2-.4.1-.2.4-.3.6-.3l.5.2.9.3c.5 0 1-.2 1.3-.6.5-.5.8-1.1 1.1-1.7l.7-1.7-4.4-9.2c-.1-.1-.1-.3-.1-.4 0-.3.1-.5.4-.6h.3c.3 0 .5.2.6.4l3.9 8.1 3.5-8c.1-.3.4-.5.7-.5h.3c.2.1.4.3.4.5zm14.7-.5c.1.2.2.4.2.6v9.4c0 .2-.1.4-.2.6l-.6.2-.6-.2c-.1-.2-.2-.4-.2-.6v-7.5l-3.8 5.5c-.2.2-.4.4-.7.4s-.5-.2-.7-.4l-3.8-5.4v7.4c0 .2-.1.4-.2.6l-.6.2-.6-.2c-.1-.2-.2-.4-.2-.6v-9.4c0-.2.1-.4.2-.6l.6-.2c.3 0 .6.2.8.5l4.4 6.4 4.4-6.4c.2-.3.5-.5.8-.5zm14 .1c.1.2.2.4.2.6v9.4c0 .2-.1.4-.2.6l-.5.2-.6-.2c-.1-.2-.2-.4-.2-.6v-4h-7v4c0 .2-.1.4-.2.6l-.6.2-.5-.2c-.1-.2-.2-.4-.2-.6v-9.4c0-.2.1-.4.2-.6l.5-.2.6.2c.1.2.2.4.2.6v4h7v-4c0-.2.1-.4.2-.6l.6-.2zm13.9 0c.1.1.2.3.2.5v9.4c0 .2-.1.4-.2.6l-.6.2-.5-.2c-.1-.2-.2-.4-.2-.6v-.7c-.4.5-1 .9-1.6 1.2s-1.3.4-2 .4a5.42 5.42 0 0 1-2.5-.6c-.8-.4-1.4-1-1.8-1.7-.4-.8-.6-1.8-.6-2.7v-5.2c0-.2.1-.4.2-.5l.5-.2.6.2c.1.1.2.3.2.5v5.2c-.1 1 .3 2 1 2.7.7.6 1.6 1 2.6.9.6 0 1.2-.1 1.8-.4a3.25 3.25 0 0 0 1.3-1c.3-.4.5-1 .5-1.5v-5.9c0-.2.1-.4.2-.5l.5-.2z"/><use xlink:href="#B"/><path d="m241.2 108.2c.8.4 1.4 1 1.8 1.8.4.9.6 1.8.6 2.8v5.2c0 .2-.1.4-.2.5l-.5.2-.6-.2c-.1-.1-.2-.3-.2-.5v-5.2c.1-1-.3-2-1-2.7-.7-.6-1.6-1-2.6-.9-.6 0-1.2.1-1.8.4-.5.3-.9.6-1.2 1.1-.3.4-.5 1-.5 1.5v5.9c0 .2-.1.4-.2.5l-.5.2-.6-.2c-.1-.1-.2-.3-.2-.5v-9.4c0-.2.1-.4.2-.6l.6-.2.5.2c.1.2.2.4.2.6v.7c.4-.5 1-.9 1.6-1.2s1.3-.4 2-.4c.9-.1 1.8.1 2.6.4z"/><use xlink:href="#C"/><path d="M261.3 108.4c.8.5 1.5 1.2 2 2 .5.9.7 1.9.7 2.9v4.1c0 1-.2 2-.7 2.9-.5.8-1.2 1.5-2 2s-1.8.8-2.8.8c-.9 0-1.9-.2-2.7-.6s-1.5-.9-2-1.6c-.1-.1-.2-.3-.2-.5a.55.55 0 0 1 .3-.5h.8l.3.2c.4.5.9.9 1.5 1.2.7.3 1.4.4 2.1.4 1.5 0 2.8-.8 3.5-2.1.4-.7.5-1.5.5-2.3v-.9c-.4.8-1 1.4-1.7 1.8a5.42 5.42 0 0 1-2.5.6c-1 0-1.9-.2-2.8-.7-.8-.5-1.5-1.2-1.9-2-.5-.9-.7-1.9-.7-2.9s.2-2 .7-2.9c.5-.8 1.2-1.5 2-2 1.8-.9 3.9-.9 5.7 0zm-.8 8.5c.6-.4 1.1-.9 1.4-1.5.7-1.3.7-3 0-4.3-.3-.6-.8-1.1-1.4-1.5-1.3-.7-2.9-.7-4.2 0-.6.4-1.1.9-1.4 1.5-.7 1.3-.7 3 0 4.3.3.6.8 1.1 1.4 1.5 1.3.7 2.9.7 4.2 0zm15.1 1.1c0 .2-.1.4-.2.5l-.5.2h-.4l-.3-.3-3.3-4.2-3.4 4.3c-.1.1-.3.2-.5.2l-.5-.2c-.1-.1-.2-.3-.2-.5s.1-.4.2-.5l3.5-4.3-3.3-4.2c-.1-.1-.2-.3-.2-.5s.1-.4.2-.5l.5-.2.6.2 3.2 4.1 3.2-4c.1-.2.4-.4.7-.4l.5.2c.1.1.2.3.2.5s-.1.4-.2.6l-3.3 4.1 3.4 4.4a.9.9 0 0 1 .1.5z"/><use xlink:href="#C" x="31.3"/><use xlink:href="#D"/><use xlink:href="#D" x="20.1"/><use xlink:href="#E"/><path d="M340 118.4c-.6-.2-1.1-.5-1.5-1-.3-.4-.5-1-.5-1.5 0-.8.4-1.5 1-2 .9-.7 2-1.1 3.1-1.3.7-.1 1.3-.4 1.8-.8.3-.3.5-.7.5-1.2s-.2-.9-.6-1.2c-.5-.3-1-.4-1.6-.4-.5 0-1 .1-1.5.3s-.9.4-1.2.8c-.2.2-.4.3-.7.3h-.3c-.2-.1-.4-.3-.4-.6 0-.2.1-.3.2-.4.4-.6 1-1 1.6-1.3.7-.3 1.5-.5 2.3-.5 1 0 1.9.2 2.7.8.7.6 1.1 1.4 1 2.3 0 .7-.3 1.4-.8 1.9-.7.6-1.6 1-2.6 1.2-.8.1-1.6.4-2.3.8-.4.3-.7.7-.7 1.2s.2.9.6 1.2c.6.3 1.2.4 1.9.4 1.1.1 2.3-.3 3.1-1.1.1-.2.4-.3.6-.3l.4.2a.55.55 0 0 1 .3.5c0 .2-.1.4-.2.5-.5.5-1.1 1-1.8 1.2-.8.3-1.6.4-2.4.4-.7 0-1.4-.2-2-.4zm17.9-10c.8.5 1.5 1.2 2 2 .5.9.7 1.8.7 2.8s-.2 1.9-.7 2.8c-1 1.7-2.8 2.7-4.7 2.7-.8 0-1.7-.2-2.4-.6-.7-.3-1.3-.9-1.8-1.5v5.9c0 .2-.1.4-.2.6l-.6.2-.5-.2c-.1-.2-.2-.4-.2-.6v-9.4c0-1 .2-1.9.7-2.8.5-.8 1.2-1.5 2-2a5.55 5.55 0 0 1 5.7.1zm-.8 8.5c.6-.4 1.1-.9 1.5-1.5.7-1.3.7-3 0-4.3-.4-.6-.9-1.1-1.5-1.5s-1.4-.6-2.1-.6c-1.5 0-2.8.8-3.5 2.1a4.99 4.99 0 0 0-.5 2.1v.5c.1 1 .6 1.9 1.3 2.6s1.7 1 2.7 1c.7 0 1.5-.1 2.1-.4z"/><use xlink:href="#E" x="45.3"/><path d="M392.9 108c.1.2.2.4.2.6v9.4c0 .2-.1.4-.2.6l-.6.2-.6-.2c-.1-.2-.2-.4-.2-.6v-.7c-.3.5-.8.9-1.3 1.2s-1.1.4-1.7.4c-.8 0-1.5-.2-2.2-.6-.6-.4-1.1-1-1.4-1.7-.2.7-.7 1.3-1.3 1.8-.6.4-1.3.6-2 .6s-1.5-.2-2.1-.6-1.1-.9-1.4-1.6c-.4-.7-.5-1.6-.5-2.4v-5.8c0-.2.1-.4.2-.6l.6-.2.6.2c.1.2.2.4.2.6v5.8c0 .8.2 1.6.7 2.2.5.5 1.2.8 1.9.8s1.5-.3 2-.8c.6-.6.8-1.4.8-2.2v-5.8c0-.2.1-.4.2-.6l.5-.2.6.2c.1.2.2.4.2.6v5.8c0 .8.2 1.6.7 2.2.5.5 1.2.8 1.9.8s1.5-.3 2-.8c.5-.6.8-1.3.8-2.1v-5.9c0-.2.1-.4.2-.6l.6-.2zm11.5.3c.8.5 1.4 1.1 1.8 1.9a6.71 6.71 0 0 1 .6 2.8c0 .2-.1.4-.2.5l-.5.2H398c.1 2.2 1.9 3.8 4.1 3.7l1.5-.2 1.2-.6.5-.2.4.2a.55.55 0 0 1 .3.5c0 .2-.1.4-.2.5-.5.4-1.1.7-1.7.9-1.6.6-3.3.5-4.8-.3-.8-.5-1.5-1.2-2-2-.5-.9-.7-1.9-.7-2.9s.2-2 .7-2.9c.4-.8 1.1-1.5 1.9-2s1.8-.7 2.7-.7a5.42 5.42 0 0 1 2.5.6zm-5.1 1.6a4.2 4.2 0 0 0-1.2 2.5h7.3c-.1-.9-.4-1.8-1.1-2.5-.7-.6-1.6-1-2.5-.9-1 0-1.9.3-2.5.9z"/><use xlink:href="#B" x="196.3"/><path d="M198.4 30.9c11.8 0 21.4 9.6 21.4 21.4s-9.6 21.4-21.4 21.4S177 64.1 177 52.3s9.6-21.4 21.4-21.4m0-8c-16.2 0-29.4 13.2-29.4 29.4s13.2 29.4 29.4 29.4 29.4-13.2 29.4-29.4-13.2-29.4-29.4-29.4m65.2 8c11.8 0 21.4 9.6 21.4 21.4s-9.6 21.4-21.4 21.4-21.4-9.6-21.4-21.4 9.6-21.4 21.4-21.4m0-8c-16.2 0-29.4 13.2-29.4 29.4s13.2 29.4 29.4 29.4S293 68.5 293 52.3s-13.2-29.4-29.4-29.4m86.8 57.9c-1.1 0-2.2-.5-2.9-1.3l-38.4-41.6v38.7c0 2.2-1.8 4-4 4s-4-1.8-4-4v-49a3.89 3.89 0 0 1 4.1-3.9c1.1 0 2.1.5 2.8 1.2l38.3 41.6V27.6c0-2.2 1.8-4 4-4s4 1.8 4 4v49.2c0 1.6-1 3.1-2.5 3.7zm-187.6.3H124c-2.2 0-4-1.8-4-4V27.9c0-2.2 1.8-4 4-4s4 1.8 4 4v45.2h34.8c2.2 0 4 1.8 4 4s-1.8 4-4 4z"/><path d="M288.2 80.8c-2.2 0-4-1.8-4-4V58.3c0-2.2 1.8-4 4-4s4 1.8 4 4v18.5c0 2.2-1.8 4-4 4zm102.6-25.1c-1 0-2-.4-2.8-1.1l-24.9-24c-1.7-1.5-1.8-4-.4-5.6 1.5-1.7 4-1.8 5.6-.4.1.1.2.1.2.2l24.9 24c1.6 1.5 1.7 4.1.1 5.7-.6.8-1.7 1.2-2.7 1.2z"/><path d="M390.8 55.7c-2.2 0-4-1.7-4-4 0-1.1.4-2.2 1.2-2.9l24.9-24c1.5-1.6 4.1-1.6 5.7-.1s1.6 4.1.1 5.7l-.2.2-24.9 24c-.8.7-1.8 1.1-2.8 1.1z"/><path d="M390.8 80.8c-2.2 0-4-1.8-4-4V50.3c0-2.2 1.8-4 4-4s4 1.8 4 4v26.5c0 2.2-1.8 4-4 4z"/></g><path d="M85.6 36.1c-1.7-1.7-3.6-3.3-5.6-4.8C67 35.5 55.9 44.4 51.6 54c-4.3-9.4-15.9-19.6-28.2-22.4l-1.7.9c-1.4 1.1-2.7 2.3-3.9 3.5C9.4 44.3 4.5 55.6 4.3 67.4v.4c.1 7.3 2 14.5 5.7 20.8l.8 1.3.5.7 5.5 7.2 1.2 1.4.6.6 1 .9.5.4h.1l3.3 3.1 2.9 2.6 25.3 21.8 26.6-23.2 1.2-1.1 5-4.6.3-.2 1-1h.1l.2-.2C94.4 89.5 99 78.6 99 67.8c-.1-11.9-4.9-23.3-13.4-31.7" fill="#fff"/><path d="m77.1 50c-9.3.3-16.6 8-16.3 17.3s8 16.6 17.3 16.3c9-.3 16.2-7.6 16.3-16.7-.1-9.4-7.9-17-17.3-16.9z" fill="#1297cc"/><path d="M77.1 54.7c-6.7.2-12.1 5.8-11.9 12.5S71 79.3 77.7 79.1c6.6-.2 11.9-5.6 11.9-12.2-.1-6.8-5.7-12.3-12.5-12.2" fill="#1a2635"/><use xlink:href="#F" fill="#fff"/><path d="M27.4 50c-9.3 0-16.8 7.5-16.8 16.8s7.5 16.8 16.8 16.8 16.9-7.5 16.9-16.8S36.7 50 27.4 50" fill="#1297cc"/><path d="M27.4 54.7c-6.7 0-12.2 5.5-12.2 12.2s5.5 12.2 12.2 12.2 12.2-5.5 12.2-12.2-5.5-12.2-12.2-12.2" fill="#1a2635"/><use xlink:href="#F" x="-49.7" fill="#fff"/><g fill="#38c5e5"><path d="M87.3 32.8c-19.8-19.3-51.5-19.3-71.3 0C6.3 41.9.8 54.5.8 67.8c0 13 6.1 26.1 16.8 35.8.9 1 9.7 9.1 18.1 16.8l16 14.6 15.9-14.7L88.2 101c9.1-9.7 14.2-21.5 14.2-33.3 0-13.3-5.5-25.9-15.2-35M4.3 67.4c.2-11.8 5.1-23 13.5-31.3 1.2-1.2 2.5-2.4 3.9-3.5l1.7-.9c12.3 2.8 23.9 13 28.2 22.4C55.9 44.4 67 35.5 80 31.3c2 1.5 3.8 3.1 5.5 4.8C94 44.5 98.9 55.9 99 67.8c0 5.7-1.3 11.3-3.6 16.5 0 0-6 12.7-17.8 12.7-6.2-.2-12.2-2.3-17.1-6l-9-11.2-9 11.3s-5.1 6-15.8 6C14.5 97 8.7 84.9 7.6 83.7c-2.1-5-3.3-10.4-3.3-15.9v-.4"/><path d="M51.7 135.8l-.4-.4-15.9-14.5L17.2 104C6.4 94.2.2 81 .2 67.8.3 54.4 5.8 41.6 15.6 32.4c20.1-19.5 52-19.5 72.1 0 9.8 9.2 15.3 22 15.4 35.4 0 11.9-5.1 23.9-14.3 33.7-.8.9-7.8 7.4-20.7 19.3l-16 14.6zm0-116.8c-13.1 0-25.8 5.1-35.2 14.2-9.5 9-14.9 21.4-15 34.5 0 12.8 6.1 25.7 16.6 35.4.8.9 7.1 6.7 18.1 16.8l15.5 14.2 15.5-14.3 20.6-19.3c9.1-9.6 14-21.2 14-32.9-.1-13.1-5.5-25.5-15-34.5C77.4 24 64.8 19 51.7 19zm-25 78.7c-10.8 0-16.6-9.1-18.9-12.6l-.7-1v-.2c-2.2-5.1-3.4-10.6-3.4-16.1v-.4c.2-12 5.1-23.4 13.7-31.8 1.3-1.3 2.6-2.5 4-3.6l1.8-1h.4c12.5 3 23.5 13.1 28 21.7 4.7-9.4 15.7-17.9 28.2-21.9h.3l.2.2c2 1.4 3.9 3 5.7 4.7 8.6 8.5 13.5 20 13.6 32.1 0 5.8-1.2 11.5-3.6 16.8-.1.1-6.3 13.1-18.3 13.1-6.3-.1-12.5-2.3-17.5-6.1H60l-8.5-10.9-8.6 10.7c-.2.3-5.4 6.2-16.2 6.3zM8.2 83.4l.7 1.1c2.1 3.3 7.7 12 17.8 12S42 90.7 42 90.7l9.5-11.9 9.3 11.8c.6.5 7.6 5.8 16.7 5.8 11.3 0 17.2-12.2 17.3-12.4 2.3-5.1 3.5-10.7 3.5-16.3-.1-11.7-4.8-22.9-13.1-31.2-1.7-1.6-3.4-3.1-5.3-4.5-12.6 4.1-23.5 12.8-27.7 22.3l-.5 1.2-.6-1.2c-3.9-8.5-14.9-19-27.6-22L22 33c-1.3 1.1-2.6 2.2-3.8 3.4-8.3 8.2-13.1 19.3-13.3 31v.4c.1 5.4 1.2 10.7 3.3 15.6z"/></g><path d="m42.5 90 9.3 11.2 8.8-11.2-9-11.3z" fill="#1a2635"/><g fill="#1297cc"><path d="m95.7 27.5h-.2c-8.8.1-19.8 3.8-29 8.5-5.5 2.8-13.2 9.8-14.9 11.3-1.7-1.6-9.4-8.5-14.9-11.3-9.2-4.6-20.2-8.4-29-8.5h-.1c-1.7-.1-3.1 1.2-3.3 2.9.2 1.7 1.6 3 3.3 2.9 8.6.4 17 2.5 24.8 6.2 13.5 6.6 18 14.4 19.2 16.8 1.2-2.4 5.8-10.2 19.2-16.8 7.8-3.7 16.2-5.8 24.8-6.2 1.7.1 3.2-1.1 3.4-2.8-.2-1.7-1.6-3-3.3-2.9"/><path d="m95.7 26.9h-.2c-8.8.1-19.8 3.8-29 8.5-5.5 2.7-13.2 9.7-14.9 11.3-1.7-1.6-9.4-8.5-14.9-11.3-9.2-4.6-20.2-8.4-29-8.5h-.1c-1.7-.1-3.1 1.2-3.3 2.9.2 1.7 1.6 3 3.3 2.9 8.6.4 17 2.6 24.8 6.3 13.5 6.6 18 14.4 19.2 16.8 1.2-2.4 5.8-10.2 19.2-16.8 7.8-3.7 16.2-5.8 24.8-6.2 1.8.1 3.3-1.2 3.4-3-.2-1.7-1.6-3-3.3-2.9"/></g><defs ><path id="B" d="m223.1 108c.1.1.2.3.2.5v9.4c0 .2-.1.4-.2.6l-.6.2-.5-.2c-.1-.2-.2-.4-.2-.6v-.7c-.4.5-1 .9-1.6 1.2s-1.3.4-2 .4c-.9 0-1.7-.2-2.5-.6s-1.4-1-1.8-1.7c-.4-.8-.6-1.8-.6-2.7v-5.2c0-.2.1-.4.2-.5l.5-.2.6.2c.1.1.2.3.2.5v5.2c-.1 1 .3 2 1 2.7.7.6 1.6 1 2.6.9.6 0 1.2-.1 1.8-.4.5-.2 1-.6 1.3-1s.5-1 .5-1.5v-5.9c0-.2.1-.4.2-.5l.5-.2zm-6.5-2c-.5-.2-.9-.5-1.2-.9s-.5-.8-.5-1.3c0-.2.1-.4.2-.6l.5-.2.5.2c.1.2.2.4.2.6 0 .4.2.7.6.9.9.5 2 .5 2.9 0 .4-.2.6-.5.6-.9 0-.2.1-.4.2-.6l.5-.2.5.2c.1.2.2.4.2.6 0 .5-.2.9-.5 1.3s-.7.7-1.2.9c-1.1.4-2.4.4-3.5 0z"/><path id="C" d="m247.6 105.3c-.2-.2-.3-.5-.3-.8s.1-.6.3-.8.5-.3.8-.3.6.1.8.3.3.5.3.8c0 .6-.5 1.1-1.1 1.1-.3 0-.6-.1-.8-.3zm.2 13.1c-.1-.2-.2-.4-.2-.6v-9.4c0-.2.1-.4.2-.6l.6-.2.5.2c.1.2.2.4.2.6v9.4c0 .2-.1.4-.2.6l-.5.2z"/><path id="D" d="m292.6 108.4c.8.5 1.5 1.2 2 2 .5.9.7 1.9.7 2.9v4.1c0 1-.2 2-.7 2.9-.5.8-1.2 1.5-2 2s-1.8.8-2.8.8c-.9 0-1.9-.2-2.7-.6s-1.5-.9-2-1.6c-.1-.1-.2-.3-.2-.5s.1-.4.3-.5h.8l.3.2c.4.5.9.9 1.5 1.2.7.3 1.4.4 2.1.4 1.5 0 2.8-.8 3.5-2.1.4-.7.5-1.5.5-2.3v-.9c-.4.8-1 1.4-1.7 1.8-.8.4-1.6.6-2.5.6-1 0-1.9-.2-2.8-.7-.8-.5-1.5-1.2-1.9-2-.5-.9-.7-1.9-.7-2.9s.2-2 .7-2.9c.5-.8 1.2-1.5 2-2 1.8-.9 3.9-.9 5.6.1zm-.8 8.5c.6-.4 1.1-.9 1.4-1.5.7-1.3.7-3 0-4.3-.3-.6-.8-1.1-1.4-1.5-1.3-.7-2.9-.7-4.2 0-.6.4-1.1.9-1.4 1.5-.7 1.3-.7 3 0 4.3.3.6.8 1.1 1.4 1.5 1.3.7 2.9.7 4.2 0z"/><path id="E" d="m320.8 118.1c-.8-.5-1.5-1.2-2-2-1-1.8-1-3.9 0-5.7.5-.8 1.2-1.5 2-2 1.8-1 3.9-1 5.7 0 .8.5 1.5 1.2 2 2 1 1.8 1 3.9 0 5.7-.5.8-1.2 1.5-2 2-1.8 1-3.9 1-5.7 0zm4.9-1.2c.6-.4 1.1-.9 1.4-1.5.7-1.3.7-3 0-4.3-.3-.6-.8-1.1-1.4-1.5-1.3-.7-2.9-.7-4.2 0-.6.4-1.1.9-1.5 1.5-.7 1.3-.7 3 0 4.3.4.6.9 1.1 1.5 1.5 1.3.7 2.9.7 4.2 0z"/><path id="F" d="m81.2 63.3c1.8 1.8 4.6.5 6.9-2.1 3.7-4.4 3-5.7 1.6-7s-2.8-1.9-6.9 2.1c-2.4 2.4-3.3 5.2-1.6 7"/></defs></svg>