<svg xmlns="http://www.w3.org/2000/svg" width="146" height="63" fill="none" xmlns:v="https://vecta.io/nano"><path d="M97.501 0L99 .632 72.502 63 71 62.368 97.501 0z" fill="url(#A)"/><path d="M14.771 37.768l-3.516 3.857V51H2.686V15.453h8.569v15.674l2.979-4.517 7.666-11.157h10.596L20.483 31.176 32.495 51H22.339l-7.568-13.232zm54.278-22.315V38.72c0 2.637-.561 4.923-1.684 6.86-1.123 1.921-2.734 3.385-4.834 4.395s-4.582 1.514-7.446 1.514c-4.329 0-7.739-1.123-10.23-3.369s-3.76-5.322-3.809-9.229V15.453h8.618v23.608c.098 3.89 1.904 5.835 5.42 5.835 1.774 0 3.117-.488 4.028-1.465s1.367-2.563 1.367-4.761V15.453h8.569z" fill="url(#B)"/><path d="M103.53 36h-2.43l1.47-20.22h3.09l2.67 7.38 3.24 9.42 3.42-9.42 2.79-7.38h3.09L122.64 36h-2.43l-.69-7.98-.72-8.97-3.27 8.97-2.82 7.53h-2.31l-2.67-7.53-3.06-8.79c0 .78-.19 3.71-.57 8.79l-.57 7.98zm40.783-10.2c0 3.18-.82 5.72-2.46 7.62-1.62 1.88-3.82 2.82-6.6 2.82-2.74 0-4.94-.95-6.6-2.85s-2.49-4.43-2.49-7.59c0-3.18.81-5.71 2.43-7.59 1.64-1.88 3.85-2.82 6.63-2.82 2.84 0 5.06.94 6.66 2.82 1.62 1.86 2.43 4.39 2.43 7.59zm-15.6 0c0 2.5.59 4.48 1.77 5.94 1.2 1.46 2.79 2.19 4.77 2.19 2.06 0 3.65-.72 4.77-2.16 1.14-1.44 1.71-3.43 1.71-5.97s-.57-4.53-1.71-5.97-2.74-2.16-4.8-2.16c-2.04 0-3.64.73-4.8 2.19-1.14 1.44-1.71 3.42-1.71 5.94z" fill="#000"/><defs><linearGradient id="A" x1="85.001" y1="63.001" x2="85.001" y2="0" gradientUnits="userSpaceOnUse"><stop stop-color="#57c533"/><stop offset="1" stop-color="#25bb51"/></linearGradient><linearGradient id="B" x1="36.002" y1="63.004" x2="36.002" y2="4.006" gradientUnits="userSpaceOnUse"><stop stop-color="#57c533"/><stop offset=".708" stop-color="#34be48"/><stop offset="1" stop-color="#25bb51"/></linearGradient></defs></svg>