<svg xmlns="http://www.w3.org/2000/svg" viewBox="0 0 496.7 147.8" width="800" height="238" xmlns:v="https://vecta.io/nano"><path d="M27.33 0h205.45c8.17 2.28 16.42 6.19 21.14 13.58 3.86 5.48 5.28 12.28 5.16 18.91q0 34.77 0 69.53c-.33 3.52 1.94 6.37 3.71 9.18l24 36.61h-261C19.01 146 12.09 143 7.56 137.28a31 31 0 0 1-7.57-15.42v-94.5c1.34-5.26 3.01-10.63 6.34-15 4.92-6.91 13-10.51 21-12.36zm258.43 37.38h37.44c-.12 3.4-.13 6.8 0 10.2-8.56.34-17.13.13-25.69.16 0 17.37.44 34.78-.22 52.14q-5.74-.13-11.51 0l-.02-62.5zm201.43 3.21c3.39-1.85 8.51-.57 9.48 3.43v4.57c-1 4.46-5.31 5.31-8.48 4.21-5.54-1.24-6.18-9.98-1-12.21zM311.82 58q5.39 0 10.79 0v5.44c4.72-5.9 12.93-7.88 20-5.51 8.13 2.91 11.72 12.34 11.44 20.4.37 8.23-3.95 16.91-11.71 20.27-6 2.91-12.79 2.32-19 .61q-.18 9.67 0 19.33c-3.87.13-7.76.15-11.63.1l.11-60.64zm11.69 11.59c-.47 7.42 0 14.87-.18 22.31 5.26 1.21 11.87 2 15.86-2.53 4.15-5.35 4.3-13.21 1.52-19.22-2.98-6.51-13.67-6.5-17.2-.54zm51.01-11.23c7.11-2.47 15.54-2.13 22.08 1.79 11.77 7.6 11.88 27.43.43 35.36-7.6 4.91-18 4.88-25.84.46-13.46-8.21-11.86-32.2 3.33-37.61zm4.45 7.14c-6.43 3.84-6.58 13.13-4.49 19.51 1.83 7.57 13.73 9 17.43 2.29 3-5.16 3-11.88.78-17.32-2.04-5.27-8.96-7.08-13.72-4.48zm34.21-8.32q5.48 0 11 .06c-.25 10.89-.15 21.8-.07 32.7h14.69q-.13-16.34 0-32.68h11q.13 16.34 0 32.7l14.69.1V57.33c3.71-.12 7.44-.12 11.16.06q-.27 21.11 0 42.2c-20.81.46-41.64.13-62.47.16V57.18zm71.42.82l12.06.12v41.15h-12.08L484.6 58z" fill="#56c2f1"/><path d="M41.33 53.18c9.77-11.47 27-11.93 40.3-7.2a166.73 166.73 0 0 1-1.63 9c-7.91-1.77-16.75-3.16-24.24.77-4.55 2.42-7.11 7.3-7.58 12.33 7.94.28 15.88.09 23.81.25-.06 3.19-.06 6.39 0 9.58-7.89-.07-15.8-.3-23.68.25.84 4.48 2.82 9 7 11.32 7.51 4.2 16.66 2.91 24.63.83l1.92 8.82c-11.32 4.32-25 4.67-35.42-2.17-13.81-9.47-15.11-31.12-5.11-43.78zm47.79 6.38c8.51.4 17.07-.34 25.57.43 5.06.55 11.38 3.55 10.85 9.56.8 5.72-4.88 8.31-8.8 11 3.8 1 8.28 1.85 10 5.57a14 14 0 0 1-.84 8.9c-2.54 4.23-7.79 5.81-12.43 6.25-8.12.44-16.25-.1-24.38.3q.14-21.02.03-42.01zm12.64 8q0 4.79 0 9.59c4.17-.12 11.35.95 12-4.8.2-6.35-7.91-4.65-12.01-4.77zm0 16.25q-.07 4.83-.06 9.64c4.29-.22 12.67 1.86 12.68-4.76s-8.25-4.77-12.6-4.86zm32.68-24.27a363.13 363.13 0 0 0 11.43.07l.33 5.37c3.46-2.85 7.17-6.12 12-6.08 8-1 14.86 5.59 16.82 12.9 2.62 9.42.69 21.43-8.14 27-6 4.08-13.53 3.12-20.35 2.9l-.16 17.66q-6-.07-11.91 0c-.64-19.92-.73-39.91-.02-59.82zm16.84 9c-1.82.67-4.49 1.77-4.46 4.06-.15 6.59-.25 13.25.19 19.82 4.85 1.45 11.4 1.24 14.28-3.59s2.53-10.82.8-15.86c-1.47-4.4-6.76-5.55-10.82-4.41zm45.85-8.78c7-1.8 14.9-1.06 21 3 11.88 8.46 11.1 29.59-2 36.56-8.29 4.21-19.22 3.59-26.74-2-12.37-10.06-8.6-33.89 7.74-37.56zm3 8.8c-6.49 4.09-6.74 13.91-3.53 20.18 2.9 6.39 13.16 5.78 15.86-.46a20.07 20.07 0 0 0 0-15.48c-1.82-4.8-7.99-6.18-12.33-4.24z" fill="#fff"/></svg>