<svg xmlns="http://www.w3.org/2000/svg" width="639.1" height="166.7" xmlns:v="https://vecta.io/nano"><defs><radialGradient id="A" cx=".695" cy=".165" r="1.038" gradientTransform="matrix(-0.201, 0.979, -0.965, -0.204, 0.994, -0.482)"><stop offset="0" stop-color="#f26922"/><stop offset=".553" stop-color="#aa3694"/><stop offset="1" stop-color="#61399b"/></radialGradient></defs><g fill-rule="evenodd"><path d="M44.458 51.877h24.119l16.666 47.782h.2l16.766-47.782h24.019V125.1h-15.949V68.942h-.2l-19.012 56.152H78.902L60.607 68.942h-.206v56.152H44.458zm190.048 0h21.668l30.765 50.883h.206V51.877h15.949V125.1h-20.856l-31.58-52.128h-.206V125.1h-15.951V51.877zm88.172 0h49.165v14.894h-33.216v13.648h31.376v14.894h-31.376v14.893h35.055V125.1h-51zm82.042 14.271h-20.645V51.877h57.24v14.271H420.67V125.1h-15.95V66.148zm49.543-14.271h15.944v30.4l28.109-30.4h20.851l-32.2 34.027 34.955 39.2h-22.283l-29.431-34.75v34.75h-15.95V51.877zm101.254 0h13.187l31.482 73.223h-17.988l-6.24-15.511h-28.1l-6.03 15.51h-17.587l31.276-73.222zm6.135 21.307l-8.794 22.751h17.683z" fill="#6d5bcd"/><path d="M215.992 71.367h-19.475c-1.958-2.017-4.306-3.616-6.9-4.7a23.44 23.44 0 0 0-9.247-1.756c-3.171-.046-6.319.551-9.253 1.756a20.84 20.84 0 0 0-7.1 4.913 21.62 21.62 0 0 0-4.546 7.5c-1.077 3.019-1.613 6.203-1.584 9.408l.033 1.556h-16.576q-.023-.777-.022-1.555c-.076-5.448.913-10.858 2.912-15.927 1.821-4.579 4.59-8.721 8.125-12.154 3.551-3.389 7.762-6.01 12.371-7.7 5.006-1.839 10.305-2.751 15.638-2.692 5.333-.057 10.631.854 15.638 2.69 4.607 1.69 8.816 4.312 12.365 7.7a34.62 34.62 0 0 1 7.613 10.959zm3.3 13.615a48.58 48.58 0 0 1 .122 3.507c.076 5.448-.914 10.858-2.913 15.927-1.823 4.579-4.593 8.721-8.13 12.154-3.549 3.388-7.758 6.01-12.365 7.7-5.007 1.836-10.305 2.747-15.638 2.69-5.333.057-10.631-.854-15.638-2.69-4.609-1.69-8.82-4.311-12.371-7.7-3.689-3.58-6.542-7.928-8.358-12.737h18.678a20.75 20.75 0 0 0 8.436 6.48c2.935 1.202 6.082 1.8 9.253 1.756 3.169.048 6.315-.549 9.247-1.753a20.81 20.81 0 0 0 7.108-4.913c2.002-2.15 3.548-4.684 4.546-7.447 1.085-3.036 1.622-6.24 1.584-9.464.002-1.172-.065-2.343-.2-3.507h16.639z" fill="url(#A)"/></g></svg>