<svg xmlns="http://www.w3.org/2000/svg" fill="none" width="180" height="32" xmlns:v="https://vecta.io/nano"><path d="M54.056 26.833c0 .694-.204 1.252-.613 1.672-.403.42-.944.63-1.621.63s-1.221-.21-1.63-.63-.613-.977-.613-1.672c0-.689.207-1.243.622-1.663s.96-.63 1.638-.63c.666 0 1.201.21 1.604.63.409.42.613.974.613 1.663zm-1.193-.008c0-.431-.095-.767-.286-1.008a.91.91 0 0 0-.773-.37c-.319 0-.571.123-.756.37s-.277.585-.277 1.016c0 .442.092.787.277 1.033a.91.91 0 0 0 .773.37c.33 0 .585-.123.764-.37.185-.252.277-.599.277-1.042zM59.997 29h-1.184v-1.823h-1.672V29h-1.184v-4.334h1.184v1.571h1.672v-1.571h1.184zm6.054 0h-1.184v-3.419h-1.142l-.05 1.529-.017.403a3.68 3.68 0 0 1-.05.386c-.022.162-.05.294-.084.395-.034.095-.087.204-.16.328-.067.118-.148.21-.244.277a1.3 1.3 0 0 1-.353.16c-.146.05-.308.076-.487.076-.291 0-.507-.028-.647-.084v-.949c.14.028.252.042.336.042.342 0 .521-.3.538-.899l.067-2.579h3.478zm6.079 0h-1.21a1.87 1.87 0 0 1-.084-.42c-.364.364-.832.546-1.403.546-.482 0-.86-.115-1.134-.344-.274-.235-.412-.557-.412-.966a1.6 1.6 0 0 1 .067-.487.85.85 0 0 1 .235-.353 3.03 3.03 0 0 1 .311-.235c.101-.062.238-.112.412-.151l.42-.084a5.29 5.29 0 0 1 .445-.067c.42-.056.7-.115.84-.176a.34.34 0 0 0 .218-.344c0-.386-.26-.58-.781-.58-.274 0-.476.05-.605.151-.129.095-.213.266-.252.512H68.08c.067-.974.736-1.462 2.008-1.462 1.26 0 1.89.47 1.89 1.411v1.873c0 .549.05.941.151 1.176zm-1.302-2.108c-.14.084-.42.16-.84.227-.353.056-.582.126-.689.21-.123.106-.185.252-.185.437 0 .179.056.322.168.428.118.101.28.151.487.151.319 0 .574-.084.764-.252.196-.174.294-.412.294-.714zm6.125-3.872h.47c0 .806-.456 1.21-1.369 1.21s-1.369-.403-1.369-1.21h.47c.073.37.372.554.899.554s.826-.185.899-.554zM78.08 29h-1.142v-2.932L75.392 29H74.04v-4.334h1.142v2.932l1.546-2.932h1.352zm6.079 0h-1.184v-1.823h-1.672V29h-1.184v-4.334h1.184v1.571h1.672v-1.571h1.184zm9.887 0h-1.445l-1.252-1.865-.529.538V29h-1.168v-4.334h1.168v1.714l1.588-1.714h1.403l-1.68 1.68zm2.622-4.334v.538c.314-.437.762-.655 1.344-.655s1.05.21 1.403.63.529.98.529 1.68c0 .678-.174 1.224-.521 1.638-.342.409-.795.613-1.361.613-.582 0-1.028-.216-1.336-.647v2.075h-1.184v-5.872zm1.05.84c-.325 0-.58.118-.764.353s-.269.563-.269.983.092.748.277.983.44.353.764.353.568-.118.748-.353.277-.557.277-.966c0-.42-.092-.75-.277-.991a.9.9 0 0 0-.756-.361zm8.133 2.15c-.134.465-.383.826-.747 1.084-.359.258-.787.386-1.285.386-.667 0-1.204-.207-1.613-.622-.403-.414-.605-.963-.605-1.646 0-.672.204-1.226.613-1.663s.93-.655 1.563-.655c.655 0 1.176.224 1.562.672.386.442.58 1.044.58 1.806v.118h-3.108c.005.375.095.661.268.857.18.196.429.294.748.294.42 0 .714-.21.882-.63zm-1.142-1.277c-.028-.286-.12-.518-.277-.697-.157-.185-.375-.277-.655-.277a.89.89 0 0 0-.656.26c-.173.174-.277.412-.31.714zm7.54 3.898h-1.117V29h-2.856v1.277h-1.118v-2.192h.521c.14-.269.266-.661.378-1.176s.168-1.011.168-1.487v-.756h3.461v3.419h.563zm-1.747-2.192v-2.537h-1.168v.109c0 .42-.053.865-.16 1.336-.1.465-.21.829-.327 1.092zm7.483.916h-1.142v-2.932L115.297 29h-1.352v-4.334h1.142v2.932l1.546-2.932h1.352zm5.693-3.419h-1.428V29h-1.184v-3.419h-1.428v-.916h4.04zm5.821-.916h1.184V29h-1.184zm-.546 2.906c0 .465-.151.82-.454 1.067-.297.241-.691.361-1.184.361h-2.067v-4.334h1.176v1.487h.941c.459 0 .837.123 1.134.37.303.246.454.596.454 1.05zm-2.529-.613v1.218h.605c.482 0 .723-.202.723-.605 0-.202-.068-.353-.202-.454-.134-.106-.311-.16-.529-.16zM140.128 29h-1.184v-1.823h-1.672V29h-1.184v-4.334h1.184v1.571h1.672v-1.571h1.184zm6.054 0h-1.209a1.87 1.87 0 0 1-.084-.42c-.364.364-.832.546-1.403.546-.482 0-.86-.115-1.134-.344-.274-.235-.412-.557-.412-.966a1.59 1.59 0 0 1 .068-.487.84.84 0 0 1 .235-.353 2.89 2.89 0 0 1 .311-.235c.096-.061.238-.112.411-.151l.42-.084a5.35 5.35 0 0 1 .445-.067c.42-.056.7-.115.84-.176a.34.34 0 0 0 .219-.344c0-.386-.261-.58-.781-.58-.275 0-.476.05-.605.151-.129.095-.213.266-.252.512h-1.117c.067-.974.736-1.462 2.007-1.462 1.26 0 1.89.47 1.89 1.411v1.873c0 .549.051.941.151 1.176zm-1.302-2.108c-.14.084-.42.16-.84.227-.352.056-.582.126-.688.21-.124.106-.185.252-.185.437 0 .179.056.322.168.428.117.101.28.151.487.151.319 0 .574-.084.764-.252.196-.174.294-.412.294-.714zM155.939 29h-1.445l-1.252-1.865-.529.538V29h-1.168v-4.334h1.168v1.714l1.588-1.714h1.402l-1.68 1.68zm5.528 0h-1.209c-.04-.112-.068-.252-.084-.42-.364.364-.832.546-1.403.546-.482 0-.86-.115-1.134-.344-.275-.235-.412-.557-.412-.966 0-.185.023-.347.067-.487.051-.14.129-.258.236-.353a3.05 3.05 0 0 1 .31-.235c.101-.062.238-.112.412-.151l.42-.084a5.28 5.28 0 0 1 .445-.067c.42-.056.7-.115.84-.176a.34.34 0 0 0 .219-.344c0-.386-.261-.58-.782-.58-.274 0-.476.05-.604.151-.129.095-.213.266-.252.512h-1.118c.068-.974.737-1.462 2.008-1.462 1.26 0 1.89.47 1.89 1.411v1.873c0 .549.05.941.151 1.176zm-1.302-2.108c-.14.084-.42.16-.84.227-.353.056-.582.126-.689.21-.123.106-.184.252-.184.437 0 .179.056.322.168.428.117.101.28.151.487.151.319 0 .574-.084.764-.252.196-.174.294-.412.294-.714zm4.319-2.226v.538c.314-.437.762-.655 1.344-.655s1.05.21 1.403.63.529.98.529 1.68c0 .678-.173 1.224-.521 1.638-.341.409-.795.613-1.36.613-.583 0-1.028-.216-1.336-.647v2.075h-1.184v-5.872zm1.05.84c-.325 0-.579.118-.764.353-.179.235-.269.563-.269.983s.092.748.277.983.44.353.765.353c.319 0 .568-.118.747-.353.185-.235.277-.557.277-.966 0-.42-.092-.75-.277-.991a.9.9 0 0 0-.756-.361zm7.583.076h-1.428V29h-1.184v-3.419h-1.428v-.916h4.04zm5.569-.916l-1.596 4.318-.177.454a3.8 3.8 0 0 1-.168.37c-.072.157-.142.266-.21.328a1.94 1.94 0 0 1-.26.21c-.106.078-.23.132-.37.16-.134.028-.291.042-.47.042a77.68 77.68 0 0 1-.798-.008v-.983h.58c.196 0 .344-.05.445-.151s.159-.244.159-.428a.56.56 0 0 0-.033-.168l-1.571-4.141h1.285l.991 2.948.958-2.948zM50.521 20.575V2.87h3.573l5.179 7.399 5.18-7.399h3.572v17.704h-3.231V7.492l-5.536 7.832-5.537-7.832V20.59h-3.199v-.015zM70.734 2.87h3.897l4.741 7.19 4.724-7.19h3.897l-6.998 10.11v7.593h-3.231V12.98z" fill="#003764"/><path d="M90.492 15.534c-.341-1.091-.503-2.374-.503-3.819s.161-2.729.503-3.819.78-1.974 1.316-2.634 1.185-1.188 1.948-1.589c.763-.418 1.511-.69 2.224-.818.73-.144 1.51-.209 2.354-.209 1.835 0 3.638.353 5.423 1.043v2.986c-1.705-.77-3.409-1.172-5.147-1.172-.811 0-1.494.064-2.062.208a4.77 4.77 0 0 0-1.672.818c-.552.402-.957 1.045-1.251 1.91s-.42 1.96-.42 3.26c0 1.315.145 2.405.42 3.257.277.866.699 1.492 1.251 1.911.552.402 1.104.674 1.672.819s1.269.208 2.062.208c1.722 0 3.442-.384 5.147-1.172v2.97c-1.786.706-3.603 1.059-5.423 1.059-.844 0-1.624-.065-2.354-.21s-1.462-.416-2.224-.817c-.762-.417-1.412-.946-1.948-1.589-.535-.627-.974-1.509-1.316-2.602zm17.047 5.041V2.87h6.885c2.095 0 3.734.497 4.887 1.476 1.169.979 1.754 2.393 1.754 4.222 0 2.698-1.315 4.446-3.929 5.234l4.708 6.773h-3.897l-4.269-6.244h-2.89v6.244zm3.232-9.166h3.572c1.087 0 1.947-.191 2.564-.577s.926-1.107.926-2.181c0-1.092-.309-1.831-.926-2.2-.617-.385-1.477-.561-2.564-.561h-3.572zm14.304 9.166V2.87h11.917v2.856h-8.685v4.477h7.532v3.002h-7.532v4.479h8.685v2.855h-11.917zm15.781 0V2.87h6.186c2.775 0 4.871.754 6.317 2.264 1.428 1.508 2.157 3.707 2.157 6.613 0 2.889-.713 5.088-2.142 6.579-1.428 1.51-3.539 2.264-6.316 2.264h-6.201v-.015zm3.215-2.857h2.954c1.868 0 3.199-.467 4.011-1.397s1.233-2.456 1.233-4.574c0-2.133-.405-3.676-1.233-4.608-.813-.929-2.16-1.396-4.011-1.396h-2.954zm15.39 2.857V2.87h3.233v17.704zm5.862-14.512V2.87H180v3.193h-5.748v14.511h-3.231V6.063z" fill="#0055b8"/><path d="M30.206 1.517C29.594.682 28.238 0 27.195 0H1.897C.853 0 0 .843 0 1.875v2.971h32.652z" fill="#003764"/><path d="M39 13.483l-3.992-5.431H0v20.073C0 29.157.853 30 1.897 30h25.3c1.043 0 2.398-.684 3.011-1.517l8.795-11.966c.612-.836.612-2.2-.001-3.034zM6.626 25.89H5.134c-.826 0-1.493-.663-1.493-1.477s.667-1.476 1.493-1.476h1.492c.826 0 1.493.661 1.493 1.476s-.666 1.477-1.493 1.477zm11.63 0h-6.33c-.825 0-1.492-.663-1.492-1.477s.666-1.476 1.492-1.476h6.33c.825 0 1.492.661 1.492 1.476s-.667 1.477-1.492 1.477zm.31-7.378H5.134c-.826 0-1.493-.662-1.493-1.476s.667-1.477 1.493-1.477h13.431c.826 0 1.492.663 1.492 1.477s-.667 1.476-1.492 1.476z" fill="#0055b8"/></svg>