<svg xmlns="http://www.w3.org/2000/svg" viewBox="0 0 571 120" xmlns:v="https://vecta.io/nano"><path d="M171.77 97.81c-5.1 1.35-11.77.42-15-2.6l-4 22.71h-17.45l12.81-72.5h13.54l.31 5.73c5-6.77 15.1-7.4 20.83-4.69 7.19 3.33 11.77 11.46 11.77 20.83 0 13.54-8.85 26.77-22.81 30.52zm-12.81-15c9.27 5.31 17.92-3 17.92-13.54 0-6.15-2.92-9.48-8.65-9.48-2.03.19-3.95.99-5.52 2.29l-3.75 20.73zm87.5-41.36h-20l-10 56.77h-18.75l12.81-72.91h57.4l-12.81 72.92h-18.65l10-56.78zm44.69 58.03c-14 0-23.85-8.65-23.85-22.92.02-19.06 15.94-32.58 33.65-32.58 14.17 0 24 9.17 24 23.33-.05 18.94-15.78 32.17-33.8 32.17zm1.88-15.31c6.25 0 13.23-4.06 14.27-14 .83-7.6-3.12-10.62-9.17-10.62s-12.29 5.52-13.23 14c-.83 7.28 3.23 10.61 8.13 10.61v.01zm39.69-3.76c2.68 3.21 6.76 4.92 10.93 4.57 8.12-.31 8.33-7.5 1.35-7.5h-9.27l2.29-12.6h8c7.5 0 8.23-6.88 1.35-6.88-3.54 0-6.77.21-10.63 2.92l-5.21-9c6.03-5.77 14.16-8.82 22.5-8.44 7.08.31 13.33 4.06 15.21 10.21 1.67 5.52-1.15 14.38-7.71 17 7.4 3.65 7.5 12.92 2.29 20-5 6.87-13.75 9.27-21.56 9.27-7.08 0-14.48-1.77-19.58-9.38l10.04-10.17zm80.52-13.64l-7.5 10.83-17.6 20.63h-18.13l9.31-52.82h17l-3.12 17.71-2.81 12.5.31.1 6.25-9.58 16.77-20.73h19.9l-9.27 52.81h-17l3.49-19.24 2.71-12.08-.31-.13zm70.94 31.46h-19.06l-9.17-19.9-2.71 2-3.12 17.9h-17.4l9.27-52.81h17.4l-3.33 19.06c1.67-3.75 6.77-8.75 8-10l8.65-9.06h19.69l-.21 1.25-22.28 20.51 14.48 29.8-.21 1.25zm33.65 0l-.83-5.31a19.72 19.72 0 0 1-14.27 6.56c-11.56 0-16.46-7.5-16.46-15.52 0-17.29 21.88-23.75 33.75-18.23l.31-1.67c1.35-7.4-15.1-6.46-22-2.4l-3.11-11.25c7.92-5.63 15.42-6.88 22.5-6.88 12.19 0 22.71 6.15 20 21.77l-5.83 32.92-14.06.01zm-9-13.23c3.01.1 5.97-.77 8.44-2.5l1-5.73c-2-1-5.31-1.35-7.5-1.35-7.94-.01-10.03 9.56-1.9 9.56l-.04.02zM67.58 45.48l-1.34 2.33-5.83 12h-.31l-1.46-11.83-6.77-22.67h-20.1l-.1.63 16.65 48.74c-2.71 5.73-4.79 8.65-9.58 8.65h-5.83l-2.59 14.9h7.6c12.49 0 18.4-4.69 22.8-11.25l25.8-41.5H67.58zm77.1 0h-19.75l-8.58 9c-1.25 1.25-6.35 6.25-8 10l3.32-19H94.26L85 98.23h17.4l3.13-17.92 2.71-2 9.17 19.9h19.06l.21-1.25-14.49-29.78 22.29-20.52.2-1.18z" fill="#59bbf2"/><path d="M128.32 37.98H75.74c-1.02 0-1.84-.82-1.84-1.84 0-.31.08-.62.23-.89l7.19-12.88c.32-.59.94-.95 1.61-.95h52.55c1.02 0 1.84.82 1.84 1.84 0 .31-.08.62-.23.89l-7.17 12.9c-.32.58-.94.93-1.6.93zm10.46-19.61H86.23c-1.02 0-1.84-.82-1.84-1.84 0-.31.08-.62.23-.89l7.17-12.9c.32-.59.94-.95 1.61-.95h52.55c1.02 0 1.84.82 1.84 1.84 0 .31-.08.62-.23.89l-7.17 12.9c-.32.59-.94.95-1.61.95z" fill="#fde044"/></svg>