<svg xmlns="http://www.w3.org/2000/svg" viewBox="0 0 176.78 57.74" fill="#356fcc" xmlns:v="https://vecta.io/nano"><path d="M82.22 21.11v7.33l-1.78-.1c-4.38 0-7.28 2.39-7.28 7.63V48.9h-7.94V21.52h7.58v3.61c1.94-2.64 5.2-4.02 9.42-4.02zM86 13.27c0-2.49 2-4.42 4.93-4.42s4.94 1.83 4.94 4.27c0 2.65-2 4.58-4.94 4.58S86 15.77 86 13.27zm1 8.25h7.94V48.9H87zm42.45 0L117.9 48.9h-8.2L98.2 21.52h8.2l7.6 18.62 7.84-18.62zm31.25 11.7V48.9h-7.94V34.44c0-4.42-2-6.46-5.55-6.46-3.82 0-6.56 2.34-6.56 7.38V48.9h-7.94V21.52h7.58v3.2a12 12 0 0 1 9.06-3.61c6.46 0 11.35 3.77 11.35 12.11zm6.21-19.95c0-2.49 2-4.42 4.93-4.42s4.94 1.83 4.94 4.27c0 2.65-2 4.58-4.94 4.58s-4.93-1.93-4.93-4.43zm1 8.25h7.93V48.9h-7.93zM48.5 0H9.24A9.27 9.27 0 0 0 0 9.24V48.5a9.26 9.26 0 0 0 9.24 9.24H48.5a9.26 9.26 0 0 0 9.24-9.24V9.24A9.26 9.26 0 0 0 48.5 0zM31.65 40.86a13.77 13.77 0 0 0 6.75-1.61v-11h7.92v15.2a25.89 25.89 0 0 1-15.15 4.76c-11.77 0-20.44-8.08-20.44-19.37S19.4 9.5 31.33 9.5c6.59 0 12 2.25 15.68 6.48l-5.56 5.13a12.69 12.69 0 0 0-9.69-4.23c-7.28 0-12.25 4.87-12.25 12s4.97 11.98 12.14 11.98z"/></svg>