<svg xmlns="http://www.w3.org/2000/svg" width="282" height="75" fill="none" xmlns:v="https://vecta.io/nano"><g clip-path="url(#A)"><path d="M15.387 8.454C3.551 13.66-2.573 26.856 1.03 39.279c.978 3.402 2.11 6.804 3.345 10.258s2.573 6.804 4.014 10.052C13.586 71.444 26.76 77.629 39.213 73.97c3.396-.979 6.793-2.113 10.24-3.35s6.793-2.577 10.035-4.021a25.8 25.8 0 0 0 14.357-30.876c-.978-3.402-2.11-6.804-3.345-10.258s-2.573-6.804-4.014-10.051C61.289 3.557 48.064-2.577 35.662 1.031c-3.396.979-6.793 2.113-10.241 3.351s-6.793 2.629-10.035 4.072z" fill="#5b4293"/><path d="M34.272 60.567l-4.889 1.804c-1.955.722-4.168-.309-4.837-2.268l-7.667-21.134 8.439-3.093 8.954 24.691zm14.409-5.206l-8.491 3.093-8.954-24.742 8.491-3.093 8.954 24.742zm10.91-3.969l-4.889 1.804-9.005-24.742 8.491-3.093 7.668 21.134c.72 1.959-.309 4.175-2.264 4.897zm-7.256-32.165L14.306 33.093l-1.595-4.433c-.72-1.959.309-4.175 2.264-4.845l30.876-11.237c1.955-.722 4.168.309 4.837 2.268l1.647 4.381z" fill="#8dc046"/><g fill="#5b4293"><path d="M86.401 16.598h7.668v28.299h3.499V16.598h7.667v-3.299H86.401v3.299zm40.139 5.722c0-2.887-.978-5.155-2.882-6.804-1.698-1.495-4.374-2.216-7.976-2.216h-5.712v31.65h3.499V31.186h3.088c3.344 0 5.866-.876 7.513-2.577 1.646-1.753 2.47-3.866 2.47-6.289zm-5.249 4.021c-1.184 1.031-2.83 1.495-4.889 1.495h-2.882V16.598h2.625c4.631 0 6.947 1.856 6.947 5.515-.052 1.804-.618 3.196-1.801 4.227zm1.749 18.556h3.86l3.859-9.021h13.534l3.86 9.021h3.551l-14.152-33.144-14.512 33.144zm9.109-12.32l5.352-12.526 5.403 12.526h-10.755zm48.578 9.021V13.299h-19.246v15.722c0 3.608-.36 6.392-1.132 8.299-.515 1.289-1.184 2.32-2.11 3.093-.875.825-1.853 1.186-2.933 1.186v3.299h31.39l-2.418-3.299h-3.551zm-3.499 0h-15.747c1.081-1.082 1.853-2.32 2.419-3.763.771-2.01 1.132-4.948 1.132-8.814V16.598h12.196v25zm77.138-28.299h-3.499v31.65h3.499v-31.65zm16.776 0c-3.551 0-6.175.928-7.873 2.835-1.441 1.598-2.162 3.711-2.162 6.289 0 2.835.927 4.948 2.728 6.443 1.389 1.134 3.139 1.753 5.3 2.01l-9.263 14.021h4.271l11.013-16.959h-2.007-1.801c-2.11 0-3.705-.464-4.837-1.34-1.184-.979-1.802-2.423-1.802-4.278 0-1.649.515-2.99 1.493-4.072 1.08-1.082 2.882-1.649 5.403-1.649h.669 6.227v28.299H282V13.299h-10.858zm-61.597 28.299h-10.756c-4.271 0-7.719-3.454-7.719-7.732V13.247h-3.499v21.495c0 5.567 4.529 10.103 10.086 10.103h15.387v-3.299-28.247h-3.499v28.299zm33.706-28.299h-3.5v28.299h-18.474V13.299h-3.499v28.299 3.299h24.649 4.632v-3.505h-3.808V13.299z"/></g><g fill="#8dc046"><path d="M116.042 61.546l-2.779-4.021-1.183 1.237v2.783h-1.956v-8.917h1.956v3.969l3.55-3.969h2.419l-3.448 3.557 3.86 5.361h-2.419zm5.558-7.731c.617-.979 1.749-1.443 2.881-1.443 2.47 0 4.066 1.856 4.066 4.742 0 2.835-1.544 4.639-3.963 4.639-1.183 0-2.212-.412-2.881-1.392v4.485h-1.956V52.629h1.853v1.186zm0 3.299c0 1.959.926 3.093 2.521 3.093 1.492 0 2.419-1.186 2.419-3.093 0-1.959-.926-3.144-2.47-3.144s-2.47 1.186-2.47 3.144zm12.916 4.742c-2.727 0-4.374-2.01-4.374-4.639 0-2.784 1.801-4.845 4.323-4.845 2.624 0 4.219 1.907 4.219 5v.206h-6.587c.052 1.804.927 2.835 2.471 2.835 1.08 0 1.749-.464 2.109-1.649h1.904c-.463 1.959-2.058 3.093-4.065 3.093zm-.051-7.99c-1.287 0-2.11.825-2.316 2.423h4.58c-.103-1.495-.978-2.423-2.264-2.423zm13.173 10.516v-2.835h-6.329v2.835h-1.853V60h1.132c.669-1.546 1.029-3.402 1.029-6.34v-.979h6.69v7.371h1.184v4.381h-1.853v-.052zm-1.286-10.206h-2.882v.618c0 2.062-.566 4.382-.926 5.258h3.808v-5.876zm4.683 7.37v-8.917h1.955v6.495h.052l3.344-6.495h2.471v8.917h-1.956v-6.495h-.051l-3.345 6.495h-2.47zm14.203-7.371v7.371h-1.956v-7.371h-2.933v-1.546h7.822v1.546h-2.933zm4.425 7.371v-8.917h1.956v3.505h3.911v-3.505h1.955v8.917h-1.955V57.68h-3.911v3.866h-1.956zm10.241 0v-8.917h1.955v6.495h.052l3.345-6.495h2.47v8.917h-1.956v-6.495h-.051l-3.345 6.495h-2.47zm10.292 0v-8.917h1.955v6.495h.051l3.345-6.495h2.47v8.917h-1.955v-6.495h-.051l-3.345 6.495h-2.47zm3.911-10.155c-1.75 0-2.676-.773-2.831-2.423h.978c.206.876.772 1.34 1.853 1.34s1.595-.412 1.852-1.34h.978c-.206 1.65-1.081 2.423-2.83 2.423zm15.437 10.413c-2.727 0-4.374-1.907-4.374-4.588 0-2.938 1.75-4.845 4.426-4.845 2.264 0 3.757 1.185 3.962 3.247h-1.955c-.206-1.134-.926-1.753-2.007-1.753-1.544 0-2.47 1.186-2.47 3.196 0 1.959.875 3.144 2.367 3.144 1.184 0 1.955-.722 2.161-2.062h1.956c-.206 2.268-1.801 3.66-4.066 3.66zm9.932.052c-2.727 0-4.374-2.01-4.374-4.639 0-2.784 1.801-4.845 4.323-4.845 2.624 0 4.22 1.907 4.22 5v.206h-6.587c.051 1.804.926 2.835 2.47 2.835 1.08 0 1.749-.464 2.11-1.649h1.904c-.464 1.959-2.059 3.093-4.066 3.093zm-.103-7.99c-1.286 0-2.11.825-2.315 2.423h4.58c-.103-1.495-.978-2.423-2.265-2.423zm7.977-.051c.617-.979 1.749-1.443 2.881-1.443 2.47 0 4.066 1.856 4.066 4.742 0 2.835-1.544 4.639-3.963 4.639-1.183 0-2.212-.412-2.881-1.392v4.485h-1.956V52.629h1.853v1.186zm.051 3.299c0 1.959.926 3.093 2.522 3.093 1.492 0 2.418-1.186 2.418-3.093 0-1.959-.926-3.144-2.47-3.144s-2.47 1.186-2.47 3.144zm13.637 4.432h-4.683v-8.917h4.94c1.647 0 2.625.773 2.625 2.165 0 .979-.412 1.495-1.287 1.907v.052c1.132.309 1.698 1.082 1.698 2.32 0 1.598-1.183 2.474-3.293 2.474zm-2.676-7.423v2.062h2.522c.72 0 1.132-.361 1.132-1.083s-.361-.979-1.184-.979h-2.47zm0 3.505v2.474h2.727c.875 0 1.338-.412 1.338-1.186s-.463-1.237-1.338-1.237h-2.727v-.051zm9.983-6.494h-1.955v-1.959h1.955v1.959zm0 10.412h-1.955v-8.917h1.955v8.917zm6.484.258c-2.727 0-4.374-1.907-4.374-4.588 0-2.938 1.75-4.845 4.426-4.845 2.264 0 3.756 1.185 3.962 3.247h-1.955c-.206-1.134-.927-1.753-2.007-1.753-1.544 0-2.47 1.186-2.47 3.196 0 1.959.874 3.144 2.367 3.144 1.183 0 1.955-.722 2.161-2.062h1.955c-.257 2.268-1.852 3.66-4.065 3.66z"/></g></g><defs><clipPath id="A"><path fill="#fff" d="M0 0h282v75H0z"/></clipPath></defs></svg>