<svg xmlns="http://www.w3.org/2000/svg" viewBox="0 0 1122 453.5" width="1122" height="454" xmlns:v="https://vecta.io/nano"><path d="m344.1 134.4-43.4 43.9c21 32.9 21 75.5 0 108.4l43.4 43.9c43.8-57.7 43.9-138.5 0-196.2zm-72.9 14.2 43.4-43.9c-57.1-44.4-137-44.3-194 .1l43.4 43.9c32.6-21.3 74.7-21.4 107.2-.1zm-107.2 167.9-43.4 43.9c57.1 44.4 137 44.3 194-.1l-43.4-43.9c-32.5 21.3-74.7 21.4-107.2.1zm-29.4-138.1-43.4-43.9c-43.9 57.7-44 138.5-.1 196.1l43.4-43.9c-21-32.8-20.9-75.4.1-108.3z" fill="#d22120" fill-rule="evenodd"/><path d="M1070.1 172h-58c-2.5 0-3.6 2.6-3.6 5 0 2.6 1.3 5 3.6 5h24.3v104.5c0 2.8 2.3 4.2 4.8 4.2 2.3 0 4.8-1.5 4.8-4.2V182.1h24.2c2.5 0 3.6-2.6 3.6-5.2 0-2.5-1.2-4.9-3.7-4.9zm-361.9 9.9c17.2 0 20 12.7 20.3 19.7.1 2.3 1.4 4.1 4.8 4.1 3.3 0 4.8-1.1 4.8-6.5 0-14.6-10.9-27.2-29.8-27.2-16.5 0-30.4 9.4-30.4 34.6V257c0 25.4 13.6 34.8 30 34.8 19.1 0 30.3-12.7 30.3-27.5 0-5.4-1.4-6.7-4.8-6.7-3 0-4.5 1.6-4.8 4.2-.9 7.8-2.5 20-19.7 20-14 0-21.4-7.8-21.4-24.9v-50.4c-.1-16.8 7.3-24.6 20.7-24.6zm226.5-9.9h-25.6c-2.6 0-4.3 1.8-4.3 3.9v110.9c0 2.1 1.7 4.1 4.3 4.1h25.6c16.9 0 30.3-9.4 30.3-34.8v-49.4c-.1-25.3-13.4-34.7-30.3-34.7zm20.7 84c0 16.9-7.8 24.9-20.7 24.9h-20.4v-99h20.4c12.9 0 20.7 7.8 20.7 24.7zm-162.8-20.6c12.6-2.4 22.6-11.2 22.6-31.4 0-24.4-14.3-32-31.3-32h-25.6c-2.2.2-3.6 1.8-3.6 3.9v110.7c0 2.8 2.3 4.2 4.8 4.2 2.3 0 4.8-1.5 4.8-4.2v-49.9h18.4l22.3 48.8c1.2 2.6 2.7 5.7 5.1 5.7 2.7 0 5.5-2.8 5.5-5.5 0-.7-.1-1.5-.6-2.1zm-28.4-8v-45.5h19.7c12.9 0 21.7 6.3 21.7 22.6 0 16.4-8.8 22.9-21.7 22.9zM990.5 172c-2.5 0-4.8 1.1-4.8 3.9v110.7c0 2.8 2.3 4.2 4.8 4.2 2.3 0 4.8-1.5 4.8-4.2V175.9c0-2.8-2.4-3.9-4.8-3.9zm-103.4 9.9c2.3 0 3.6-2.4 3.6-5.2 0-2.3-1-4.7-3.6-4.7h-51.5c-2.2 0-4.3 1.3-4.3 4.1v110.5c0 2.8 2.2 4.2 4.3 4.2h51.5c2.6 0 3.6-2.6 3.6-4.9 0-2.6-1.3-5-3.6-5h-46.3v-45h22.7c2.6 0 3.6-2.3 3.6-4.4 0-2.6-1.3-4.9-3.6-4.9h-22.7v-44.7z"/><path d="M452.5 202.5c0-7.8 5.9-12.5 16.4-12.5 12.2 0 15.5 6.2 20 6.2 5.2 0 7.5-7.5 7.5-11.2 0-10.7-19-13-27.5-13-16.6 0-35.2 8.3-35.2 32.5 0 38.5 46.5 31.1 46.5 55.4 0 9.8-7.5 14.1-16.2 14.1-14.8 0-18.7-12.5-24.6-12.5-4.5 0-8.3 6.8-8.3 11.4 0 9.4 14.5 20.2 33.4 20.2 20 0 34.4-12 34.4-35.3.1-42.1-46.4-35.1-46.4-55.3zm158.3 0c0-7.8 5.9-12.5 16.4-12.5 12.2 0 15.5 6.2 20 6.2 5.2 0 7.5-7.5 7.5-11.2 0-10.7-19-13-27.5-13-16.6 0-35.2 8.3-35.2 32.5 0 38.5 46.5 31.1 46.5 55.4 0 9.8-7.5 14.1-16.2 14.1-14.8 0-18.7-12.5-24.6-12.5-4.5 0-8.3 6.8-8.3 11.4 0 9.4 14.5 20.2 33.4 20.2 20 0 34.5-12 34.5-35.3 0-42.1-46.5-35.1-46.5-55.3zm-66.2-29.7c-19.1 0-33.9 10.1-33.9 37.2v45.4c0 27.2 14.8 37.2 33.9 37.2s34-10.1 34-37.2V210c0-27.1-14.9-37.2-34-37.2zm15.2 82.6c0 12.8-5.8 18.7-15.2 18.7-9.6 0-15.1-5.9-15.1-18.7V210c0-12.8 5.5-18.7 15.1-18.7 9.4 0 15.2 5.9 15.2 18.7z" fill="#d22120"/></svg>