<svg xmlns="http://www.w3.org/2000/svg" viewBox="0 0 187 82" width="800" height="351" xmlns:v="https://vecta.io/nano"><path d="M70.9 67.4h3.4v-18h11.2v-2.8H70.9zm37.3-18.7c-1.1-.7-2.3-1.2-3.9-1.5-1.5-.4-3.2-.5-5-.5h-8.4v20.8h3.4V62h5c1.8 0 3.5-.2 5-.5 1.5-.4 2.8-.9 3.9-1.5s1.9-1.5 2.5-2.4c.6-1 .9-2 .9-3.2s-.3-2.3-.9-3.2c-.6-1-1.5-1.9-2.5-2.5zm-.8 7.9c-.4.6-.9 1.2-1.6 1.6s-1.5.7-2.4.9-1.9.3-3.1.3h-6.1v-10h6.1c1.1 0 2.1.1 3.1.3.9.2 1.7.5 2.4.9a4.1 4.1 0 0 1 1.6 1.6c.4.6.6 1.4.6 2.3-.1.7-.2 1.5-.6 2.1zm28.7-7.9c-1.1-1-2.4-1.7-3.9-2.2s-3.1-.7-4.9-.7-3.5.3-5 .7a8.49 8.49 0 0 0-3.8 2.2c-1.1 1-1.9 2.1-2.5 3.5s-.9 3-.9 4.8.3 3.4.9 4.8 1.4 2.6 2.5 3.5 2.4 1.7 3.8 2.2c1.5.5 3.1.7 5 .7 1.8 0 3.4-.3 4.9-.7s2.8-1.2 3.9-2.2c1.1-.9 1.9-2.1 2.5-3.5s.9-3 .9-4.8-.3-3.4-.9-4.8-1.5-2.6-2.5-3.5zm-.6 12.2c-.5 1.1-1.1 2-1.9 2.7s-1.7 1.2-2.8 1.5-2.2.5-3.4.5-2.4-.2-3.4-.5-2-.8-2.8-1.5-1.4-1.6-1.9-2.7-.7-2.4-.7-4c0-1.5.2-2.9.7-4s1.1-2 1.9-2.7 1.7-1.2 2.8-1.5 2.2-.5 3.4-.5 2.4.2 3.4.5c1.1.3 2 .8 2.8 1.5s1.4 1.6 1.9 2.7.7 2.4.7 4-.3 3-.7 4zm36.3 3.7h-9.3v-18H159v18h-9.3v-18h-3.5v20.8h29.1V46.6h-3.5zM183 47h3.4v20.4H183z" fill="#1d8649"/><path d="M31.8 40.2c-2.1.6-3.9 1.5-5.5 2.8s-2.9 3-3.9 5-1.7 4.5-2 7.3h23.1l3.5 6.6H20.4c.5 6 2.5 10.3 5.9 13 3.4 2.6 7.8 3.9 13.3 3.9 3.6 0 7-.5 10.1-1.6.1 0 .2-.1.3-.1l1.2-2.8 5.9-12.4-12.3-22c-2-.4-4.1-.6-6.3-.6-2.4 0-4.6.3-6.7.9zM13.7 70.4c-1.4-3.3-2.1-7-2.1-11.3 0-4.2.7-8 2.1-11.2 1.4-3.3 3.4-6 5.9-8.3 2.5-2.2 5.5-3.9 9-5.1s7.4-1.7 11.7-1.7h.5l-7.1-12.7h-3.5c0-3.2-1-10.1-7.7-15.4l-1.7 2.1c5.9 4.6 6.7 10.5 6.7 13.2h-3.6L.5 61.9l5.9 12.4 3.1 7.2h14.2c-1.5-.8-2.9-1.8-4.1-2.8-2.5-2.3-4.4-5.1-5.9-8.3z" fill="#fed925"/><path d="M31.6 13.6c4.2 3.5 10 4.7 15.5 2.7s9.2-6.7 10.1-12.1C53 .7 47.2-.5 41.7 1.5c-5.4 2-9.1 6.7-10.1 12.1z" fill="#208749"/></svg>