<svg xmlns="http://www.w3.org/2000/svg" viewBox="0 0 738.1 174.18" width="800" height="189" fill="#006ce7" xmlns:v="https://vecta.io/nano"><path d="M35.87 16.61A86.55 86.55 0 0 1 84.94 0c26.66-.94 53.15 11.49 69.83 32.23l-13.15 13.1A68.7 68.7 0 1 0 96.14 155.3c18-2.26 34.64-12.26 45.71-26.55 4.26 4.41 8.69 8.64 12.94 13A87.07 87.07 0 0 1 6 118.92 87 87 0 0 1 35.87 16.61zm629.67 1.69c7.06-3.81 17.15 2.47 15.36 10.72-1.38 8.37-13.39 11-18.67 4.68-4.46-4.59-2.49-12.92 3.31-15.4zm-41.9 3.78c6.14.13 12.28 0 18.42.06q0 51.5 0 103h-18.24c0-4.2.08-8.4-.07-12.6-2.84 3.79-5.22 8.16-9.57 10.49-11.63 6.71-27.93 3.38-36.23-7.14-7-8.6-9.14-20.14-8.88-31 .22-10.1 2.82-20.65 9.66-28.37 7.55-8.65 20.44-11.84 31.26-8.24 6.21 2 10.57 7.19 13.5 12.79l.15-38.99zm-22.21 40.48c-7.12 1.76-11.52 8.7-12.79 15.55-1.68 9-1.15 19.15 4.31 26.82 5.23 7.44 17 8.55 23.68 2.49 5.58-5.19 7.29-13.21 7.23-20.55.15-7.16-1.24-15-6.44-20.3-4.05-4.23-10.42-5.37-15.99-4.01zm101.64-33.17h18.49v18.5h15v14.25h-15q0 20.4 0 40.79a7.35 7.35 0 0 0 3.62 6.86c3.09 1.45 6.57.76 9.78.11q1.6 7.26 3.13 14.53c-8.22 2.37-17.57 2.78-25.31-1.35-6.15-3.31-9.76-10.2-9.71-17.09V62.14h-11V47.89h11zM45.63 58.24a50.63 50.63 0 0 1 83.06.1l-57 57.08a32.66 32.66 0 0 0 31.34-.44 33.75 33.75 0 0 0 12.35-12.56q6.7 6.59 13.31 13.3c-9.25 13.47-25.31 22.06-41.71 21.74-16.38.31-32.37-8.3-41.63-21.73q28.45-28.46 56.93-56.86C87.47 50 66.62 56.61 58.73 71.73c-4.25-4.59-9.13-8.73-13.1-13.49zm236.25-6.58c14.46-8.16 35.33-6.22 46.06 7.18 7.38 9.17 8.56 21.46 8.12 32.8q-26.85 0-53.71 0c.23 6 2 12.23 6.77 16.2 8.5 7.28 24.61 5.71 29.09-5.45 5.76.41 11.49 1.24 17.23 1.86a27.7 27.7 0 0 1-10.35 15.58c-8.49 6.17-19.59 7.67-29.79 6.38-9.16-1.08-18-5.65-23.52-13.18-6.73-9.18-8.43-21.13-7.27-32.22 1.08-11.62 7.02-23.25 17.37-29.15zm6 15.06a20.43 20.43 0 0 0-5.42 12.41q18 0 36 0c-.15-4.85-1.76-9.84-5.41-13.21-6.77-6.62-18.83-6.04-25.21.8zM360 55.71c10.94-9.8 27.76-11.24 41-5.61a28.63 28.63 0 0 1 17 24.72c-5.85.13-11.7 0-17.54.06-.79-3-1.8-6-4-8.28-5.91-6.7-17.62-6.31-23.5.24-5 5.27-6.54 13-6.4 20-.07 6.86 1.49 14.16 6.17 19.4 5.39 6 15.46 7.11 21.94 2.2 3.18-2.33 4.78-6.12 5.76-9.82h17.52a28.86 28.86 0 0 1-10.3 20.65c-7.36 6.05-17.35 8-26.65 7.17-9.46-.72-18.9-5-24.74-12.64-6.84-8.63-9-20.1-8.3-30.88.59-10.06 4.39-20.33 12.04-27.21zm101-6.93c4.9-2.52 10.58-2 15.88-1.58v17c-5.26-1-11-1.8-16 .48a15.82 15.82 0 0 0-9.74 14.19v46.3h-18.56V47.93h18v13.25c2.02-5.12 5.21-10.11 10.42-12.4zm43.75 1.9c14.53-7.07 34.66-4.64 44.76 8.76 7 9.11 8 21.11 7.55 32.2h-53.58c.13 6.62 2.57 13.72 8.37 17.44 8.76 5.7 23.35 3.88 27.44-6.75l17.2 1.91a28 28 0 0 1-17.59 19.56 46.17 46.17 0 0 1-30.26.59 32.36 32.36 0 0 1-19.46-17.66c-4.22-9.62-4.84-20.62-2.78-30.85 2.06-10.52 8.6-20.43 18.35-25.2zm4.63 15.55c-3.54 3.37-5.31 8.13-6 12.89q18.14.06 36.26 0c-.5-4.37-1.53-8.91-4.6-12.25-6.33-7.37-18.82-7.33-25.66-.64zM188.56 47.9q30.38 0 60.76 0v12.78q-19.12 24.53-38 49.21h39.33v15.24q-31.62 0-63.24 0 0-6 0-11.94l39.78-50h-38.53l-.1-15.29zm472.51-.01h18.5v77.25h-18.5z"/></svg>