<svg xmlns="http://www.w3.org/2000/svg" width="123" height="122" fill="none"  xmlns:v="https://vecta.io/nano"><g clip-path="url(#A)"><path d="M122.478 42.7c-.202-3.479-4.34-6.198-12.615-8.272.278-.61.435-1.244.437-1.903V18.3h-.035C109.537 6.449 60.977 6.1 55.4 6.1S1.263 6.449.535 18.3H.5v.264 13.967c.01 3.863 4.996 6.887 12.414 9.138-.102.337-.163.681-.183 1.031h-.03v.264 13.943C4.709 58.964.718 61.644.52 65.066H.5v.264 13.967c.006 2.69 2.432 4.971 6.401 6.873a4.48 4.48 0 0 0-.27 1.265H6.6v.264 13.967c.016 6.763 15.244 10.962 32.163 12.922.124.025.238.075.37.075.039 0 .071-.02.11-.022a198.99 198.99 0 0 0 9.856.86c.069.008.13.041.201.041.039 0 .069-.021.106-.023a201.27 201.27 0 0 0 12.094.381c3.833 0 7.93-.128 12.094-.383.037.002.069.023.106.023.071 0 .132-.035.201-.041 3.28-.205 6.594-.49 9.856-.86.039 0 .071.02.11.02.132 0 .246-.051.37-.075 16.919-1.96 32.145-6.161 32.163-12.926V87.433h-.033c-.142-2.493-2.267-4.573-6.464-6.311.257-.588.397-1.198.397-1.83v-13.29c7.3-2.245 12.19-5.248 12.2-9.077V42.7h-.022zm-16.464 37.253l-.694.608c-1.067.941-2.846 1.891-5.187 2.806v-9.695c2.418-.842 4.476-1.775 6.1-2.798v8.414c0 .209-.077.433-.219.665zm-45.478 9.449l-.895.018-2.206.024V79.287l1.678-.024.323-.006 6.133-.195v10.152l-1.314.061-3.719.126zm-8.88.028l-2.779-.067-.342-.012-3.3-.136v-10.15a211.64 211.64 0 0 0 6.133.195l.321.006 1.678.024v10.163l-1.181-.01-.529-.012zm-36.726-4.636l-.197-.057v-9.823c1.899.512 3.941.98 6.1 1.405v9.925c-1.867-.396-3.589-.813-5.157-1.24l-.746-.209zm42.859 16.838l1.678.024v10.165c-2.81-.027-5.523-.108-8.133-.236v-10.153c2.037.096 4.085.159 6.133.196l.323.004zm7.745-.006l6.133-.196v10.153c-2.611.128-5.323.209-8.133.236v-10.165l1.678-.024.323-.004zm16.299-.919v10.097c-1.954.205-3.987.386-6.1.535v-10.14a199.06 199.06 0 0 0 6.1-.492zm4.067-.44a149.88 149.88 0 0 0 6.1-.858v9.984c-1.915.337-3.951.649-6.1.931v-10.057zm10.167-1.584a90.91 90.91 0 0 0 6.1-1.405v9.823c-1.812.523-3.852 1.029-6.1 1.507v-9.925zm-69.133 0v9.925c-2.249-.478-4.288-.984-6.1-1.507v-9.823a89.71 89.71 0 0 0 6.1 1.405zm4.067.728a149.88 149.88 0 0 0 6.1.858v10.057c-2.149-.282-4.185-.593-6.1-.931v-9.984zm10.167 1.296a205.54 205.54 0 0 0 6.1.494v10.14c-2.113-.149-4.146-.33-6.1-.535v-10.099zm-5.045-12.16l-.618-.063-.437-.047V78.342a202.22 202.22 0 0 0 6.1.494v10.132l-5.045-.421zM31 77.901v10.057c-2.149-.283-4.185-.594-6.1-.931v-9.984c1.968.319 4.004.608 6.1.858zm39.988 10.972l-1.354.102v-10.14c2.062-.136 4.099-.299 6.1-.494v10.097l-3.861.364-.885.071zm8.813-.915V77.901c2.096-.252 4.132-.539 6.1-.858v9.984c-1.915.337-3.951.651-6.1.931zm10.167-11.641a90.93 90.93 0 0 0 6.1-1.405v9.823c-1.812.523-3.851 1.029-6.1 1.507v-9.925zm-27.806-9.288l-4.492-.169-.236-.01V56.697c2.037.096 4.085.159 6.133.195l.321.006 1.678.024v10.152l-2.954-.037-.449-.01zM14.733 37.97v-9.823c1.899.512 3.941.98 6.1 1.405v9.925l-.752-.159c-1.082-.238-2.137-.486-3.146-.748l-2.202-.6zm36.956-5.472l1.678.024v10.152c-2.737-.026-5.458-.098-8.133-.232V32.299a211.65 211.65 0 0 0 6.133.195l.323.004zm7.745-.006l6.133-.195v10.144l-1.025.057c-.028.002-.057.002-.087.004l-4.164.138-.659.014-2.198.024V32.523l1.677-.024.323-.006zm46.334 1.021l-.057-.012-.74.575c-1.074.836-2.723 1.682-4.838 2.499v-9.673c2.418-.842 4.476-1.775 6.1-2.798v8.414c0 .309-.162.642-.465.994zM79.8 41.179V31.134a149.87 149.87 0 0 0 6.1-.858v9.967a136.5 136.5 0 0 1-6.1.935zm10.167-1.718v-9.908c2.159-.425 4.201-.893 6.1-1.405v9.801a87.23 87.23 0 0 1-6.1 1.513zm-14.233-7.887v10.085a181.52 181.52 0 0 1-6.1.539v-10.13a202.22 202.22 0 0 0 6.1-.494zM35.067 41.663V31.573a202.22 202.22 0 0 0 6.1.494v10.122l-6.1-.527zM31 31.134v10.047l-1.22-.151-.765-.112-3.451-.539-.665-.118v-9.984c1.968.317 4.004.606 6.1.856zm21.862 35.435l-.824-.061-3.812-.338-.797-.081c-.055-.006-.108-.014-.163-.018V55.973a202.22 202.22 0 0 0 6.1.494v10.134l-.504-.032zM39.428 65.05l-2.328-.401v-9.971a150.05 150.05 0 0 0 6.1.858v10.057l-3.632-.519a1.68 1.68 0 0 0-.14-.024zm-6.395-11.1v9.908c-2.247-.482-4.284-.994-6.1-1.527v-9.786c1.899.512 3.941.982 6.1 1.405zm-10.167-2.647v9.66c-3.196-1.234-5.258-2.495-5.929-3.617l-.136-.228c-.012-.063-.033-.13-.035-.193v-8.42c1.625 1.023 3.682 1.956 6.1 2.798zm48.767 5.59l6.133-.195v10.142a208.68 208.68 0 0 1-8.133.234v-10.15l1.677-.024.323-.006zm26.277 7.802l-2.719.447-1.618.236-1.572.203V55.534c2.096-.252 4.132-.539 6.1-.858v9.984l-.191.035zm-13.768 1.736l-2.31.159V56.467c2.062-.136 4.099-.299 6.1-.494v10.087l-3.575.35-.216.02zm23.237-3.812c-1.012.283-2.084.547-3.178.805l-1.551.35-.482.1v-9.921c2.159-.425 4.201-.893 6.1-1.405v9.823l-.889.248zm11.031-19.786c-.187 1.381-3.316 3.217-8.902 4.943-7.194 2.222-18.45 4.258-32.716 4.888l-2.202.085-1.838.055-5.153.063c-1.761 0-3.469-.027-5.152-.065l-1.838-.055-2.202-.085c-14.266-.63-25.524-2.666-32.716-4.888-5.541-1.712-8.664-3.534-8.896-4.908.01-.039.01-.071.035-.12.138.035.293.063.433.098l2.44.547c4.04.87 8.518 1.584 13.288 2.129.016 0 .029.008.043.008a190.73 190.73 0 0 0 10.092.864c.026 0 .049.014.075.014.014 0 .024-.008.039-.008 2.491.146 5.014.254 7.568.311l4.593.059 3.266-.033c14.774-.228 28.467-1.984 37.995-4.707l1.291-.38.773-.236a50.53 50.53 0 0 0 2.123-.73l.348-.134a37.38 37.38 0 0 0 1.657-.673l.457-.199c.564-.254 1.109-.514 1.613-.785.228-.12.425-.244.638-.366.244-.14.488-.283.714-.427.128-.081.281-.159.403-.24 9.103 1.974 11.502 4.134 11.734 4.976zM55.4 10.166c33.528 0 50.486 5.279 50.803 8.308-.246 1.375-3.367 3.19-8.894 4.898-7.194 2.222-18.45 4.258-32.716 4.888l-2.202.085-1.838.055-5.153.065c-1.761 0-3.469-.026-5.152-.065l-1.838-.055-2.202-.085c-14.266-.63-25.524-2.666-32.716-4.888-5.529-1.708-8.648-3.524-8.894-4.898.317-3.03 17.275-8.308 50.803-8.308zM4.567 32.525v-8.42c1.625 1.023 3.682 1.956 6.1 2.798v9.736c-3.955-1.482-6.096-2.969-6.1-4.113zm9.849 28.139c.03.032.077.061.108.093 2.784 2.81 8.548 5.018 15.724 6.665l.506.114 1.602.346c6.59 1.403 14.457 2.418 23.027 2.92.018.002.02 0 .022 0 2.753.161 5.569.272 8.444.321l3.749.043 4.307-.051c2.66-.055 5.281-.165 7.865-.315.01 0 .018.006.028.006.018 0 .032-.01.051-.01 8.593-.506 16.655-1.531 23.473-3.005-1.477.773-3.498 1.572-6.015 2.351-7.594 2.346-19.723 4.484-35.138 4.98l-1.373.043-1.511.031-3.888.039c-1.761 0-3.469-.026-5.152-.065l-1.838-.055-2.202-.085c-14.266-.63-25.524-2.666-32.716-4.888-5.592-1.728-8.721-3.566-8.902-4.947.226-.764 2.281-2.678 9.827-4.528zM4.567 79.292v-8.42c1.625 1.023 3.682 1.956 6.1 2.798v9.697l-1.161-.451-.024.024c-3.192-1.324-4.91-2.623-4.915-3.648zm6.1 22.367v-8.42c1.625 1.023 3.682 1.956 6.1 2.798v9.736c-3.955-1.483-6.096-2.969-6.1-4.114zm95.566 4.114v-9.734c2.418-.842 4.476-1.775 6.1-2.798v8.414c-.002 1.145-2.145 2.633-6.1 4.118zm6.074-18.183c-.222 1.377-3.345 3.203-8.898 4.919-7.194 2.222-18.45 4.258-32.716 4.888l-2.202.085-1.838.055-5.153.063c-1.761 0-3.471-.026-5.157-.065l-1.82-.055-2.216-.085c-14.266-.63-25.522-2.666-32.716-4.888-5.378-1.661-8.485-3.426-8.875-4.788.606.212 1.234.417 1.879.618l.195.059a59.84 59.84 0 0 0 1.686.49l.659.181.992.256c7.405 1.897 16.858 3.241 27.064 3.845a204.84 204.84 0 0 0 9.64.342l2.57.024 3.428-.034c2.967-.049 5.895-.159 8.758-.329.026.004.032-.002.043-.002a187.14 187.14 0 0 0 10.106-.88c.012 0 .022.006.035.006.045 0 .081-.022.126-.026 3.611-.417 7.035-.929 10.213-1.525l1.938-.372.427-.088c6.004-1.232 11.202-2.828 14.768-4.807.195-.106.378-.216.563-.323a15.74 15.74 0 0 0 .651-.409c.195-.126.421-.248.6-.376 4.014 1.431 5.12 2.712 5.252 3.223zm.026-26.551v-9.734c2.418-.842 4.476-1.775 6.1-2.798v8.414c-.002 1.145-2.145 2.633-6.1 4.118z" fill="#669b45"/></g><defs><clipPath id="A"><path fill="#fff" transform="translate(.5)" d="M0 0h122v122H0z"/></clipPath></defs></svg>