<svg xmlns="http://www.w3.org/2000/svg" height="512" width="512" xmlns:v="https://vecta.io/nano"><path d="M280.572 246.052L49.721 477.526c-11.034-10.465-16.997-24.819-16.997-40.374V74.096c0-15.849 6.263-30.207 17.597-40.968l230.251 212.924zm0 0" fill="#2299f8"/><path d="M480.104 255.62c0 20.938-11.34 39.477-30.131 49.95l-65.605 36.482-81.428-75.367-22.367-20.634 86.193-86.429 83.207 46.056c18.791 10.474 30.131 29.012 30.131 49.942h0zm0 0" fill="#ffc107"/><path d="M280.572 246.052L50.321 33.127c2.981-2.996 6.862-5.685 10.739-8.077 18.787-11.363 41.456-11.667 60.839-.895l244.867 135.467-86.194 86.43zm0 0" fill="#5acf5f"/><path d="M384.367 342.053L121.899 487.095c-9.243 5.386-19.688 7.774-29.826 7.774-10.734 0-21.469-2.69-31.013-8.668a54.16 54.16 0 0 1-11.339-8.675l230.851-231.475 22.367 20.634 81.428 75.368zm0 0" fill="#f84437"/></svg>