<svg xmlns="http://www.w3.org/2000/svg" xmlns:xlink="http://www.w3.org/1999/xlink" width="65" height="65" fill="none" xmlns:v="https://vecta.io/nano"><g clip-path="url(#A)" fill="#e0992f"><use xlink:href="#B"/><path d="M27.401 10.418h-4.643c-.732 0-1.327.594-1.327 1.327v7.296c0 .732.594 1.326 1.327 1.326h4.643c.733 0 1.326-.594 1.326-1.326v-7.296c0-.732-.594-1.327-1.326-1.327zm-1.326 7.296h-1.99v-4.643h1.99v4.643z"/><use xlink:href="#C"/><path d="M27.401 23.418h-4.643c-.732 0-1.327.594-1.327 1.326v7.296c0 .733.594 1.327 1.327 1.327h4.643c.733 0 1.326-.594 1.326-1.327v-7.296c0-.732-.594-1.326-1.326-1.326zm-1.326 7.296h-1.99v-4.643h1.99v4.643z"/><use xlink:href="#D"/><path d="M27.401 36.418h-4.643a1.33 1.33 0 0 0-1.327 1.327v7.296c0 .733.594 1.327 1.327 1.327h4.643c.733 0 1.326-.594 1.326-1.327v-7.296a1.33 1.33 0 0 0-1.326-1.327zm-1.326 7.296h-1.99v-4.643h1.99v4.643zm-7.957 5.706h-4.643a1.33 1.33 0 0 0-1.327 1.327v7.296c0 .733.594 1.327 1.327 1.327h4.643c.733 0 1.326-.594 1.326-1.327v-7.296a1.33 1.33 0 0 0-1.326-1.327zm-1.326 7.296h-1.99v-4.643h1.99v4.643zm10.609-7.296h-4.643a1.33 1.33 0 0 0-1.327 1.327v7.296c0 .733.594 1.327 1.327 1.327h4.643c.733 0 1.326-.594 1.326-1.327v-7.296a1.33 1.33 0 0 0-1.326-1.327zm-1.326 7.296h-1.99v-4.643h1.99v4.643z"/><use xlink:href="#E"/><use xlink:href="#F"/><path d="M50.844 28.611h-.024c-.733 0-1.327.594-1.327 1.327s.594 1.326 1.327 1.326h.024c.733 0 1.327-.594 1.327-1.326a1.33 1.33 0 0 0-1.327-1.327zm0 6.256h-.024c-.733 0-1.327.594-1.327 1.327s.594 1.327 1.327 1.327h.024c.733 0 1.327-.594 1.327-1.327s-.594-1.327-1.327-1.327zm0 6.256h-.024c-.733 0-1.327.594-1.327 1.327s.594 1.327 1.327 1.327h.024c.733 0 1.327-.594 1.327-1.327s-.594-1.327-1.327-1.327zm0 6.256h-.024c-.733 0-1.327.594-1.327 1.326a1.33 1.33 0 0 0 1.327 1.327h.024c.733 0 1.327-.594 1.327-1.327s-.594-1.326-1.327-1.326zm9.979 14.968H57.19v-44.96c0-.733-.594-1.326-1.326-1.326H33.839v-9.03c0-.615-.423-1.15-1.021-1.291L8.675.035a1.33 1.33 0 0 0-1.128.251c-.318.251-.503.635-.503 1.04v61.021H4.18c-.733 0-1.327.594-1.327 1.327S3.448 65 4.18 65h56.643c.733 0 1.327-.594 1.327-1.327s-.594-1.327-1.327-1.327zm-29.637-44.96v44.96H9.696V3.003l21.49 5.077v9.307zm23.351 44.96H33.839v-6.058h12.425c.732 0 1.326-.594 1.326-1.327s-.594-1.327-1.326-1.327H33.839v-3.603h12.425c.732 0 1.326-.594 1.326-1.327s-.594-1.326-1.326-1.326H33.839v-3.603h12.425c.732 0 1.326-.594 1.326-1.327s-.594-1.326-1.326-1.326H33.839V37.52h12.425c.732 0 1.326-.594 1.326-1.327s-.594-1.327-1.326-1.327H33.839v-3.603h12.425c.732 0 1.326-.594 1.326-1.327s-.594-1.326-1.326-1.326H33.839v-3.603h12.425c.732 0 1.326-.594 1.326-1.326a1.33 1.33 0 0 0-1.326-1.327H33.839v-3.641h20.698v43.633h0z"/></g><defs><clipPath id="A"><path fill="#fff" d="M0 0h65v65H0z"/></clipPath><path id="B" d="M18.118 10.418h-4.643c-.732 0-1.327.594-1.327 1.327v7.296c0 .732.594 1.326 1.327 1.326h4.643c.733 0 1.326-.594 1.326-1.326v-7.296c0-.732-.594-1.327-1.326-1.327zm-1.326 7.296h-1.99v-4.643h1.99v4.643z"/><path id="C" d="M18.118 23.418h-4.643c-.732 0-1.327.594-1.327 1.326v7.296c0 .733.594 1.327 1.327 1.327h4.643c.733 0 1.326-.594 1.326-1.327v-7.296c0-.732-.594-1.326-1.326-1.326zm-1.326 7.296h-1.99v-4.643h1.99v4.643z"/><path id="D" d="M18.118 36.418h-4.643c-.732 0-1.327.594-1.327 1.327v7.296c0 .733.594 1.327 1.327 1.327h4.643c.733 0 1.326-.594 1.326-1.327v-7.296c0-.732-.594-1.327-1.326-1.327zm-1.326 7.296h-1.99v-4.643h1.99v4.643z"/><path id="E" d="M50.844 53.637h-.024c-.733 0-1.327.594-1.327 1.327s.594 1.327 1.327 1.327h.024c.733 0 1.327-.594 1.327-1.327s-.594-1.327-1.327-1.327z"/><path id="F" d="M50.844 22.356h-.024c-.733 0-1.327.594-1.327 1.326s.594 1.327 1.327 1.327h.024c.733 0 1.327-.594 1.327-1.327s-.594-1.326-1.327-1.326z"/></defs></svg>