<svg xmlns="http://www.w3.org/2000/svg" width="133" height="132" fill="none"  xmlns:v="https://vecta.io/nano"><g clip-path="url(#A)" fill="#5db9c6"><path d="M132.246 72.098c-1.186-11.921-6.511-23.159-14.997-31.645a51.77 51.77 0 0 0-25.468-13.984v-6.551c3.815-.949 6.65-4.402 6.65-8.506a8.78 8.78 0 0 0-8.766-8.766H71.103a8.78 8.78 0 0 0-8.766 8.766c0 4.104 2.835 7.557 6.65 8.506v6.569a51.76 51.76 0 0 0-25.389 13.966c-1.583 1.582-3.042 3.242-4.378 4.968-.065-.005-.129-.01-.195-.01H20.653a2.58 2.58 0 0 0-2.578 2.578 2.58 2.58 0 0 0 2.578 2.578h15.06c-1.89 3.165-3.414 6.488-4.575 9.909H3.078A2.58 2.58 0 0 0 .5 63.055a2.58 2.58 0 0 0 2.578 2.578h26.603a52.42 52.42 0 0 0-1.28 9.91H17a2.58 2.58 0 0 0-2.578 2.578A2.58 2.58 0 0 0 17 80.699h11.483a52.34 52.34 0 0 0 1.61 9.91H13.391a2.58 2.58 0 0 0-2.578 2.578 2.58 2.58 0 0 0 2.578 2.578h18.348a51.77 51.77 0 0 0 11.859 18.339c8.494 8.494 19.744 13.821 31.677 15a52.04 52.04 0 0 0 5.11.252c10.06 0 19.993-2.912 28.421-8.4a2.58 2.58 0 0 0 .754-3.568 2.58 2.58 0 0 0-3.568-.753c-18.448 12.013-43.156 9.416-58.748-6.177-18.295-18.295-18.295-48.063 0-66.359s48.063-18.295 66.359 0c15.571 15.572 18.183 40.258 6.209 58.698a2.58 2.58 0 0 0 .758 3.566 2.58 2.58 0 0 0 3.567-.758c6.397-9.852 9.277-21.752 8.109-33.507zM67.493 11.413c0-1.99 1.619-3.609 3.609-3.609h18.563c1.99 0 3.609 1.619 3.609 3.609s-1.619 3.609-3.609 3.609h-.462-17.638-.462c-1.99 0-3.609-1.619-3.609-3.609zm6.65 14.188v-5.423h12.482v5.413a52.54 52.54 0 0 0-12.482.009zm41.283 84.101c-.681 0-1.343.276-1.823.756s-.755 1.144-.755 1.822a2.59 2.59 0 0 0 .755 1.823c.48.482 1.142.755 1.823.755a2.59 2.59 0 0 0 1.823-.755 2.6 2.6 0 0 0 .755-1.823c0-.678-.276-1.343-.755-1.822a2.6 2.6 0 0 0-1.823-.756zM80.425 37.283c-22.053 0-39.995 17.941-39.995 39.995s17.942 39.995 39.995 39.995 39.995-17.942 39.995-39.995-17.941-39.995-39.994-39.995zm0 74.834c-19.21 0-34.838-15.629-34.838-34.839S61.214 42.44 80.425 42.44s34.839 15.629 34.839 34.839-15.628 34.839-34.839 34.839zm16.308-54.794l-12.77 12.769c-1.068-.528-2.269-.826-3.539-.826a7.96 7.96 0 0 0-3.539.826l-5.715-5.715a2.58 2.58 0 0 0-3.646 0 2.58 2.58 0 0 0 0 3.646l5.715 5.715a7.96 7.96 0 0 0-.826 3.539c0 4.417 3.594 8.011 8.011 8.011s8.011-3.594 8.011-8.011c0-1.27-.298-2.471-.826-3.539l12.395-12.395.374-.375a2.58 2.58 0 0 0 0-3.646 2.58 2.58 0 0 0-3.646 0zm-16.308 22.81a2.86 2.86 0 0 1-2.855-2.855 2.86 2.86 0 0 1 2.855-2.855 2.86 2.86 0 0 1 2.855 2.855 2.86 2.86 0 0 1-2.855 2.855zm27.565-5.402h-2.388a2.58 2.58 0 0 0-2.579 2.578 2.58 2.58 0 0 0 2.579 2.578h2.388a2.58 2.58 0 0 0 2.578-2.578 2.58 2.58 0 0 0-2.578-2.578zm-52.746-.062h-2.388a2.58 2.58 0 0 0-2.578 2.578 2.58 2.58 0 0 0 2.578 2.578h2.388a2.58 2.58 0 0 0 2.578-2.578 2.58 2.58 0 0 0-2.578-2.578zm25.209-19.99a2.58 2.58 0 0 0 2.578-2.578v-2.388a2.58 2.58 0 0 0-2.578-2.578 2.58 2.58 0 0 0-2.578 2.578v2.388a2.58 2.58 0 0 0 2.578 2.578zm-.062 45.198a2.58 2.58 0 0 0-2.578 2.578v2.388a2.58 2.58 0 0 0 2.578 2.579 2.58 2.58 0 0 0 2.578-2.579v-2.388a2.58 2.58 0 0 0-2.578-2.578zm-77.313-9.27a2.6 2.6 0 0 0-1.823.755A2.6 2.6 0 0 0 .5 93.186a2.59 2.59 0 0 0 .755 1.823 2.6 2.6 0 0 0 1.823.755c.678 0 1.343-.276 1.822-.755a2.6 2.6 0 0 0 .756-1.823 2.6 2.6 0 0 0-.756-1.823c-.48-.48-1.144-.755-1.822-.755z"/></g><defs><clipPath id="A"><path fill="#fff" transform="translate(.5)" d="M0 0h132v132H0z"/></clipPath></defs></svg>