<svg xmlns="http://www.w3.org/2000/svg" width="132" height="131" fill="none"  xmlns:v="https://vecta.io/nano"><g clip-path="url(#A)" fill="#e89a26"><path d="M65.772 16.646a2.58 2.58 0 0 0 2.577-2.577V2.577A2.58 2.58 0 0 0 65.772 0a2.58 2.58 0 0 0-2.577 2.577V14.07a2.58 2.58 0 0 0 2.577 2.577zm62.983 71.877l-4.552-4.539a8.54 8.54 0 0 0-6.077-2.508 8.57 8.57 0 0 0-4.133 1.051l-8.578-8.568.418-.417c3.48-3.487 3.479-9.153 0-12.628a8.85 8.85 0 0 0-4.486-2.425 8.99 8.99 0 0 0 .355-2.507c0-2.394-.929-4.638-2.612-6.314-1.243-1.246-2.794-2.076-4.485-2.426a9 9 0 0 0 .355-2.507 8.85 8.85 0 0 0-2.616-6.317c-1.273-1.272-2.838-2.076-4.482-2.419.879-3.031.128-6.441-2.257-8.83-1.985-1.977-4.678-2.826-7.274-2.551l-16.998-3.217c-2.592-.492-5.83-.817-7.873 1.047a4.64 4.64 0 0 0-.39.404c-3.169-1.155-6.864-.467-9.402 2.067-1.683 1.681-2.611 3.925-2.611 6.317a9.01 9.01 0 0 0 .355 2.507 8.83 8.83 0 0 0-4.477 2.42 8.85 8.85 0 0 0-2.618 6.31 8.98 8.98 0 0 0 .356 2.514 8.85 8.85 0 0 0-4.483 2.418 8.87 8.87 0 0 0-2.615 6.321c0 1.831.547 3.576 1.56 5.05a8.88 8.88 0 0 0-3.432 2.136c-3.482 3.478-3.483 9.144.002 12.636l.416.415-8.579 8.563c-3.188-1.501-7.116-.939-9.747 1.689L3.24 88.757a8.53 8.53 0 0 0-2.512 6.077 8.53 8.53 0 0 0 2.512 6.078l5.684 5.678a2.58 2.58 0 0 0 3.644-.002c1.006-1.007 1.005-2.639-.002-3.644l-5.684-5.678a3.41 3.41 0 0 1-1.001-2.432 3.41 3.41 0 0 1 .999-2.43l4.555-4.542a3.45 3.45 0 0 1 4.203-.515 2.63 2.63 0 0 0 .324.397 2.58 2.58 0 0 0 .74.515l26.121 26.083a2.57 2.57 0 0 0 .517.748c.216.217.463.384.725.508a3.41 3.41 0 0 1 .858 2.273 3.41 3.41 0 0 1-1.001 2.432l-4.55 4.545c-1.345 1.338-3.532 1.338-4.872.004l-5.684-5.685a2.58 2.58 0 0 0-3.644 0 2.58 2.58 0 0 0 0 3.644l5.689 5.689a8.58 8.58 0 0 0 6.072 2.5 8.59 8.59 0 0 0 6.078-2.504l4.553-4.548a8.53 8.53 0 0 0 2.512-6.078c0-1.642-.457-3.211-1.306-4.563l9.655-9.644.031-.031c1.106-1.143 4.184-.929 7.162-.722 2.115.147 4.474.31 6.778.045l10.573 10.56c-.685 1.249-1.051 2.659-1.051 4.127 0 2.299.892 4.456 2.512 6.074l4.554 4.548a8.54 8.54 0 0 0 6.077 2.508c2.299 0 4.458-.89 6.077-2.508l27.618-27.584a8.53 8.53 0 0 0 2.512-6.078 8.53 8.53 0 0 0-2.514-6.079zM60.374 26.465l11.178 2.116-6.69 6.688c-1.035-.497-2.453-1.425-4.01-2.914-2.13-2.038-3.654-4.39-3.792-5.858a2.43 2.43 0 0 1-.012-.257c.337-.082 1.232-.173 3.326.225zM47.31 28.566a3.8 3.8 0 0 1 4.808-.456c.836 3.505 3.826 6.681 5.171 7.968.997.954 4.195 3.814 7.424 4.6.437.626.674 1.373.674 2.16 0 1.014-.39 1.963-1.101 2.673a3.75 3.75 0 0 1-2.675 1.101 3.75 3.75 0 0 1-2.679-1.105h0l-.001-.001-11.621-11.6c-.709-.707-1.099-1.656-1.099-2.67s.39-1.963 1.099-2.671zM40.577 39.81c.709-.71 1.658-1.101 2.673-1.101a3.77 3.77 0 0 1 2.682 1.105l9.357 9.339c1.474 1.476 1.474 3.877.005 5.348-.713.71-1.666 1.101-2.684 1.101s-1.971-.391-2.681-1.098h0l-7.099-7.097c-.011-.011-.023-.021-.034-.032l-2.221-2.22a3.75 3.75 0 0 1-1.104-2.676 3.74 3.74 0 0 1 1.107-2.668zm-6.746 11.242a3.76 3.76 0 0 1 2.678-1.099 3.76 3.76 0 0 1 2.659 1.081l7.121 7.117c.71.707 1.101 1.655 1.101 2.668a3.74 3.74 0 0 1-1.104 2.67c-.709.708-1.659 1.098-2.675 1.098s-1.971-.391-2.681-1.098l-2.581-2.578-4.517-4.512a3.75 3.75 0 0 1-1.104-2.674 3.75 3.75 0 0 1 1.104-2.674zm-4.488 13.506c.713-.712 1.665-1.104 2.681-1.104a3.77 3.77 0 0 1 2.681 1.103l2.585 2.582c.71.707 1.101 1.655 1.101 2.668a3.74 3.74 0 0 1-1.107 2.673 3.75 3.75 0 0 1-2.675 1.101c-1.017 0-1.967-.391-2.681-1.106l-.324-.322a.23.23 0 0 0-.027-.026l-2.233-2.224c-1.474-1.477-1.475-3.874-.003-5.344zm52.511 29.285c-1.006-1.007-2.637-1.008-3.644-.002l-2.292 2.29c-2.178 2.178-6.126 1.904-9.943 1.639-4.145-.288-8.432-.585-11.205 2.263l-9.491 9.479-23.734-23.699 8.399-8.384a8.89 8.89 0 0 0 4.666 1.307 8.86 8.86 0 0 0 6.317-2.609 8.85 8.85 0 0 0 2.619-6.319c0-.022-.002-.044-.002-.067l.067.001a8.87 8.87 0 0 0 6.314-2.603c1.688-1.682 2.618-3.926 2.618-6.32 0-.022-.002-.044-.002-.067.023 0 .045.002.068.002a8.9 8.9 0 0 0 6.326-2.608c1.755-1.758 2.623-4.072 2.607-6.382l.069.002c2.395 0 4.64-.928 6.32-2.611a8.88 8.88 0 0 0 2.611-6.317c0-1.673-.455-3.273-1.303-4.658l7.362-7.359a3.78 3.78 0 0 1 1.934-1.031 2.6 2.6 0 0 0 .228-.035 3.79 3.79 0 0 1 3.202 1.061c1.474 1.476 1.474 3.878.005 5.348l-2.242 2.233c-.008.008-.015.014-.023.022l-2.582 2.578c-1.007 1.005-1.008 2.637-.002 3.644s2.637 1.008 3.644.002l2.251-2.248.342-.34c1.478-1.464 3.871-1.461 5.347.013.71.707 1.102 1.655 1.102 2.668a3.74 3.74 0 0 1-1.107 2.673l-2.255 2.259-2.583 2.573c-1.008 1.004-1.012 2.636-.007 3.644a2.58 2.58 0 0 0 3.644.007l2.594-2.583a3.75 3.75 0 0 1 2.675-1.101c1.016 0 1.967.391 2.681 1.106.71.707 1.101 1.655 1.101 2.668a3.74 3.74 0 0 1-1.105 2.672l-4.496 4.497c-1.006 1.007-1.006 2.638.001 3.644a2.57 2.57 0 0 0 3.644-.001l2.203-2.204.039-.035a3.75 3.75 0 0 1 2.675-1.101c1.016 0 1.966.391 2.678 1.104 1.472 1.47 1.471 3.868 0 5.341l-2.24 2.237-3.56 3.556a2.58 2.58 0 0 0-.002 3.644 2.57 2.57 0 0 0 3.644.002l1.74-1.737 8.335 8.325-23.733 23.704-8.503-8.493c.593-.382 1.16-.83 1.692-1.362l2.291-2.288a2.58 2.58 0 0 0 .003-3.644zm43.26 3.191l-27.618 27.584a3.42 3.42 0 0 1-2.435 1.001 3.42 3.42 0 0 1-2.435-1.001l-4.553-4.548c-.645-.644-1.001-1.507-1.001-2.428s.355-1.783 1.001-2.428l27.618-27.584a3.42 3.42 0 0 1 2.435-1.001c.924 0 1.789.355 2.437 1.002l4.552 4.539a3.41 3.41 0 0 1 1.001 2.431c-.001.924-.356 1.787-1.001 2.432zM31.556 14.475a2.57 2.57 0 0 0 3.644-.004c1.005-1.007 1.004-2.639-.004-3.644l-9.39-9.371C24.8.451 23.168.452 22.163 1.46s-1.004 2.639.004 3.644l9.39 9.371zm66.611.752a2.57 2.57 0 0 0 1.821-.753l9.383-9.371c1.007-1.006 1.008-2.637.002-3.644s-2.637-1.008-3.644-.002l-9.382 9.371c-1.007 1.006-1.008 2.637-.002 3.644a2.57 2.57 0 0 0 1.823.755zm-81.596 95.612c-.998 1.014-.984 2.646.031 3.644l.007.007a2.56 2.56 0 0 0 1.801.737 2.57 2.57 0 0 0 1.839-.772c.998-1.015.98-2.65-.035-3.648a2.58 2.58 0 0 0-3.644.032zm71.59-20.708a2.58 2.58 0 0 0 2.303-3.738c-.641-1.271-2.191-1.781-3.461-1.14l-.014.007a2.57 2.57 0 0 0-1.133 3.457c.452.898 1.362 1.414 2.305 1.414z"/></g><defs><clipPath id="A"><path fill="#fff" transform="translate(.5)" d="M0 0h131v131H0z"/></clipPath></defs></svg>