<svg xmlns="http://www.w3.org/2000/svg" width="72" height="72" fill="#56c04d"  xmlns:v="https://vecta.io/nano"><path d="M62.398 0h-31.2a3.6 3.6 0 0 0-3.6 3.6v13.808l-12.218 9.38a5.97 5.97 0 0 0-2.621 3.619L6.321 56.16c-.215.857-.323 1.738-.323 2.622V72h2.4V58.782a8.38 8.38 0 0 1 .251-2.04l6.439-25.756a3.58 3.58 0 0 1 1.606-2.186l.102-.07 10.8-8.292v15.065l-4.448 4.448 1.697 1.697 15.559-15.557c1.189-1.188 3.116-1.188 4.304.001a3.04 3.04 0 0 1 .891 2.151v.187c.002.716-.251 1.409-.712 1.956l-9.779 10.808a1.2 1.2 0 0 0-.295.988l.091.6c1.2 7.812-3.228 14.596-11.28 17.28l.758 2.28A20.12 20.12 0 0 0 33.45 56.4h8.64l-4.518 6.454a13.13 13.13 0 0 1-6.179 4.79l-5.419 2.032a1.2 1.2 0 0 0-.776 1.124V72h2.4v-.368l4.64-1.74c2.952-1.103 5.499-3.077 7.303-5.662l5.482-7.83h17.375a3.6 3.6 0 0 0 3.6-3.6V3.6a3.6 3.6 0 0 0-3.6-3.6zm1.2 52.8a1.2 1.2 0 0 1-1.2 1.2h-27.24c2.035-3.496 2.783-7.595 2.113-11.585v-.034l9.416-10.409a5.45 5.45 0 0 0 1.31-3.542v-.187c.001-3.006-2.435-5.443-5.44-5.444-1.445 0-2.83.574-3.851 1.595l-8.708 8.708V3.6a1.2 1.2 0 0 1 1.2-1.2h31.2a1.2 1.2 0 0 1 1.2 1.2v49.2zM59.18 13.779a5.93 5.93 0 0 0 .823-2.978 6 6 0 1 0-12 0 5.93 5.93 0 0 0 .823 2.978 5.99 5.99 0 1 0 10.354 0zm-4.032 6.443a3.57 3.57 0 0 1-1.144.178c-1.97.018-3.581-1.564-3.599-3.533a3.55 3.55 0 0 1 .178-1.147 5.95 5.95 0 0 0 6.84 0 3.57 3.57 0 0 1-2.274 4.502zM54.004 14.4a3.6 3.6 0 1 1 0-7.2 3.6 3.6 0 1 1 0 7.2zM34.798 7.201h-2.4v18h2.4v-18zM39.599 8.4h-2.4v12h2.4v-12zM48 36h-2.4v4.8H48V36zm0 7.201h-2.4v6H48v-6zM56.4 26.4H54v24h2.4v-24zm4.801 0h-2.4v24h2.4v-24z"/></svg>