<svg xmlns="http://www.w3.org/2000/svg" width="63" height="63" fill="none"  xmlns:v="https://vecta.io/nano"><g clip-path="url(#A)" fill="#e47474"><path d="M57.929.018H10.026a5.08 5.08 0 0 0-5.071 5.071v3.29A5.08 5.08 0 0 0 0 13.447v3.783 9.469 17.93A5.08 5.08 0 0 0 5.071 49.7h13.99a1.23 1.23 0 0 0 0-2.46H5.071c-1.44 0-2.611-1.172-2.611-2.611v-16.7h53.126v16.7c0 1.413-1.129 2.565-2.531 2.607-1.259-5.87-6.487-10.285-12.728-10.285-7.178 0-13.017 5.839-13.017 13.017s5.84 13.017 13.017 13.017 13.017-5.839 13.017-13.017l-.004-.283c2.626-.188 4.705-2.383 4.705-5.056v-3.29C60.788 41.277 63 39.028 63 36.271V5.089A5.08 5.08 0 0 0 57.929.018zM40.326 60.526c-5.821 0-10.558-4.736-10.558-10.558a10.57 10.57 0 0 1 10.558-10.557 10.57 10.57 0 0 1 10.557 10.557c0 5.821-4.736 10.558-10.557 10.558zM55.585 25.47H2.459v-7.01H4.96a1.23 1.23 0 1 0 0-2.46H2.459v-2.553c0-1.44 1.172-2.611 2.611-2.611h47.903c1.44 0 2.611 1.172 2.611 2.611V16H14.256a1.23 1.23 0 1 0 0 2.46h41.329v7.01zm4.955 10.801c0 1.401-1.11 2.544-2.496 2.606V26.699 17.23v-3.783a5.08 5.08 0 0 0-5.071-5.071H7.415V5.089c0-1.44 1.172-2.611 2.611-2.611h47.903c1.44 0 2.611 1.172 2.611 2.611v31.182zM10.423 16.36a1.24 1.24 0 0 0-.869-.36c-.325 0-.641.131-.869.36a1.24 1.24 0 0 0-.36.869 1.23 1.23 0 0 0 .36.869 1.24 1.24 0 0 0 .869.36 1.24 1.24 0 0 0 1.23-1.23 1.24 1.24 0 0 0-.36-.869zm6.933 14.986a6.16 6.16 0 0 0-3.1.834 6.16 6.16 0 0 0-3.1-.834 6.21 6.21 0 0 0-6.201 6.201 6.21 6.21 0 0 0 6.201 6.201 6.16 6.16 0 0 0 3.1-.834 6.16 6.16 0 0 0 3.1.834 6.21 6.21 0 0 0 6.201-6.201 6.21 6.21 0 0 0-6.201-6.201zm-5.068 9.767c-.357.114-.737.175-1.132.175-2.063 0-3.741-1.678-3.741-3.741s1.678-3.741 3.741-3.741a3.73 3.73 0 0 1 1.132.175c-.712 1.009-1.133 2.239-1.133 3.566a6.16 6.16 0 0 0 1.133 3.566zm1.968-1.473a3.72 3.72 0 0 1 0-4.185 3.72 3.72 0 0 1 0 4.185zm3.1 1.649c-.394 0-.774-.062-1.131-.175.712-1.009 1.133-2.239 1.133-3.566a6.16 6.16 0 0 0-1.133-3.566 3.71 3.71 0 0 1 1.131-.175c2.063 0 3.741 1.678 3.741 3.741s-1.678 3.741-3.741 3.741zm6.999 6.31a1.24 1.24 0 0 0-.869-.36 1.24 1.24 0 0 0-1.23 1.23c0 .325.131.641.36.869s.546.36.87.36a1.23 1.23 0 0 0 .869-.36 1.24 1.24 0 0 0 .36-.869 1.24 1.24 0 0 0-.36-.869zm15.973 1.232c-1.161 0-2.105-.806-2.105-1.796s.944-1.796 2.105-1.796 2.105.806 2.105 1.796a1.23 1.23 0 0 0 2.46 0c0-1.95-1.413-3.596-3.334-4.098v-.803a1.23 1.23 0 0 0-2.46 0v.803c-1.921.502-3.334 2.148-3.334 4.098 0 2.347 2.047 4.256 4.564 4.256 1.161 0 2.104.806 2.104 1.796s-.944 1.796-2.104 1.796-2.105-.806-2.105-1.796a1.23 1.23 0 0 0-2.46 0c0 1.95 1.413 3.596 3.334 4.098v.616a1.23 1.23 0 0 0 2.46 0v-.616c1.921-.502 3.334-2.148 3.334-4.098 0-2.347-2.048-4.256-4.564-4.256zm-.003-18.716a1.23 1.23 0 0 0-1.23 1.23v1.968a1.23 1.23 0 0 0 2.46 0v-1.968a1.23 1.23 0 0 0-1.23-1.23zm8.043 2.454a1.23 1.23 0 0 0-1.632.6l-.825 1.786a1.23 1.23 0 0 0 .601 1.632c.167.077.342.114.515.114a1.23 1.23 0 0 0 1.117-.714l.825-1.786a1.23 1.23 0 0 0-.601-1.632zm-13.624 2.387l-.825-1.786a1.23 1.23 0 0 0-1.632-.601 1.23 1.23 0 0 0-.6 1.632l.825 1.786a1.23 1.23 0 0 0 1.117.714c.173 0 .348-.037.515-.114a1.23 1.23 0 0 0 .6-1.632z"/></g><defs><clipPath id="A"><path fill="#fff" d="M0 0h63v63H0z"/></clipPath></defs></svg>