<svg xmlns="http://www.w3.org/2000/svg" width="67" height="67" fill="none"  xmlns:v="https://vecta.io/nano"><g clip-path="url(#A)" fill="#5db9c6"><path d="M65.854 25.577L41.425 1.148a3.93 3.93 0 0 0-5.552 0L12.42 24.601H3.928a3.93 3.93 0 0 0-3.926 3.926v34.548A3.93 3.93 0 0 0 3.928 67h20.516a1.31 1.31 0 0 0 1.309-1.309 1.31 1.31 0 0 0-1.309-1.309H3.928a1.31 1.31 0 0 1-1.309-1.309V28.526a1.31 1.31 0 0 1 1.309-1.309h52.811a1.31 1.31 0 0 1 1.309 1.309v34.548a1.31 1.31 0 0 1-1.309 1.309H36.222a1.31 1.31 0 0 0-1.309 1.309A1.31 1.31 0 0 0 36.222 67h20.516a3.93 3.93 0 0 0 3.926-3.926V36.319l5.189-5.189a3.93 3.93 0 0 0 0-5.552zM26.486 24.6L43.831 7.255l3.331 3.331L33.148 24.6h-6.662zM37.724 2.999a1.31 1.31 0 0 1 1.851 0l2.406 2.406-19.196 19.196h-6.662L37.724 2.999zm26.28 26.28l-3.339 3.339v-4.091a3.93 3.93 0 0 0-3.926-3.926H36.85l12.163-12.163 14.99 14.99a1.31 1.31 0 0 1 0 1.851zm-44.17 16.522a1.31 1.31 0 0 0-1.309-1.309H8.057a1.31 1.31 0 0 0-1.309 1.309v5.758a1.31 1.31 0 0 0 1.309 1.309h10.469a1.31 1.31 0 0 0 1.309-1.309v-5.758zm-2.617 4.449H9.365v-3.141h7.852v3.141zm7.066 2.617h11.516a1.31 1.31 0 0 0 1.309-1.309V45.8a1.31 1.31 0 0 0-1.309-1.309H24.283a1.31 1.31 0 0 0-1.309 1.309v5.758a1.31 1.31 0 0 0 1.309 1.309zm1.309-5.758h8.899v3.141h-8.899v-3.141zm14.656-1.308v5.758a1.31 1.31 0 0 0 1.309 1.309h11.516a1.31 1.31 0 0 0 1.309-1.309v-5.758a1.31 1.31 0 0 0-1.309-1.309H41.557a1.31 1.31 0 0 0-1.309 1.309zm2.617 1.309h8.899v3.141h-8.899V47.11z"/><path d="M53.086 31.668H42.617a1.31 1.31 0 0 0-1.309 1.309 1.31 1.31 0 0 0 1.309 1.309h10.469a1.31 1.31 0 0 0 1.309-1.309 1.31 1.31 0 0 0-1.309-1.309zm.003 6.281h-5.093a1.31 1.31 0 0 0-1.309 1.309 1.31 1.31 0 0 0 1.309 1.309h5.093a1.31 1.31 0 0 0 1.309-1.309 1.31 1.31 0 0 0-1.309-1.309zM18.526 56.008H8.057a1.31 1.31 0 0 0-1.309 1.309 1.31 1.31 0 0 0 1.309 1.309h10.469a1.31 1.31 0 0 0 1.309-1.309 1.31 1.31 0 0 0-1.309-1.309zm17.535 1.308a1.31 1.31 0 0 0-1.309-1.309H24.283a1.31 1.31 0 0 0-1.309 1.309 1.31 1.31 0 0 0 1.309 1.309h10.469a1.31 1.31 0 0 0 1.309-1.309zm-5.729 7.067a1.32 1.32 0 0 0-1.309 1.308c0 .344.14.682.384.925a1.32 1.32 0 0 0 .925.383 1.32 1.32 0 0 0 1.309-1.309 1.32 1.32 0 0 0-1.309-1.309zM11.258 41.614a4.98 4.98 0 0 0 4.973-4.973 4.98 4.98 0 0 0-4.973-4.973 4.98 4.98 0 0 0-4.973 4.973 4.98 4.98 0 0 0 4.973 4.973zm0-7.328a2.36 2.36 0 0 1 2.356 2.356 2.36 2.36 0 0 1-2.356 2.355 2.36 2.36 0 0 1-2.355-2.355 2.36 2.36 0 0 1 2.355-2.356z"/></g><defs><clipPath id="A"><path fill="#fff" d="M0 0h67v67H0z"/></clipPath></defs></svg>