<svg xmlns="http://www.w3.org/2000/svg" width="65" height="65" fill="#9c56bd"  xmlns:v="https://vecta.io/nano"><path d="M11.94 5.922H1.779A1.78 1.78 0 0 0 0 7.701v10.161a1.78 1.78 0 0 0 1.779 1.779H11.94a1.78 1.78 0 0 0 1.779-1.779v-4.283a.951.951 0 1 0-1.902 0v4.16H1.902V7.824h9.916v1.308a.951.951 0 1 0 1.902 0v-1.43a1.78 1.78 0 0 0-1.779-1.779zM29.448 9.75l-2.652-.385-1.186-2.403a1.86 1.86 0 0 0-1.677-1.042 1.86 1.86 0 0 0-1.677 1.042L21.07 9.365l-2.651.385a1.86 1.86 0 0 0-1.51 1.273 1.86 1.86 0 0 0 .473 1.917l1.919 1.87-.453 2.641a1.86 1.86 0 0 0 .744 1.829c.328.238.711.359 1.097.359a1.87 1.87 0 0 0 .872-.217l2.372-1.247 2.372 1.247a1.86 1.86 0 0 0 2.713-1.971l-.453-2.641 1.919-1.87a1.86 1.86 0 0 0 .473-1.917c-.221-.682-.8-1.17-1.509-1.273zm-2.222 3.71a1.87 1.87 0 0 0-.538 1.655l.445 2.594-2.329-1.225a1.87 1.87 0 0 0-1.74 0l-2.329 1.224.445-2.594a1.87 1.87 0 0 0-.538-1.655l-1.884-1.837 2.604-.378a1.87 1.87 0 0 0 1.408-1.023l1.165-2.36 1.165 2.36a1.87 1.87 0 0 0 1.408 1.023l2.604.379-1.885 1.837zm19.196-3.709l-2.652-.385-1.186-2.403a1.86 1.86 0 0 0-1.677-1.043 1.86 1.86 0 0 0-1.677 1.042l-1.186 2.403-2.652.385a1.86 1.86 0 0 0-1.51 1.273 1.86 1.86 0 0 0 .473 1.917l1.919 1.87-.453 2.641a1.86 1.86 0 0 0 2.713 1.971l2.372-1.247 2.372 1.247a1.87 1.87 0 0 0 .872.217 1.86 1.86 0 0 0 1.841-2.188l-.453-2.641 1.919-1.87a1.86 1.86 0 0 0 .473-1.917 1.86 1.86 0 0 0-1.509-1.273zM44.2 13.46a1.87 1.87 0 0 0-.538 1.655l.445 2.594-2.329-1.224a1.87 1.87 0 0 0-1.74 0l-2.329 1.224.445-2.594a1.87 1.87 0 0 0-.538-1.655l-1.884-1.837 2.604-.378a1.87 1.87 0 0 0 1.408-1.023l1.165-2.36 1.165 2.36a1.87 1.87 0 0 0 1.408 1.023l2.604.379L44.2 13.46zm20.706-2.437a1.86 1.86 0 0 0-1.51-1.273l-2.652-.385-1.186-2.403a1.86 1.86 0 0 0-1.677-1.042 1.86 1.86 0 0 0-1.677 1.042L55.02 9.365l-2.651.385a1.86 1.86 0 0 0-1.509 1.273 1.86 1.86 0 0 0 .473 1.917l1.919 1.87-.453 2.641a1.86 1.86 0 0 0 .744 1.829c.328.238.711.359 1.097.359a1.87 1.87 0 0 0 .872-.217l2.372-1.247 2.372 1.247a1.86 1.86 0 0 0 2.713-1.971l-.453-2.641 1.919-1.87a1.86 1.86 0 0 0 .473-1.917zm-3.732 2.437a1.87 1.87 0 0 0-.538 1.655l.445 2.594-2.329-1.225a1.87 1.87 0 0 0-1.74 0l-2.329 1.224.445-2.594a1.87 1.87 0 0 0-.538-1.655l-1.884-1.837 2.604-.378a1.87 1.87 0 0 0 1.408-1.023l1.165-2.36 1.165 2.36a1.87 1.87 0 0 0 1.408 1.023l2.604.379-1.885 1.837z"/><path d="M8.534 10.304l-2.25 2.886-1.139-1.272a.951.951 0 1 0-1.417 1.269l1.898 2.12a.95.95 0 0 0 .708.317l.032-.001a.95.95 0 0 0 .718-.366l2.95-3.783a.951.951 0 1 0-1.5-1.169zm3.406 15.337H1.779A1.78 1.78 0 0 0 0 27.42v10.161a1.78 1.78 0 0 0 1.779 1.779h1.432a.951.951 0 1 0 0-1.902h-1.31v-9.916h9.916v9.916H7.614a.951.951 0 1 0 0 1.902h4.326a1.78 1.78 0 0 0 1.779-1.779V27.42a1.78 1.78 0 0 0-1.779-1.779zm17.508 3.83l-2.652-.385-1.186-2.403a1.86 1.86 0 0 0-1.677-1.042 1.86 1.86 0 0 0-1.677 1.042l-1.186 2.403-2.651.385a1.86 1.86 0 0 0-1.037 3.19l1.919 1.87-.453 2.641a1.86 1.86 0 0 0 .744 1.829c.328.238.711.359 1.097.359a1.87 1.87 0 0 0 .872-.217l2.372-1.247 2.372 1.247a1.86 1.86 0 0 0 2.713-1.971l-.453-2.641 1.919-1.87a1.86 1.86 0 0 0-1.036-3.19zm-2.222 3.71a1.87 1.87 0 0 0-.538 1.655l.445 2.594-2.329-1.224a1.87 1.87 0 0 0-1.74 0l-2.329 1.224.445-2.593a1.87 1.87 0 0 0-.538-1.655l-1.884-1.837 2.604-.378a1.87 1.87 0 0 0 1.408-1.023l1.165-2.36 1.165 2.36a1.87 1.87 0 0 0 1.408 1.023l2.604.379-1.885 1.837zm19.196-3.71l-2.652-.385-1.186-2.403a1.86 1.86 0 0 0-1.677-1.042 1.86 1.86 0 0 0-1.677 1.042l-1.186 2.403-2.652.385a1.86 1.86 0 0 0-1.037 3.19l1.919 1.87-.453 2.641a1.86 1.86 0 0 0 2.713 1.971l2.372-1.247 2.372 1.247a1.87 1.87 0 0 0 .872.217 1.86 1.86 0 0 0 1.841-2.188l-.453-2.641 1.919-1.87a1.86 1.86 0 0 0-1.036-3.19zm-2.222 3.71a1.87 1.87 0 0 0-.538 1.655l.445 2.594-2.329-1.224a1.87 1.87 0 0 0-1.74 0l-2.329 1.224.445-2.593a1.87 1.87 0 0 0-.538-1.655l-1.884-1.837 2.604-.378a1.87 1.87 0 0 0 1.408-1.023l1.165-2.36 1.165 2.36a1.87 1.87 0 0 0 1.408 1.023l2.604.379-1.885 1.837zm-32.26 12.18H1.779A1.78 1.78 0 0 0 0 47.141v10.161a1.78 1.78 0 0 0 1.779 1.779H11.94a1.78 1.78 0 0 0 1.779-1.779V47.141a1.78 1.78 0 0 0-1.779-1.779zm-.123 11.818H1.902v-9.916h9.916v9.916zm17.631-7.987l-2.652-.385-1.186-2.403a1.86 1.86 0 0 0-1.677-1.042 1.86 1.86 0 0 0-1.677 1.042l-1.186 2.403-2.651.385a1.86 1.86 0 0 0-1.037 3.19l1.919 1.87-.453 2.641a1.86 1.86 0 0 0 .744 1.829c.328.238.711.359 1.097.359.297 0 .596-.072.872-.217l2.372-1.247 2.372 1.247a1.86 1.86 0 0 0 2.713-1.971l-.453-2.641 1.919-1.87a1.86 1.86 0 0 0 .473-1.917c-.221-.682-.8-1.17-1.509-1.273zm-2.222 3.71a1.87 1.87 0 0 0-.538 1.655l.445 2.594-2.329-1.225a1.87 1.87 0 0 0-1.74 0l-2.329 1.225.445-2.594a1.87 1.87 0 0 0-.538-1.655l-1.884-1.837 2.604-.378a1.87 1.87 0 0 0 1.408-1.023l1.165-2.36 1.165 2.36a1.87 1.87 0 0 0 1.408 1.023l2.604.379-1.885 1.837z"/></svg>