<svg xmlns="http://www.w3.org/2000/svg" xmlns:xlink="http://www.w3.org/1999/xlink" width="61" height="61" fill="none" xmlns:v="https://vecta.io/nano"><g fill="#3b5597"><path d="M18.563 55.206v-2.041a1.85 1.85 0 0 0-1.847-1.847h-5.989a1.85 1.85 0 0 0-1.847 1.847v2.041a1.85 1.85 0 0 0 1.847 1.847h5.989a1.85 1.85 0 0 0 1.847-1.847zm-7.895 0v-2.041c0-.033.027-.059.059-.059h5.989c.033 0 .059.027.059.059v2.041c0 .033-.027.059-.059.059h-5.989c-.033 0-.059-.027-.059-.059z"/><use xlink:href="#B"/><path d="M53.193 33.554h-1.08v-5.028-7.895a2.87 2.87 0 0 0-2.867-2.867h-1.08V5.828c0-1.037-.844-1.88-1.881-1.88H28.521c-.032 0-.062.003-.093.005V2.8c0-1.544-1.256-2.8-2.8-2.8H9.702c-1.544 0-2.8 1.256-2.8 2.8v3.215c0 .493.4.894.894.894s.894-.4.894-.894V2.8c0-.558.454-1.013 1.013-1.013h1.148v23.872H8.69V9.589c0-.493-.4-.894-.894-.894s-.894.4-.894.894v8.258c-.975.181-1.869.655-2.576 1.383a4.8 4.8 0 0 0-1.37 3.347l-.001.029v33.554A4.85 4.85 0 0 0 7.796 61h4.134c.493 0 .894-.4.894-.894s-.4-.894-.894-.894H7.796a3.06 3.06 0 0 1-3.054-3.054V26.32c.817.669 1.852 1.085 2.974 1.122.026.002 41.529.004 41.529.004a1.08 1.08 0 0 1 1.08 1.08v8.975H39.376a2.87 2.87 0 0 0-2.867 2.867v7.895a2.87 2.87 0 0 0 2.867 2.867h10.949v7.001a1.08 1.08 0 0 1-1.08 1.08H15.505c-.494 0-.893.4-.893.894s.4.894.893.894h33.741a2.87 2.87 0 0 0 2.867-2.867v-7.001h1.08a4.85 4.85 0 0 0 4.841-4.841v-7.895a4.85 4.85 0 0 0-4.841-4.841zM4.743 22.691c-.023-.833.284-1.62.864-2.216.365-.375.809-.645 1.296-.792v5.821c-1.22-.396-2.123-1.506-2.159-2.813zM28.521 5.735h17.764c.051 0 .093.042.093.093v19.831h-2.16V11.324c0-.654-.446-1.211-1.084-1.353-.456-.102-.892-.538-.992-.992a1.39 1.39 0 0 0-1.353-1.084h-6.773c-.654 0-1.21.446-1.353 1.084-.102.457-.538.892-.992.992a1.39 1.39 0 0 0-1.084 1.353v14.335h-2.16V5.828c0-.051.042-.093.093-.093zm13.91 19.924H32.375V11.626c.889-.309 1.634-1.054 1.944-1.944h6.168c.309.888 1.054 1.634 1.944 1.944v14.033zM26.64 2.8v3.028 19.831H16.585V1.787h9.043c.558 0 1.013.454 1.013 1.013zM12.637 25.659V1.787h2.16v23.872h-2.16zm36.608 0h-1.08v-6.108h1.08a1.08 1.08 0 0 1 1.08 1.08v5.24a2.85 2.85 0 0 0-1.08-.212zm7.001 20.631a3.06 3.06 0 0 1-3.054 3.054H39.376a1.08 1.08 0 0 1-1.08-1.08v-7.895a1.08 1.08 0 0 1 1.08-1.08h12.829c.493 0 .893-.4.893-.893s-.4-.894-.893-.894h-.093v-2.16h1.08a3.06 3.06 0 0 1 3.054 3.054v7.895h0z"/><use xlink:href="#B" x="-5.917" y="-23.685"/><path d="M37.407 15.603c.493 0 .894-.4.894-.894v-1.974c0-.494-.4-.894-.894-.894s-.894.4-.894.894v1.974c0 .493.4.894.894.894zm-16.814-3.947h2.041a1.85 1.85 0 0 0 1.847-1.847V5.794a1.85 1.85 0 0 0-1.847-1.847h-2.041a1.85 1.85 0 0 0-1.847 1.847v4.015a1.85 1.85 0 0 0 1.847 1.847zm-.06-5.862a.06.06 0 0 1 .06-.06h2.041a.06.06 0 0 1 .06.06v4.015a.06.06 0 0 1-.06.06h-2.041a.06.06 0 0 1-.06-.06V5.794z"/></g><defs ><path id="B" d="M43.32 41.449a2.87 2.87 0 0 0-2.867 2.867 2.87 2.87 0 0 0 2.867 2.867 2.87 2.87 0 0 0 2.867-2.867 2.87 2.87 0 0 0-2.867-2.867zm0 3.948a1.08 1.08 0 1 1 0-2.16 1.08 1.08 0 1 1 0 2.16z"/></defs></svg>