<svg xmlns="http://www.w3.org/2000/svg" width="17" height="17" fill="#000" xmlns:v="https://vecta.io/nano"><path d="M16.892 8.169c-.152-.208-3.77-5.087-8.392-5.087S.26 7.962.108 8.169a.56.56 0 0 0 0 .662c.152.208 3.77 5.087 8.392 5.087s8.24-4.879 8.392-5.087a.56.56 0 0 0 0-.661zM8.5 12.797c-3.404 0-6.353-3.238-7.226-4.297.872-1.06 3.814-4.296 7.226-4.296 3.404 0 6.352 3.238 7.226 4.297-.872 1.06-3.814 4.296-7.226 4.296zm0-7.66A3.37 3.37 0 0 0 5.137 8.5 3.37 3.37 0 0 0 8.5 11.863 3.37 3.37 0 0 0 11.863 8.5 3.37 3.37 0 0 0 8.5 5.137zm0 5.604c-1.236 0-2.242-1.006-2.242-2.242S7.264 6.258 8.5 6.258s2.242 1.006 2.242 2.242-1.006 2.242-2.242 2.242z"/></svg>