<svg xmlns="http://www.w3.org/2000/svg" viewBox="0 0 262 45" fill="none" width="800" height="137" xmlns:v="https://vecta.io/nano"><g clip-path="url(#A)"><g fill="#3dae2b"><path d="M105.917 11.354c-1.862-1.058-3.851-1.589-5.966-1.589-2.927 0-5.516 1.02-7.767 3.056-2.571 2.341-3.856 5.266-3.856 8.778 0 3.277 1.135 6.06 3.41 8.355s5.019 3.437 8.232 3.437c2.185 0 4.184-.522 5.999-1.561s3.246-2.482 4.296-4.325a11.81 11.81 0 0 0 1.576-5.948 11.59 11.59 0 0 0-1.566-5.886c-1.046-1.814-2.496-3.254-4.358-4.316zm-1.496 14.956c-1.168 1.227-2.636 1.838-4.4 1.838s-3.218-.606-4.367-1.819-1.721-2.797-1.721-4.753c0-1.899.582-3.46 1.745-4.678s2.617-1.829 4.367-1.829c1.792 0 3.26.602 4.409 1.805s1.726 2.774 1.726 4.702-.586 3.507-1.759 4.734zm46.601-16.545c-3.326 0-6.089 1.133-8.293 3.399s-3.307 5.111-3.307 8.543c0 3.348 1.107 6.131 3.316 8.355s5.075 3.334 8.593 3.334c2.266 0 4.226-.404 5.873-1.208s3.063-2.05 4.245-3.728l-4.738-2.229a7.49 7.49 0 0 1-5.422 2.21c-1.759 0-3.204-.47-4.339-1.415s-1.829-2.214-2.092-3.813h18.073l.019-1.072c0-3.719-1.107-6.709-3.317-8.975s-5.084-3.399-8.611-3.399zm-5.915 9.008c.633-1.392 1.323-2.36 2.064-2.91 1.182-.884 2.561-1.321 4.127-1.321 1.445 0 2.716.39 3.809 1.175s1.829 1.805 2.2 3.061h-12.2v-.005zm61.587-8.429l-5.652 13.263-5.662-13.263h-5.732l9.56 22.474h3.649l9.54-22.474h-5.703zm17.303-.579c-3.325 0-6.088 1.133-8.293 3.399s-3.307 5.111-3.307 8.543c0 3.348 1.107 6.131 3.317 8.355s5.075 3.334 8.593 3.334c2.265 0 4.226-.404 5.872-1.208s3.063-2.05 4.245-3.728l-4.737-2.229c-1.511 1.472-3.316 2.21-5.422 2.21-1.759 0-3.204-.47-4.339-1.415s-1.83-2.214-2.092-3.813h18.072l.019-1.072c0-3.719-1.107-6.709-3.316-8.975s-5.08-3.399-8.612-3.399zm-5.91 9.008c.633-1.392 1.323-2.36 2.064-2.91 1.182-.884 2.561-1.321 4.128-1.321 1.444 0 2.715.39 3.808 1.175s1.83 1.805 2.2 3.061h-12.2v-.005zm42.351-3.098a11.5 11.5 0 0 0-4.357-4.321 11.89 11.89 0 0 0-5.967-1.589c-2.927 0-5.516 1.02-7.767 3.056-2.571 2.341-3.856 5.266-3.856 8.778 0 3.277 1.135 6.06 3.41 8.355s5.019 3.437 8.232 3.437c2.186 0 4.184-.522 5.999-1.561s3.246-2.482 4.297-4.325a11.82 11.82 0 0 0 1.576-5.948 11.69 11.69 0 0 0-1.567-5.882zM254.58 26.31c-1.168 1.227-2.637 1.838-4.4 1.838s-3.218-.606-4.367-1.819-1.722-2.797-1.722-4.753c0-1.899.582-3.46 1.745-4.678s2.618-1.829 4.367-1.829c1.792 0 3.26.602 4.409 1.805s1.726 2.774 1.726 4.697c-.004 1.937-.586 3.512-1.758 4.739zM125.646 9.812c-6.182 0-11.215 5.045-11.215 11.242v11.754h5.483V21.054c0-3.169 2.57-5.745 5.732-5.745s5.732 2.576 5.732 5.745v11.754h5.483V21.054c0-6.201-5.028-11.242-11.215-11.242zm-51.085 0c-3.41 0-6.468 1.537-8.527 3.949-2.059-2.417-5.117-3.949-8.527-3.949-6.182 0-11.215 5.045-11.215 11.242v11.754h5.483V21.054c0-3.169 2.57-5.745 5.732-5.745s5.732 2.576 5.732 5.745v11.754h.103 5.375.103V21.054c0-3.169 2.57-5.745 5.732-5.745s5.732 2.576 5.732 5.745v11.754h5.483V21.054c.005-6.201-5.024-11.242-11.206-11.242zm107.85 4.928v7.372c0 3.169-2.571 5.745-5.732 5.745s-5.732-2.576-5.732-5.745V10.358h-5.483v11.754c0 6.197 5.028 11.242 11.215 11.242a11.12 11.12 0 0 0 5.732-1.584v1.458c0 3.169-2.571 5.745-5.732 5.745v5.496c6.14 0 11.14-4.974 11.21-11.115h.005V22.112 14.74v-4.382h-5.483v4.382z"/></g><path d="M21.164 8.75h17.871l-8.964 23.771H12.2L21.164 8.75z" fill="#915fff"/><path d="M17.805 0H0l12.228 32.521h17.805L17.805 0z" fill="#3dae2b"/><path d="M12.214 32.483l.014.038h17.805L21.131 8.839l-8.917 23.644z" fill="#2c608a"/></g><defs><clipPath id="A"><path fill="#fff" d="M0 0h262v44.468H0z"/></clipPath></defs></svg>