<svg xmlns="http://www.w3.org/2000/svg" width="1000" height="300" xmlns:v="https://vecta.io/nano"><path d="M426 114.6c6.5-6.4 15.7-9 24.6-9.5 9.5-.4 19.7.9 27.7 6.5 3.9 2.6 6.8 6.4 9.1 10.5l-12.9 6.7c-5.1-7-14.2-10.1-22.6-9.6-4.9.2-10.4 1.4-13.7 5.3-2.9 3.2-3.1 8.9.3 11.8 4.9 3.9 11.5 4.3 17.5 5.2 9 1.2 18.6 2.8 25.9 8.5 8.2 6.5 9.8 18.6 6.6 28-2.7 7.9-10 13.3-17.8 15.8-10.5 3.3-21.9 3.3-32.6.7-9.9-2.4-18.9-9.7-22-19.6 4.4-2.2 8.9-4.4 13.2-6.9 3.2 6.8 9.7 11.6 17.1 12.9 7.7 1.4 16.6 1.3 23.2-3.5 5.3-3.8 5.7-12.8.1-16.5-7.4-5.1-16.8-4.3-25.3-6.3-8-1.7-16.6-4.7-21.2-11.9-5.3-8.4-4.5-20.8 2.8-28.1zm-169.4 5c16.9-17.8 48.6-17.8 65.6-.1-3.7 3.4-7.2 7-10.8 10.5-10.9-10.4-29.8-11-41.2-1.1-13.1 11.7-12.8 35.6 1.2 46.5 12 8.7 30.1 7.3 40.6-3.1 3.8 3.6 7.5 7.5 11.2 11.2-8.9 8.9-21.6 13.3-34 12.8-13.3.1-27.3-5-35.5-15.9-13.1-17.6-12.1-44.7 2.9-60.8zm93 8c3.1-6.5 5.7-13.4 9.1-19.7a243.75 243.75 0 0 0 17.1 0c5.2 10 9.4 20.6 14.1 30.8l25 55.7c-5.9-.2-12 .4-17.8-.3-2.8-5.3-4.7-11-7.6-16.2h-44.6c-3.2 5.2-4.7 11.6-8.2 16.5l-17.2.1 30.1-66.9zm1.6 35.2h32.1l-15.9-36.4c-5.9 12-10.6 24.4-16.2 36.4zm151.4-54.6c5.4-.3 10.9.3 16.3-.2v36.5h42.4v-36.3c5.4.1 10.8 0 16.2 0v86.3h-16.2v-35c-14.1 0-28.2.1-42.3-.1v35h-16.4v-86.2z" fill="#151922"/><path d="M592.4 107.9h40.2c7.4.1 15.3 1.2 21.5 5.7 7.6 5.4 10.5 15.8 8.3 24.7-1.3 5.2-5.6 8.9-10.1 11.4 14.4 4.9 17.6 25.6 7.5 36.1-6.4 6.7-16.1 8.2-24.9 8.5h-42.4l-.1-86.4zm16 34.6c7.4.5 14.8.1 22.2.2 4.7-.1 10.2 0 14-3.4 3.4-3.1 3-8.7.1-12-2.6-3.2-6.9-4.5-10.9-4.5-8.4-.1-16.8.1-25.2-.1-.4 6.6 0 13.2-.2 19.8zm0 14.5v22.1l24.3.1c4.9.1 10.3-.6 14.1-4 3.4-2.9 3.5-8.4.8-11.8-3.5-4.4-9.4-6.3-14.9-6.3l-24.3-.1zm68.6-49h64.6c.1 5.2-.1 10.4.1 15.6-16.2.6-32.4 0-48.7.3v19.7h46.7c.1 5.1 0 10.2 0 15.3H693v19.5h48.5v16h-64.7l.2-86.4zm77.2-.2l41.1.1c7.5.1 15.3 2 21.2 7 12.9 10.3 13.5 32.7.7 43.3-3.6 3-8 4.5-12.4 5.6 8.5 10.4 18.3 19.9 26.4 30.5-6.6.1-13.3.1-19.9 0l-25.1-28.8c-5.2-.1-10.4 0-15.6 0l-.1 28.9h-16.3v-86.6zm16.4 15.5v27.5c9.3-.2 18.5.2 27.8-.2 7.5-.7 13-8.3 11.6-15.6-.6-6.3-6.3-11.5-12.6-11.6-8.9-.3-17.9 0-26.8-.1zm66.9-15.4c13.2-.2 26.4 0 39.6 0 7.9 0 16.2 1.7 22.5 6.8 12.1 9.5 13.6 29.4 3.6 40.9-3.9 4.5-9.6 6.8-15.2 8.2 7.8 8.4 15.2 17.2 22.9 25.7 1.3 1.5 2.8 2.9 3.5 4.9-6 .1-11.9 0-17.9 0-1.2.1-2.2-.4-2.9-1.4l-24.1-27.6c-5.2.1-10.4 0-15.6 0v28.9c-5.4-.1-10.9.2-16.3-.2l-.1-86.2zm16.3 15.4v27.4c9.4-.2 18.8.3 28.1-.2 7.8-.8 13.1-9.2 11.1-16.6-1-6-6.7-10.5-12.7-10.5-8.7-.2-17.6-.3-26.5-.1zm61.8-15.3c6.5-.1 13 0 19.5 0l21.8 35.5c8.1-11.6 15.3-23.9 23.3-35.6l19.7.1c-10 15.4-20.8 30.3-31.1 45.6-1.4 2.3-4 4.4-3.6 7.3v33.5h-16.3l-.1-35.6c-10.7-17.1-22.7-33.5-33.2-50.8zM133 7.8c25.4-2 51.4 2.9 74.3 14.2 1.4.8 3.3 1.3 4 2.9.9 1.9-.5 4.3-2.5 4.7-1.2.3-2.3-.3-3.3-.8-19.5-10-41.4-15-63.3-14.6-31.9.3-63.4 12.3-87.4 33.3-13.3 11.6-24.4 25.8-32.3 41.6-8.1 15.9-13 33.5-14.3 51.3-2.2 27.9 4.6 56.5 19.2 80.4 16 26.5 41.2 47.4 70.4 57.9 31.2 11.4 66.5 10.8 97.3-1.7 4.1-1.6 8-3.5 11.9-5.5 2.1-1 4.6.8 4.6 3 .1 1.5-.9 2.8-2.3 3.4-20.8 10.6-44.2 16.1-67.5 15.6-36.3-.2-72.1-15.5-97.9-40.9C31 240 20.5 224.9 13.2 208.3 2.2 183.6-1.4 155.8 2.6 129c4.8-32.6 21.5-63.3 46.2-85.2C71.9 23 102 10.1 133 7.8zM96.3 48.7l7-3v18.5c22-10.6 48.1-12.1 71.2-4.3 17.1 5.7 32.6 16.5 43.9 30.5 11.4 14 18.7 31.4 20.6 49.4.7 5.2.5 10.5.4 15.8-.9 17.7-6.9 35-17 49.5-9.3 13.3-22.1 24.3-36.8 31.3-18 8.8-38.9 11.5-58.6 7.9-16.2-2.9-31.6-10.2-44.2-20.8-17.5-14.5-29.5-35.5-32.9-58-1.6-9.1-1.1-18.4-1.2-27.6v-46l-.4-.2c2.2-3.5 4.6-7 7.2-10.2l.2 65.4c-.8 18.1 4.1 36.4 13.9 51.6 8.7 13.6 21.3 24.8 35.8 31.9 18.3 9 39.9 11.3 59.7 6.4 15.6-3.7 30.1-11.9 41.4-23.2 10.8-10.6 18.8-24.1 22.9-38.7 5.2-18.2 4.3-38.1-2.5-55.8-6-15.9-16.8-29.9-30.5-39.9-12.2-8.9-26.7-14.7-41.7-16.4-17.6-2.1-35.7 1.1-51.4 9.3V92v8.6V126c5.4-8.7 13.5-15.8 23.1-19.6 10.3-4.2 22-4.5 32.6-1.1 14.1 4.5 25.6 15.9 30.4 29.9 3.8 11 3.4 23.5-1.2 34.2-5.5 13-17 23.3-30.6 27.1-11.1 3.2-23.4 2.3-33.8-2.8-14.2-6.7-24.7-20.8-26.7-36.4-.8-5.6-.4-11.2-.5-16.8V50.7a7.47 7.47 0 0 1-.3-2zm41.3 61.4c-10 1.6-19.2 7-25.5 14.9-4.8 6.1-7.9 13.5-8.7 21.3-1 9.2 1.3 18.8 6.4 26.5 4.7 7.2 11.6 12.8 19.6 15.8 8.4 3.3 17.9 3.6 26.6 1 13.9-4.1 25-16.1 28-30.3 1.9-8.8.9-18.3-3.1-26.5-4-8.4-10.9-15.3-19.3-19.2-7.3-3.6-15.8-4.8-24-3.5z" fill="#d19e59"/><path d="M69.3 57.6c22.9-18.6 52.9-28.1 82.4-26.1 31.8 1.8 62.6 17.2 83.1 41.6 1.1 1.4.8 3.7-.7 4.7-1.4 1.2-3.8.8-4.8-.7-10.7-12.4-24.1-22.4-39.1-29.1-27.2-12.3-59.3-13.1-87-2.2-2.4.9-4.7 1.9-7 3-5.9 2.8-11.6 6.1-16.9 9.9l.1 90.7c-.5 18.1 7.1 36.1 20.4 48.4 12.2 11.6 29.1 18.1 46 17.5 17.9-.3 35.5-8.7 47.2-22.2 10.7-12.2 16.5-28.5 15.8-44.7-.5-18-9-35.6-22.8-47.2-13.4-11.5-31.6-17-49.1-14.9-12.3 1.3-24.1 6.3-33.7 14.2v-8.6c12.2-8.6 27.1-13.1 42-12.8 18 .2 35.8 7.6 48.7 20.1 11.7 11.3 19.4 26.6 21.3 42.8 2.1 16.8-2.1 34.4-11.6 48.5-8.9 13.3-22.4 23.5-37.7 28.4-18.7 6.1-40 3.9-57.1-5.9-14.6-8.2-26.2-21.8-31.9-37.6-3.4-9.1-4.7-18.8-4.4-28.4V63.9c-6.3 5.3-12.1 11.2-17.1 17.7-2.6 3.3-4.9 6.7-7.2 10.2-9.5 15.6-15.3 33.5-16.4 51.7-1.5 22.1 3.8 44.6 15 63.8C56.8 224 71.1 238.2 88 248c16.6 9.6 35.6 14.8 54.8 15 20.5.3 41.1-5.2 58.7-15.7 10.6-6.3 20.1-14.3 28.1-23.6 1.5-1.9 4.7-1.2 5.6.9.5 1.2.4 2.7-.6 3.7-12 14-27.3 25.1-44.2 32.3-19.9 8.4-42 11.2-63.4 8.1-19.4-2.8-38-10.4-53.8-22.1-13.9-10.3-25.5-23.6-33.8-38.8-10.2-18.5-15.2-39.8-14.5-60.9a117.35 117.35 0 0 1 9.1-42.1 119.53 119.53 0 0 1 35.3-47.2zm71.3 65.9c6.4-.8 13 .7 18.4 4.2 7.4 4.8 12.3 13.3 12.3 22.1.2 5.2-1.2 10.4-3.9 14.8-3.8 6.4-10.4 11.1-17.7 12.6-6.4 1.4-13.3.3-19.1-2.9-6.4-3.6-11.3-9.9-13-17.1-1.8-7-.6-14.8 3.2-20.9 4.3-7 11.7-11.8 19.8-12.8z" fill="#151922"/></svg>